<svg xmlns="http://www.w3.org/2000/svg" width="20" height="7" viewBox="0 0 19.9 7.2">
  <path d="M5.1 5.2C5 5 4.9 5 4.7 5c-0.2 0-0.3 0.1-0.4 0.2C4.2 5.3 4.2 5.3 4.2 5.7c0 0.4 0 0.5 0.1 0.6C4.4 6.4 4.5 6.5 4.7 6.5c0.2 0 0.3-0.1 0.4-0.2v0.2c0 0.2-0.1 0.3-0.3 0.3 -0.1 0-0.2-0.1-0.3-0.1L4.2 6.9c0.1 0.2 0.3 0.3 0.5 0.3 0.3 0 0.7-0.2 0.7-0.7V5H5.1V5.2zM5.1 6.1C5 6.2 4.9 6.2 4.8 6.2c-0.1 0-0.2-0.1-0.2-0.1 -0.1-0.1-0.1-0.1-0.1-0.4 0-0.2 0-0.3 0.1-0.4 0-0.1 0.1-0.1 0.2-0.1 0.1 0 0.2 0.1 0.2 0.1 0.1 0.1 0.1 0.1 0.1 0.4C5.1 6 5.1 6 5.1 6.1zM7.4 5.3c0.1 0 0.2 0.1 0.3 0.2L7.9 5.2c-0.1-0.1-0.3-0.3-0.5-0.3 -0.3 0-0.7 0.2-0.7 0.8 0 0.5 0.3 0.8 0.7 0.8 0.2 0 0.4-0.1 0.5-0.3L7.7 6.1C7.6 6.1 7.5 6.2 7.4 6.2c-0.2 0-0.4-0.1-0.4-0.5C7 5.4 7.1 5.3 7.4 5.3zM10.4 5c-0.3 0-0.6 0.2-0.6 0.8 0 0.6 0.4 0.8 0.7 0.8 0.2 0 0.4-0.1 0.5-0.2l-0.2-0.2c-0.1 0.1-0.2 0.1-0.3 0.1 -0.2 0-0.4-0.1-0.4-0.4h0.9V5.6C11 5.2 10.7 5 10.4 5zM10.1 5.6c0-0.2 0.1-0.4 0.3-0.4 0.2 0 0.3 0.1 0.3 0.4H10.1zM11.9 5c-0.2 0-0.4 0.1-0.5 0.2l0.2 0.2c0.1-0.1 0.1-0.1 0.3-0.1 0.2 0 0.3 0.1 0.3 0.2v0.2h-0.4c-0.3 0-0.5 0.2-0.5 0.4 0 0.3 0.2 0.5 0.5 0.5 0.2 0 0.3 0 0.4-0.1h0V6.5h0.3V5.5C12.5 5.1 12.3 5 11.9 5zM12.2 6c0 0.2-0.1 0.3-0.3 0.3 -0.2 0-0.3-0.1-0.3-0.2 0-0.1 0.1-0.2 0.3-0.2h0.4V6zM19.8 0.1h-1v3c0 0.7-0.4 1.1-1 1.1 -0.6 0-1-0.4-1-1.1V0.1h-1v3c0 0.7-0.4 1.1-1 1.1 -0.6 0-1-0.4-1-1.1V0.1h-1v1.7C12.7 0.9 12.1 0.4 11.2 0.4c-1 0-1.6 0.7-1.7 1.7L9.4 3.2C9.3 3.6 9.2 3.9 8.8 3.9c-0.5 0-0.8-0.5-0.8-1.2 0-0.8 0.3-1.4 0.8-1.9L8 0C7.4 0.6 7.1 1.3 6.9 2V1.8c0-1.1-0.9-1.7-1.7-1.7 -0.7 0-1.2 0.2-1.6 0.6 -0.4-0.4-0.7-0.6-1.4-0.6 -0.5 0-1 0.2-1.3 0.6h0V0.1H0v4.9l0 0V6.5h0.3V5.6c0-0.2 0.1-0.3 0.3-0.3 0.2 0 0.3 0.1 0.3 0.3V6.5h0.3V5.6c0-0.2 0.1-0.3 0.3-0.3 0.2 0 0.3 0.1 0.3 0.3V6.5h0.3v-1c0-0.3-0.3-0.5-0.5-0.5 -0.2 0-0.4 0.1-0.5 0.2C1.1 5.1 1 5.1 1 5.1V2.1c0-0.7 0.4-1.1 1-1.1 0.6 0 1 0.4 1 1.1v2.9C2.8 5 2.7 5.1 2.6 5.2l0.2 0.2C2.9 5.3 3 5.3 3.1 5.3c0.2 0 0.3 0 0.3 0.2v0.2H3c-0.3 0-0.5 0.2-0.5 0.4 0 0.3 0.2 0.5 0.5 0.5 0.2 0 0.3 0 0.4-0.1H3.4V6.5h0.3V5.5c0-0.2-0.1-0.3-0.2-0.4h0.4V2.1c0-0.7 0.4-1.1 1-1.1 0.6 0 1 0.4 1 1.1v3l0 0V6.5h0.3V5.1h0.7V3.3C7.1 4.2 7.6 4.9 8.4 5.1 8.3 5.2 8.2 5.3 8.2 5.4c0 0.3 0.2 0.4 0.4 0.4L8.9 5.9c0.1 0 0.2 0 0.2 0.1 0 0.1-0.1 0.2-0.3 0.2 -0.2 0-0.3-0.1-0.5-0.2l-0.2 0.2C8.3 6.4 8.5 6.5 8.8 6.5c0.4 0 0.6-0.2 0.6-0.5 0-0.2-0.1-0.4-0.4-0.5l-0.2 0C8.5 5.6 8.5 5.5 8.5 5.4c0-0.1 0.1-0.2 0.3-0.2 0.2 0 0.3 0.1 0.4 0.1l0.2-0.2C9.3 5.1 9.2 5.1 9.2 5.1c0.7-0.1 1.3-0.7 1.3-1.7l0.1-1c0-0.6 0.3-0.8 0.6-0.8 0.4 0 0.7 0.3 0.7 1 0 0.6-0.2 1.1-0.6 1.6l0.9 0.7c0.3-0.4 0.6-0.8 0.7-1.4v1.4h0l0 0v0h0l0.5 1.4h0.3l0.3-1.1h0l0.3 1.1h0.3l0.4-1.4c0.1 0 0.1 0 0.2 0 0.1 0 0.2 0 0.4 0 -0.2 0.1-0.3 0.3-0.3 0.7 0 0.6 0.4 0.8 0.7 0.8 0.2 0 0.4-0.1 0.5-0.2l-0.2-0.2c-0.1 0.1-0.2 0.1-0.3 0.1 -0.2 0-0.4-0.1-0.4-0.4h0.9V5.6c0-0.4-0.3-0.6-0.6-0.6 0.3-0.1 0.5-0.3 0.7-0.5 0.2 0.3 0.5 0.4 0.8 0.5 -0.2 0.1-0.5 0.3-0.5 0.8 0 0.6 0.4 0.8 0.7 0.8 0.2 0 0.4-0.1 0.5-0.2l-0.2-0.2c-0.1 0.1-0.2 0.1-0.3 0.1 -0.2 0-0.4-0.1-0.4-0.4h0.9V5.6c0-0.2-0.1-0.4-0.2-0.5 0.1 0 0.2 0 0.3 0 0.5 0 1-0.2 1.3-0.7v0.7c-0.1-0.1-0.2-0.2-0.4-0.2 -0.2 0-0.3 0.1-0.4 0.2 -0.1 0.1-0.1 0.2-0.1 0.6 0 0.4 0 0.5 0.1 0.6 0.1 0.1 0.2 0.2 0.4 0.2 0.2 0 0.3-0.1 0.4-0.2V6.5h0.3V4.4h-0.3c0.2-0.3 0.3-0.6 0.3-1v-3.3L19.8 0.1 19.8 0.1zM0.3 5.2H0.3V5.1h0.1C0.3 5.1 0.3 5.1 0.3 5.2zM3.4 6c0 0.2-0.1 0.3-0.3 0.3 -0.2 0-0.3-0.1-0.3-0.2 0-0.1 0.1-0.2 0.3-0.2H3.4V6zM13.5 6h0l-0.3-1h0.6L13.5 6zM14.4 6h0L14.1 5h-0.2V4.5h0c0.2 0.3 0.5 0.4 0.8 0.5L14.4 6zM16.2 5.6h-0.6c0-0.2 0.1-0.4 0.3-0.4C16.1 5.3 16.2 5.4 16.2 5.6zM17.2 5.6c0-0.2 0.1-0.4 0.3-0.4 0.2 0 0.3 0.1 0.3 0.4H17.2zM19.2 6.2c-0.3 0-0.3-0.2-0.3-0.5 0-0.2 0-0.5 0.3-0.5 0.3 0 0.3 0.2 0.3 0.5C19.5 6 19.5 6.2 19.2 6.2z"/>
</svg>
