<svg
   xmlns:dc="http://purl.org/dc/elements/1.1/"
   xmlns:cc="http://creativecommons.org/ns#"
   xmlns:rdf="http://www.w3.org/1999/02/22-rdf-syntax-ns#"
   xmlns:svg="http://www.w3.org/2000/svg"
   xmlns="http://www.w3.org/2000/svg"
   viewBox="0 0 405.70667 67.693336"
   height="67.693336"
   width="405.70667"
   xml:space="preserve"
   id="svg2"
   version="1.1"><metadata
     id="metadata8"><rdf:RDF><cc:Work
         rdf:about=""><dc:format>image/svg+xml</dc:format><dc:type
           rdf:resource="http://purl.org/dc/dcmitype/StillImage" /></cc:Work></rdf:RDF></metadata><defs
     id="defs6" /><g
     transform="matrix(1.3333333,0,0,-1.3333333,0,67.693333)"
     id="g10"><g
       transform="scale(0.1)"
       id="g12"><path
         id="path14"
         style="fill:#000000;fill-opacity:1;fill-rule:nonzero;stroke:none"
         d="m 364.324,271.891 c -21.433,54.925 -173.203,234.3 -173.203,234.3 0,0 -151.7851,-179.375 -173.203,-234.3 C 6.4375,247.344 0,219.961 0,191.113 0,85.5352 85.5664,0 191.121,0 296.68,0 382.234,85.5352 382.234,191.113 c 0,28.848 -6.433,56.231 -17.91,80.778 z M 97.7852,161.34 c -17.1407,0.25 -30.8321,14.265 -30.5977,31.383 0.918,68.488 57.1485,123.222 125.6175,122.3 10.691,-0.121 21.062,-1.636 30.945,-4.304 C 170.066,297.672 129.941,249.691 129.16,191.914 128.938,174.797 114.883,161.102 97.7852,161.34 Z M 189.48,67.1367 c -10.71,0.1485 -21.074,1.6211 -30.925,4.2891 53.664,13.0781 93.8,61.1132 94.57,118.8082 0.215,17.129 14.277,30.829 31.414,30.586 17.102,-0.234 30.793,-14.289 30.559,-31.379 C 314.16,120.945 257.938,66.2305 189.48,67.1367" /><path
         id="path16"
         style="fill:#000000;fill-opacity:1;fill-rule:nonzero;stroke:none"
         d="m 504.57,181.883 7.278,-6.512 c 25.515,-22.551 57.617,-40.949 95,-40.949 16.035,0 42.593,6.523 45.781,26.699 3.191,20.176 -17.871,21.953 -32.258,24.934 l -31.711,5.937 c -61.719,11.27 -109.195,48.653 -98.101,118.707 16.812,106.215 122.988,165.574 220.293,165.574 51.035,0 95.945,-12.46 135.652,-39.16 l -62.07,-114.55 c -24.891,18.988 -54.004,33.824 -89.004,33.824 -14.258,0 -35.86,-5.332 -38.782,-23.742 -2.625,-16.614 17.168,-18.989 29.165,-21.946 l 35.488,-8.316 C 787.688,286.938 831.719,250.141 819.68,174.18 802.773,67.3516 697.078,14.5313 600.32,14.5313 c -56.367,0 -119.215,15.4179 -165.613,40.9453 L 504.57,181.883" /><path
         id="path18"
         style="fill:#000000;fill-opacity:1;fill-rule:nonzero;stroke:none"
         d="M 1023.49,336.797 997.727,174.18 c -2.903,-18.379 -4.805,-37.981 20.113,-37.981 24.9,0 29.22,19.602 32.12,37.981 l 25.74,162.617 h 151.97 L 1199.45,158.758 C 1183.66,59.043 1089.96,14.5313 998.586,14.5313 c -91.43,0 -171.035,44.5117 -155.234,144.2267 l 28.218,178.039 h 151.92" /><path
         id="path20"
         style="fill:#000000;fill-opacity:1;fill-rule:nonzero;stroke:none"
         d="m 1505.03,188.426 c -14.5,9.504 -24.55,17.207 -44.16,17.207 -39.74,0 -63.67,-23.75 -69.89,-62.918 L 1371.81,21.6406 h -153.14 l 49.93,315.1564 h 153.11 l -10.22,-42.145 h 3.54 c 33.9,41.559 63.2,50.453 114.66,49.27 l -24.66,-155.496" /><path
         id="path22"
         style="fill:#000000;fill-opacity:1;fill-rule:nonzero;stroke:none"
         d="m 1602.27,364.703 c 14.58,91.985 64.19,143.031 159.16,143.031 22.53,0 43.96,-3.566 65.94,-7.125 L 1808.1,378.934 c -7.26,2.961 -12.82,5.351 -19.94,5.351 -26.12,0 -35.42,-21.375 -38.73,-42.137 l -1.86,-11.875 52.64,6.524 -19.45,-122.844 -48.58,4.141 -31.14,-196.4534 h -153.09 l 31.1,196.4534 -42.2,-4.141 19.45,122.844 40.71,-5.348 5.26,33.254" /><path
         id="path24"
         style="fill:#000000;fill-opacity:1;fill-rule:nonzero;stroke:none"
         d="m 1868.7,502.984 h 153.11 L 1945.59,21.6406 h -153.14 l 76.25,481.3434" /><path
         id="path26"
         style="fill:#000000;fill-opacity:1;fill-rule:nonzero;stroke:none"
         d="m 2229.3,434.137 c -8.18,-51.641 -52.11,-74.196 -96.02,-74.196 -43.92,0 -80.72,22.555 -72.53,74.196 7.24,45.707 47.86,73.597 95.92,73.597 48.09,0 79.86,-27.89 72.63,-73.597 z m -176.25,-97.34 h 153.13 L 2156.26,21.6406 h -153.13 l 49.92,315.1564" /><path
         id="path28"
         style="fill:#000000;fill-opacity:1;fill-rule:nonzero;stroke:none"
         d="m 2394.63,286.352 h 3.56 c 35.11,34.418 61.32,57.57 110.6,57.57 78.36,0 99.91,-58.754 88.92,-128.192 L 2566.98,21.6406 h -153.15 l 24.34,153.7304 c 2.93,18.399 7.06,44.512 -19.04,44.512 -25.54,0 -29.67,-26.113 -32.6,-44.512 l -24.3,-153.7304 h -153.15 l 49.91,315.1564 h 149.56 l -13.92,-50.445" /><path
         id="path30"
         style="fill:#000000;fill-opacity:1;fill-rule:nonzero;stroke:none"
         d="m 2994.96,153.418 c 26.43,118.102 -50.55,190.504 -162.71,190.504 -100.31,0 -191.37,-65.289 -207.89,-169.742 -17.2,-108.6136 65.49,-159.6487 164.61,-159.6487 72.43,0 162.84,35.0195 195.04,110.9957 h -148.96 c -5.31,-14.843 -18.99,-26.1247 -34.99,-26.1247 -32.06,0 -31.7,28.4887 -27.65,54.0157 z m -212.22,65.273 c 3.48,21.954 17.76,40.954 40.92,40.954 21.97,0 34.28,-19.586 30.89,-40.954 h -71.81" /><path
         id="path32"
         style="fill:#15182a;fill-opacity:1;fill-rule:evenodd;stroke:none"
         d="m 3015.63,321.371 c 15.11,0 27.13,-11.703 27.13,-26.648 0,-14.95 -12.02,-26.801 -27.29,-26.801 -15.28,0 -27.46,11.851 -27.46,26.801 0,14.945 12.18,26.648 27.46,26.648 z m -0.32,-5.355 c -11.54,0 -20.48,-9.59 -20.48,-21.293 0,-11.856 8.94,-21.278 20.8,-21.278 11.54,-0.168 20.31,9.422 20.31,21.114 0,11.867 -8.77,21.457 -20.47,21.457 z m -4.07,-35.098 h -6.17 v 26.648 c 2.43,0.321 5.85,0.813 10.24,0.813 5.02,0 7.31,-0.813 9.08,-2.113 1.64,-1.145 2.78,-3.086 2.78,-5.696 0,-3.242 -2.44,-5.355 -5.53,-6.328 v -0.324 c 2.6,-0.813 3.91,-2.934 4.72,-6.496 0.81,-4.063 1.45,-5.531 1.94,-6.504 h -6.49 c -0.81,0.973 -1.31,3.246 -2.12,6.504 -0.48,2.754 -2.11,4.058 -5.52,4.058 h -2.93 z m 0.17,14.945 h 2.93 c 3.4,0 6.16,1.133 6.16,3.907 0,2.441 -1.78,4.062 -5.68,4.062 -1.63,0 -2.77,-0.164 -3.41,-0.332 v -7.637" /></g></g></svg>
