<svg id="svg" version="1.1" width="400" height="400" xmlns="http://www.w3.org/2000/svg" xmlns:xlink="http://www.w3.org/1999/xlink" display="block"><g id="svgg"><path id="path0" d="M193.000 5.000 C 182.703 5.412,179.980 5.852,177.550 7.496 C 175.110 9.147,172.342 9.588,161.550 10.044 C 150.043 10.531,147.790 10.926,142.500 13.383 C 139.200 14.915,132.368 17.676,127.319 19.517 C 117.117 23.236,115.354 24.217,106.000 31.381 C 94.750 39.997,95.464 40.372,107.022 31.919 C 113.546 27.147,129.163 19.000,131.785 19.000 C 132.550 19.000,136.849 17.359,141.338 15.354 C 148.921 11.966,150.423 11.660,162.500 11.045 C 171.942 10.564,176.184 9.937,178.000 8.752 C 187.543 2.529,224.000 8.298,224.000 16.033 C 224.000 16.980,224.675 18.315,225.500 19.000 C 226.698 19.995,227.000 19.991,227.000 18.984 C 227.000 16.829,238.019 18.429,243.583 21.391 C 246.278 22.826,249.089 24.000,249.829 24.000 C 250.568 24.000,253.947 26.649,257.337 29.887 C 262.160 34.494,264.416 35.925,267.716 36.469 C 271.408 37.078,274.372 38.843,281.229 44.514 C 282.180 45.301,282.708 46.597,282.402 47.395 C 281.944 48.589,281.506 48.506,279.923 46.923 C 277.661 44.661,273.176 44.377,272.383 46.446 C 271.735 48.132,276.976 55.133,278.281 54.326 C 278.767 54.026,277.953 52.517,276.473 50.972 C 273.450 47.817,273.789 46.046,277.287 46.715 C 278.747 46.994,280.048 48.289,280.759 50.172 C 282.232 54.074,284.000 52.944,284.000 48.101 C 284.000 45.061,283.521 44.103,281.553 43.206 C 280.207 42.593,278.355 40.946,277.438 39.546 C 276.521 38.145,275.228 37.000,274.566 37.000 C 269.728 37.000,262.328 33.443,258.069 29.071 C 252.481 23.334,240.109 17.383,231.719 16.397 C 227.313 15.879,225.911 15.294,225.428 13.773 C 224.765 11.685,217.849 8.058,214.461 8.022 C 213.340 8.010,210.865 7.213,208.961 6.250 C 206.029 4.767,203.591 4.576,193.000 5.000 M201.241 18.210 C 200.247 19.407,200.982 19.557,206.057 19.190 C 212.023 18.758,218.204 22.121,216.145 24.678 C 215.790 25.118,216.515 24.624,217.756 23.579 C 218.997 22.534,220.310 21.976,220.673 22.339 C 221.036 22.703,220.978 23.000,220.544 23.000 C 220.110 23.000,220.315 23.675,221.000 24.500 C 223.634 27.674,227.184 24.664,224.933 21.164 C 224.027 19.755,223.935 19.845,224.337 21.749 C 224.942 24.610,223.358 25.703,222.504 23.013 C 221.658 20.346,218.000 18.277,218.000 20.465 C 218.000 21.309,217.550 22.000,217.000 22.000 C 216.450 22.000,216.000 21.566,216.000 21.035 C 216.000 18.265,203.225 15.819,201.241 18.210 M190.655 23.750 C 190.400 24.163,191.161 24.536,192.345 24.579 C 193.530 24.622,195.119 24.847,195.875 25.079 C 196.631 25.311,197.456 24.938,197.708 24.250 C 198.211 22.878,191.488 22.402,190.655 23.750 M192.208 28.250 C 191.409 29.214,192.009 29.468,194.836 29.361 C 200.179 29.159,200.725 28.956,198.500 28.000 C 195.577 26.744,193.385 26.831,192.208 28.250 M208.030 30.250 C 207.999 34.099,206.506 35.375,205.689 32.250 C 205.438 31.288,205.180 31.978,205.116 33.785 C 205.013 36.707,205.208 36.959,206.885 36.062 C 209.210 34.817,210.401 30.515,209.059 28.212 C 208.266 26.852,208.055 27.270,208.030 30.250 M229.500 29.195 C 232.308 30.787,232.967 32.027,232.985 35.750 C 233.002 39.450,235.240 40.190,237.151 37.129 C 239.586 33.230,243.548 35.932,243.209 41.260 C 242.940 45.480,243.081 45.792,245.023 45.284 C 247.150 44.728,250.695 40.362,249.771 39.438 C 249.496 39.163,248.525 40.077,247.612 41.469 C 245.265 45.052,244.500 44.630,244.500 39.751 C 244.500 35.857,244.269 35.473,241.750 35.184 C 240.238 35.010,239.000 34.461,239.000 33.966 C 239.000 33.470,240.238 32.393,241.750 31.572 C 243.646 30.543,243.969 30.068,242.789 30.040 C 241.849 30.018,240.622 30.563,240.064 31.250 C 239.506 31.938,237.905 33.850,236.507 35.500 L 233.964 38.500 234.592 35.743 C 235.404 32.181,232.759 27.989,229.727 28.030 C 227.556 28.060,227.551 28.090,229.500 29.195 M194.550 33.340 C 193.108 34.395,192.859 35.435,193.382 38.224 C 193.877 40.863,193.674 41.911,192.586 42.329 C 191.619 42.700,191.019 42.147,190.812 40.695 C 190.595 39.168,189.740 38.444,188.000 38.315 C 186.625 38.214,186.245 38.351,187.155 38.620 C 188.066 38.890,189.087 40.210,189.424 41.555 C 190.860 47.275,195.519 43.319,194.789 37.000 C 194.539 34.838,194.940 34.458,197.750 34.187 C 199.537 34.014,201.000 33.452,201.000 32.937 C 201.000 31.535,196.645 31.808,194.550 33.340 M205.218 40.421 C 204.411 42.192,203.560 42.698,202.052 42.303 C 199.866 41.732,196.990 43.484,197.015 45.372 C 197.024 46.023,197.401 45.916,197.905 45.119 C 199.059 43.298,212.640 44.865,212.250 46.775 C 212.113 47.449,212.563 47.888,213.250 47.750 C 214.013 47.597,214.403 48.398,214.251 49.808 C 214.108 51.140,214.425 51.855,215.001 51.499 C 218.251 49.491,213.983 44.076,209.027 43.921 C 207.637 43.878,207.068 43.613,207.761 43.334 C 208.455 43.054,209.533 41.852,210.157 40.663 C 211.255 38.570,211.227 38.556,209.317 40.250 C 207.114 42.203,204.917 42.683,206.800 40.800 C 208.192 39.408,208.373 38.000,207.161 38.000 C 206.699 38.000,205.825 39.090,205.218 40.421 M87.994 41.342 C 81.860 43.537,70.125 52.760,52.084 69.564 C 47.913 73.449,41.700 78.118,38.277 79.939 C 31.963 83.298,28.235 86.925,15.500 102.095 C 11.650 106.681,6.519 112.593,4.099 115.232 C 1.678 117.871,-0.079 120.254,0.193 120.527 C 0.466 120.799,3.050 118.430,5.935 115.261 C 8.821 112.092,12.868 107.700,14.928 105.500 C 16.989 103.300,21.278 98.013,24.459 93.750 C 27.640 89.487,30.546 86.000,30.918 86.000 C 31.289 86.000,32.472 85.315,33.547 84.477 C 34.621 83.639,38.875 80.749,43.000 78.055 C 47.125 75.360,57.475 67.027,66.000 59.536 C 75.820 50.908,83.699 44.842,87.500 42.984 C 93.766 39.921,93.983 39.200,87.994 41.342 M232.664 42.832 C 232.849 43.564,233.000 44.346,233.000 44.568 C 233.000 44.791,234.600 45.642,236.556 46.459 C 240.183 47.975,241.621 56.647,238.419 57.699 C 237.743 57.921,237.505 56.917,237.784 55.018 C 238.273 51.687,236.652 49.000,234.155 49.000 C 232.955 49.000,233.110 49.389,234.777 50.557 C 237.181 52.240,237.666 54.934,235.887 56.713 C 234.313 58.287,235.849 60.273,238.170 59.666 C 241.943 58.679,242.830 63.524,239.510 66.989 C 236.007 70.646,238.004 72.083,243.000 69.500 C 246.891 67.488,248.535 68.010,249.420 71.537 C 250.316 75.106,249.955 75.297,245.686 73.513 C 241.494 71.762,240.663 71.645,241.451 72.920 C 241.763 73.426,240.900 74.720,239.532 75.796 C 238.164 76.872,236.579 78.977,236.010 80.473 C 235.441 81.969,234.081 83.427,232.988 83.713 C 230.416 84.386,230.412 86.000,232.983 86.000 C 234.352 86.000,235.733 84.487,237.443 81.112 C 240.462 75.154,244.706 73.008,247.353 76.100 C 249.714 78.857,251.760 78.442,254.011 74.750 C 256.575 70.545,256.570 65.826,254.000 63.500 C 252.900 62.505,252.000 60.635,252.000 59.345 C 252.000 58.055,251.550 57.000,251.000 57.000 C 249.295 57.000,249.900 60.599,251.910 62.419 C 254.746 64.985,255.248 68.494,253.388 72.742 L 251.742 76.500 250.621 71.581 C 249.325 65.894,248.313 65.270,244.000 67.500 C 240.948 69.078,240.893 69.069,241.932 67.126 C 243.279 64.610,243.321 59.316,242.000 58.500 C 241.450 58.160,241.000 55.443,241.000 52.461 C 241.000 47.165,240.910 46.995,237.092 45.047 C 234.943 43.951,232.992 42.704,232.756 42.277 C 232.521 41.850,232.479 42.099,232.664 42.832 M171.200 43.200 C 169.261 45.139,169.811 47.852,172.630 50.257 C 175.930 53.071,178.078 57.987,177.303 60.950 C 176.733 63.130,176.663 63.103,175.454 60.229 C 173.002 54.396,159.937 52.275,160.030 57.725 C 160.059 59.409,160.113 59.410,161.080 57.750 C 161.641 56.788,162.752 56.000,163.550 56.000 C 165.225 56.000,165.436 57.164,164.018 58.582 C 163.375 59.225,163.756 61.021,165.122 63.782 C 167.210 68.003,169.667 69.675,168.533 66.105 C 167.872 64.021,170.261 61.000,172.571 61.000 C 173.357 61.000,174.000 61.900,174.000 63.000 C 174.000 64.100,173.550 65.000,173.000 65.000 C 170.923 65.000,171.887 71.829,174.061 72.519 C 175.194 72.879,176.657 74.366,177.311 75.823 C 177.965 77.280,179.287 79.266,180.250 80.236 C 182.141 82.142,182.627 87.495,181.000 88.500 C 180.429 88.853,180.000 87.977,180.000 86.459 C 180.000 82.853,174.117 77.000,170.493 77.000 C 168.498 77.000,167.937 76.606,168.362 75.500 C 168.678 74.675,168.501 74.000,167.969 74.000 C 167.436 74.000,167.000 75.289,167.000 76.865 C 167.000 78.441,166.067 80.916,164.927 82.365 C 162.423 85.549,160.452 85.893,162.073 82.863 C 164.589 78.163,161.016 70.000,156.443 70.000 C 155.002 70.000,153.450 68.835,152.115 66.750 C 149.609 62.837,149.443 63.567,151.608 68.978 C 153.237 73.050,152.967 76.000,150.964 76.000 C 150.348 76.000,150.125 75.183,150.455 74.141 C 152.711 67.034,135.072 61.943,131.778 68.750 C 130.779 70.814,129.830 71.430,127.974 71.219 C 125.582 70.948,125.565 70.990,127.441 72.469 C 128.509 73.311,130.534 74.077,131.941 74.171 C 133.349 74.265,135.303 74.390,136.284 74.448 C 139.193 74.620,145.000 79.849,144.996 82.293 C 144.993 84.206,144.724 84.059,142.973 81.188 C 141.262 78.382,140.462 77.924,137.727 78.188 C 133.444 78.602,133.029 81.576,136.520 86.850 C 138.006 89.097,139.016 91.858,138.830 93.170 C 138.532 95.276,137.110 96.081,136.923 94.250 C 136.725 92.306,132.490 86.000,131.383 86.000 C 130.697 86.000,129.862 85.141,129.529 84.090 C 129.195 83.040,128.262 81.632,127.454 80.962 C 126.165 79.892,126.160 80.080,127.413 82.496 C 128.199 84.010,128.594 85.894,128.292 86.682 C 127.882 87.749,127.450 87.526,126.598 85.808 C 125.320 83.230,120.698 82.176,118.537 83.969 C 117.536 84.800,117.063 84.755,116.676 83.792 C 116.391 83.081,116.122 83.538,116.079 84.807 C 116.004 86.988,115.880 87.029,113.777 85.557 C 112.555 84.701,111.105 84.000,110.555 84.000 C 110.005 84.000,110.587 84.723,111.849 85.607 C 113.111 86.491,114.481 88.126,114.894 89.242 C 115.576 91.085,115.839 90.939,117.788 87.635 C 120.050 83.802,122.870 82.933,124.943 85.432 C 125.928 86.619,125.565 86.918,122.816 87.182 L 119.500 87.500 119.500 93.696 C 119.500 97.318,118.981 100.414,118.250 101.146 C 117.249 102.150,116.994 101.512,116.969 97.950 C 116.922 91.328,113.117 88.858,106.921 91.428 C 105.857 91.869,105.007 91.336,104.314 89.791 C 103.516 88.014,103.354 89.080,103.591 94.542 C 103.843 100.353,103.594 101.772,102.164 102.666 C 100.637 103.619,100.475 103.373,100.800 100.589 C 101.277 96.504,98.352 92.750,94.693 92.750 C 89.952 92.750,89.000 94.473,89.000 103.057 C 89.000 113.730,89.603 115.154,97.608 123.398 C 102.115 128.038,112.860 130.740,115.663 127.937 C 116.955 126.645,121.614 126.425,124.988 127.496 L 127.467 128.283 125.234 129.109 C 122.306 130.192,122.408 131.409,125.547 132.839 C 129.114 134.465,130.777 134.301,134.583 131.949 C 139.408 128.967,147.976 133.994,145.339 138.261 C 144.841 139.067,144.388 138.637,144.003 136.990 C 142.962 132.539,130.975 133.273,131.015 137.785 C 131.026 138.966,131.270 139.124,131.798 138.293 C 132.948 136.483,140.004 143.297,139.985 146.199 C 139.957 150.321,138.299 151.637,137.532 148.145 C 136.592 143.868,135.523 143.494,131.320 145.974 C 128.789 147.467,127.390 147.790,126.653 147.053 C 125.916 146.316,126.110 146.000,127.300 146.000 C 129.916 146.000,129.351 142.421,126.365 140.073 C 123.715 137.988,120.513 137.357,119.657 138.750 C 119.404 139.162,120.576 139.552,122.263 139.615 C 126.290 139.766,129.014 143.081,126.021 144.188 C 123.503 145.119,123.446 146.497,125.857 148.193 C 126.878 148.912,128.010 150.441,128.374 151.592 C 130.893 159.569,143.981 160.326,148.331 152.746 C 149.786 150.211,150.452 149.919,154.159 150.192 C 158.732 150.529,160.680 152.606,156.361 152.540 C 154.895 152.518,153.514 153.024,153.293 153.665 C 152.713 155.342,156.573 156.299,158.896 155.055 C 163.147 152.780,173.027 155.712,172.985 159.235 C 172.974 160.107,172.741 160.158,172.235 159.400 C 170.812 157.270,166.724 155.805,163.820 156.386 C 160.119 157.126,157.741 159.341,159.142 160.742 C 160.466 162.066,159.846 167.232,158.303 167.739 C 157.538 167.989,157.177 167.129,157.303 165.359 C 157.561 161.724,153.084 159.185,149.387 160.870 C 148.074 161.468,147.000 162.487,147.000 163.134 C 147.000 163.829,147.807 163.580,148.975 162.523 C 150.885 160.794,150.980 160.816,151.888 163.207 C 154.530 170.154,164.170 173.442,167.408 168.500 C 169.417 165.434,173.295 165.219,177.430 167.945 C 180.070 169.685,180.689 169.739,183.680 168.489 C 185.686 167.651,187.000 167.504,187.000 168.118 C 187.000 168.677,187.867 168.860,188.927 168.523 C 191.607 167.672,198.000 170.516,198.000 172.560 C 198.000 173.892,197.638 173.775,196.174 171.967 C 193.808 169.045,187.854 169.826,186.248 173.268 L 185.207 175.500 184.167 173.000 C 183.242 170.777,183.120 170.729,183.063 172.566 C 183.028 173.720,184.522 175.979,186.448 177.685 C 190.661 181.414,191.942 185.487,189.630 187.799 C 188.123 189.305,188.000 189.189,188.000 186.271 C 188.000 180.509,179.730 177.643,176.086 182.142 C 175.132 183.320,173.753 184.084,173.021 183.840 C 172.130 183.543,172.899 182.224,175.345 179.847 C 177.355 177.895,179.000 175.681,179.000 174.926 C 179.000 174.097,178.416 174.388,177.523 175.663 C 176.711 176.823,174.822 178.079,173.325 178.454 C 171.173 178.995,170.907 179.336,172.052 180.087 C 173.284 180.895,173.237 181.191,171.743 182.072 C 170.389 182.870,170.217 183.538,170.993 184.988 C 173.783 190.201,171.911 192.236,168.287 187.929 C 165.707 184.863,164.567 184.694,159.522 186.630 C 158.099 187.176,157.954 186.764,158.515 183.773 C 159.088 180.717,158.888 180.204,156.922 179.690 C 154.896 179.160,154.826 179.255,156.215 180.643 C 157.788 182.216,156.660 188.000,154.781 188.000 C 154.351 188.000,154.000 188.411,154.000 188.913 C 154.000 189.814,158.707 188.633,162.291 186.832 C 164.893 185.524,166.182 186.727,164.730 189.107 C 163.283 191.478,165.778 194.000,169.569 194.000 C 172.300 194.000,173.802 195.761,174.639 199.945 L 175.290 203.199 172.633 200.542 C 168.144 196.053,161.682 197.137,160.965 202.500 C 160.671 204.700,160.082 207.063,159.656 207.750 C 158.284 209.965,157.334 209.083,157.785 206.013 C 158.502 201.123,157.270 198.108,154.235 197.327 L 151.500 196.624 154.000 195.950 C 156.157 195.368,156.258 195.173,154.737 194.526 C 152.581 193.609,150.000 195.549,150.000 198.087 C 150.000 199.948,147.240 202.019,144.816 201.978 C 144.092 201.966,144.564 201.137,145.864 200.137 C 148.636 198.006,148.241 193.847,144.858 189.547 C 143.239 187.489,143.145 187.000,144.368 187.000 C 145.201 187.000,146.160 187.450,146.500 188.000 C 146.840 188.550,147.597 189.000,148.181 189.000 C 148.852 189.000,148.785 188.446,148.000 187.500 C 146.051 185.151,143.536 185.710,139.000 189.500 C 133.935 193.732,133.844 193.746,135.110 190.114 C 135.719 188.367,135.777 185.920,135.258 183.914 C 134.574 181.277,134.767 180.233,136.200 178.800 C 137.235 177.765,138.000 175.540,138.000 173.563 C 138.000 170.436,138.292 170.090,141.250 169.723 C 144.450 169.326,144.442 169.318,140.750 169.160 C 137.046 169.002,137.000 169.047,137.000 172.800 C 137.000 176.223,135.644 179.000,133.973 179.000 C 133.628 179.000,133.527 177.762,133.747 176.250 C 134.402 171.756,127.469 163.813,125.572 166.884 C 125.271 167.370,126.311 168.301,127.883 168.952 C 131.988 170.652,134.096 175.720,132.046 178.960 C 131.256 180.209,130.820 180.147,129.037 178.534 C 127.439 177.088,126.678 176.922,125.776 177.824 C 124.142 179.458,122.000 179.295,122.000 177.535 C 122.000 175.924,125.243 173.820,127.084 174.236 C 127.726 174.381,128.437 173.996,128.665 173.381 C 129.330 171.587,124.339 172.967,122.395 175.116 C 120.945 176.719,120.846 177.591,121.773 180.611 C 122.475 182.899,122.543 185.071,121.962 186.600 C 120.622 190.125,119.000 189.523,119.000 185.500 C 119.000 181.653,118.217 181.331,113.149 183.098 C 111.303 183.742,110.000 184.890,110.000 185.875 C 110.000 188.327,107.148 192.000,105.243 192.000 C 103.965 192.000,103.867 191.733,104.800 190.800 C 106.341 189.259,106.344 184.524,104.806 182.061 C 103.878 180.576,103.883 179.553,104.825 177.484 C 105.764 175.423,105.767 174.911,104.838 175.221 C 104.178 175.441,103.157 177.024,102.569 178.739 C 101.083 183.072,100.000 183.846,100.000 180.573 C 100.000 178.644,99.391 177.654,97.978 177.284 C 96.294 176.844,96.058 176.208,96.567 173.492 C 96.930 171.561,96.735 169.954,96.090 169.556 C 95.384 169.119,95.000 170.098,95.000 172.334 C 95.000 176.610,92.480 178.049,91.541 174.309 C 90.796 171.337,83.226 171.345,80.250 174.321 C 78.858 175.713,79.090 175.729,82.603 174.477 C 89.300 172.090,92.691 173.909,88.800 177.800 C 88.140 178.460,88.028 179.000,88.550 178.999 C 89.074 178.999,89.339 181.318,89.142 184.168 C 88.521 193.136,90.071 196.131,96.738 198.847 C 106.185 202.696,107.672 202.711,111.502 198.998 C 114.146 196.435,115.395 195.882,117.399 196.385 C 122.785 197.737,123.610 205.038,118.500 206.125 L 115.500 206.763 118.275 206.882 C 120.461 206.975,121.167 207.584,121.600 209.750 C 122.118 212.338,122.464 212.500,127.494 212.500 C 134.076 212.500,138.038 215.507,137.937 220.424 C 137.874 223.469,137.863 223.475,136.884 221.021 C 133.700 213.041,125.000 213.035,125.000 221.012 C 125.000 228.083,122.112 223.058,121.932 215.674 C 121.896 214.198,121.611 214.078,120.444 215.047 C 119.266 216.024,119.000 215.869,119.000 214.204 C 119.000 209.793,116.219 207.219,114.485 210.025 C 114.136 210.588,114.222 210.985,114.676 210.906 C 116.779 210.541,118.000 211.126,118.000 212.500 C 118.000 213.325,117.168 214.000,116.152 214.000 C 114.752 214.000,114.283 214.788,114.217 217.250 C 114.145 219.879,114.317 220.166,115.114 218.750 C 116.782 215.788,119.260 216.541,118.545 219.794 C 118.070 221.958,118.487 223.109,120.396 224.903 C 123.201 227.538,124.685 233.989,123.109 236.698 C 122.158 238.333,122.058 238.287,122.030 236.200 C 121.924 228.152,112.677 222.856,109.490 229.019 C 107.983 231.933,108.038 232.195,111.071 236.604 C 114.811 242.039,115.830 247.622,113.608 250.500 C 112.129 252.416,112.062 252.352,112.032 248.973 C 111.983 243.614,105.680 235.949,101.500 236.168 C 99.787 236.257,99.822 236.334,101.750 236.706 C 104.491 237.234,104.748 239.000,102.084 239.000 C 101.030 239.000,98.742 240.800,97.000 243.000 C 94.932 245.612,93.080 246.960,91.666 246.884 C 89.955 246.792,89.870 246.671,91.263 246.308 C 94.476 245.470,96.935 238.802,95.090 235.927 C 92.796 232.350,91.763 231.925,89.295 233.542 C 85.835 235.810,84.408 235.259,86.892 232.614 C 88.644 230.750,89.005 229.494,88.546 226.864 C 88.222 225.014,88.359 222.893,88.849 222.152 C 90.051 220.331,93.395 221.096,93.817 223.288 C 94.007 224.277,93.628 224.931,92.953 224.776 C 92.292 224.624,91.529 225.105,91.260 225.846 C 90.937 226.731,91.408 227.070,92.635 226.837 C 96.063 226.187,95.245 216.000,91.765 216.000 C 90.898 216.000,90.907 216.307,91.800 217.200 C 93.240 218.640,93.405 220.368,92.021 219.513 C 90.272 218.432,87.000 220.983,87.000 223.428 C 87.000 224.725,86.288 226.059,85.418 226.393 C 83.038 227.307,82.954 227.194,84.119 224.639 C 84.943 222.829,84.839 221.589,83.670 219.329 C 82.679 217.412,82.465 215.878,83.058 214.941 C 84.271 213.023,84.241 211.000,83.000 211.000 C 82.450 211.000,82.000 212.115,82.000 213.477 C 82.000 216.033,78.484 219.125,75.215 219.444 C 71.610 219.795,67.964 222.252,69.070 223.584 C 70.326 225.098,68.438 232.392,66.338 234.134 C 65.251 235.037,65.000 234.308,65.000 230.247 C 65.000 225.450,64.875 225.225,61.875 224.625 C 56.577 223.565,49.193 223.882,51.250 225.080 C 52.291 225.686,53.000 227.295,53.000 229.050 C 53.000 232.381,52.508 232.651,50.357 230.500 C 46.894 227.037,44.409 230.479,47.175 234.908 C 48.829 237.557,47.135 242.810,43.832 245.276 C 40.154 248.022,33.704 248.177,33.168 245.532 C 32.823 243.829,32.985 243.743,34.372 244.893 C 36.727 246.848,40.721 245.441,42.482 242.035 C 45.135 236.905,43.122 235.000,35.051 235.000 C 30.805 235.000,28.876 234.545,27.872 233.308 C 27.071 232.320,26.995 231.913,27.689 232.330 C 32.543 235.241,40.830 229.205,38.077 224.764 C 37.485 223.809,36.964 222.234,36.921 221.264 C 36.874 220.217,36.637 220.008,36.338 220.750 C 35.321 223.270,27.000 221.501,27.000 218.765 C 27.000 217.898,27.307 217.907,28.200 218.800 C 30.676 221.276,41.000 215.096,41.000 211.137 C 41.000 210.846,42.192 208.888,43.649 206.786 C 45.105 204.684,46.061 202.728,45.773 202.439 C 45.484 202.151,44.301 203.520,43.144 205.481 C 41.012 209.093,38.490 210.824,37.215 209.549 C 36.831 209.164,37.300 208.411,38.258 207.875 C 42.580 205.457,39.489 197.337,34.705 198.538 C 33.319 198.886,31.923 198.684,31.551 198.083 C 31.134 197.408,31.750 197.096,33.192 197.251 C 35.374 197.486,35.516 197.132,35.796 190.750 C 36.075 184.384,34.858 181.612,33.710 186.000 C 32.915 189.042,30.167 188.577,30.755 185.500 C 31.101 183.694,30.798 183.000,29.666 183.000 C 28.804 183.000,27.690 182.268,27.190 181.374 C 26.428 180.014,26.171 180.182,25.613 182.405 C 24.458 187.007,13.000 191.761,13.000 187.639 C 13.000 186.728,13.823 186.435,15.488 186.753 C 18.363 187.303,19.552 185.337,18.612 181.590 C 18.158 179.781,17.510 179.315,15.997 179.711 C 14.891 180.000,12.527 179.629,10.743 178.885 L 7.500 177.534 10.500 176.885 L 13.500 176.237 10.372 176.118 C 5.644 175.939,2.929 171.000,7.559 171.000 C 8.352 171.000,9.000 170.550,9.000 170.000 C 9.000 169.450,8.362 169.000,7.582 169.000 C 6.802 169.000,5.429 168.718,4.531 168.374 C 3.183 167.856,3.016 168.215,3.573 170.435 C 4.126 172.636,3.863 173.223,2.124 173.678 C -0.145 174.271,-1.132 182.447,0.977 183.167 C 1.515 183.350,2.222 185.075,2.549 187.000 C 3.110 190.305,3.056 190.392,1.572 188.559 C 0.063 186.695,0.000 186.740,0.000 189.686 C 0.000 191.374,0.675 193.315,1.500 194.000 C 3.477 195.641,3.402 198.963,1.319 202.027 L -0.362 204.500 1.890 202.531 C 8.209 197.005,25.632 206.392,22.495 213.633 C 21.796 215.246,21.605 215.106,21.093 212.606 C 19.754 206.068,11.827 204.114,10.644 210.030 C 9.861 213.944,8.383 213.809,7.580 209.750 C 6.931 206.468,4.000 201.604,4.000 203.809 C 4.000 204.464,3.352 205.000,2.559 205.000 C 1.766 205.000,0.866 205.408,0.558 205.907 C 0.249 206.405,0.847 206.591,1.886 206.320 C 4.523 205.630,5.236 207.317,3.622 210.427 C 2.460 212.668,2.471 213.688,3.698 217.249 C 5.415 222.233,4.687 227.431,1.944 229.780 C 0.295 231.192,0.000 232.766,0.000 240.140 L 0.000 248.835 3.750 250.668 C 5.813 251.675,7.653 253.324,7.839 254.331 C 8.157 256.049,8.026 256.063,5.730 254.559 C 0.571 251.179,0.288 252.225,0.081 275.421 L -0.110 296.732 7.633 303.866 C 11.891 307.790,15.741 311.000,16.187 311.000 C 16.634 311.000,17.000 311.450,17.000 312.000 C 17.000 314.177,13.682 312.790,9.207 308.741 C 6.618 306.399,3.488 303.629,2.250 302.586 L 0.000 300.690 0.000 309.864 L 0.000 319.038 2.750 318.431 C 4.263 318.097,9.715 316.459,14.868 314.790 C 24.835 311.562,24.051 311.592,46.073 313.609 C 55.808 314.500,75.805 307.021,84.132 299.373 C 87.230 296.528,90.989 293.398,92.486 292.417 L 95.207 290.634 90.854 289.332 C 88.459 288.616,86.388 288.024,86.250 288.015 C 86.112 288.007,86.000 288.845,86.000 289.878 C 86.000 293.400,83.332 294.529,79.418 292.662 C 74.854 290.486,74.656 290.545,76.592 293.500 C 77.545 294.954,77.777 296.000,77.146 296.000 C 76.550 296.000,76.322 296.675,76.638 297.500 C 77.068 298.619,76.489 298.996,74.357 298.985 C 72.145 298.973,71.839 298.751,73.000 298.000 C 74.293 297.165,74.266 297.029,72.809 297.015 C 70.008 296.990,69.640 294.978,71.882 291.945 C 73.047 290.370,74.000 288.425,74.000 287.624 C 74.000 286.822,74.563 285.940,75.250 285.662 C 75.938 285.385,75.375 285.069,74.000 284.961 C 70.857 284.712,70.900 284.708,68.500 285.573 C 66.860 286.165,66.724 286.053,67.746 284.951 C 71.420 280.990,29.243 272.614,25.329 276.528 C 23.425 278.432,22.363 278.390,21.592 276.379 C 21.114 275.133,21.436 274.881,22.985 275.286 C 24.300 275.630,25.000 275.324,25.000 274.406 C 25.000 273.633,25.450 273.000,26.000 273.000 C 26.550 273.000,27.000 272.625,27.000 272.167 C 27.000 271.708,26.325 271.333,25.500 271.333 C 24.675 271.333,24.000 271.708,24.000 272.167 C 24.000 272.625,23.127 273.000,22.059 273.000 C 20.991 273.000,19.840 273.450,19.500 274.000 C 18.667 275.347,16.000 275.276,16.000 273.906 C 16.000 273.305,16.869 272.586,17.931 272.308 C 20.494 271.638,21.342 269.212,19.199 268.682 C 15.524 267.771,11.435 267.978,13.000 268.995 C 13.825 269.531,14.162 270.033,13.750 270.110 C 13.338 270.187,12.550 270.363,12.000 270.500 C 11.450 270.637,10.325 270.806,9.500 270.875 C 8.675 270.944,8.000 271.675,8.000 272.500 C 8.000 273.325,7.213 273.964,6.250 273.921 C 5.287 273.878,5.037 273.624,5.694 273.356 C 6.350 273.089,6.642 272.231,6.342 271.449 C 6.001 270.560,6.735 269.671,8.301 269.076 C 9.679 268.552,11.148 267.569,11.567 266.892 C 12.106 266.020,11.810 265.859,10.553 266.341 C 9.273 266.833,8.929 266.628,9.319 265.610 C 9.808 264.336,6.868 262.586,4.750 262.892 C 4.337 262.951,4.007 261.988,4.015 260.750 C 4.026 259.219,4.289 258.907,4.839 259.773 C 5.283 260.474,6.571 261.225,7.700 261.442 C 8.829 261.660,11.741 262.743,14.169 263.849 C 27.243 269.805,79.482 285.000,86.884 285.000 C 88.889 285.000,92.260 285.927,94.375 287.061 C 103.498 291.950,113.630 287.620,128.500 272.476 C 134.000 266.875,141.038 260.410,144.139 258.109 C 149.701 253.984,151.300 252.036,158.341 240.798 C 164.847 230.414,173.219 229.157,180.924 237.405 C 182.258 238.832,184.418 240.000,185.724 240.000 C 187.030 240.000,189.367 240.656,190.916 241.457 C 192.466 242.258,196.487 243.357,199.852 243.899 C 207.315 245.101,207.911 245.430,212.135 250.689 C 224.042 265.511,227.224 268.928,234.341 274.530 C 246.627 284.202,257.530 289.870,265.854 290.915 C 272.321 291.728,273.122 292.113,277.759 296.643 C 294.588 313.082,306.853 320.756,318.363 322.046 C 322.317 322.490,328.015 323.842,331.026 325.050 C 334.037 326.259,337.850 327.396,339.500 327.577 C 341.150 327.758,348.575 328.825,356.000 329.948 C 369.038 331.921,394.760 332.797,398.418 331.393 C 399.747 330.883,400.000 328.730,400.000 317.923 L 400.000 305.061 396.500 305.192 C 394.309 305.275,393.000 305.825,393.000 306.662 C 393.000 307.398,392.325 308.000,391.500 308.000 C 390.675 308.000,389.964 308.788,389.921 309.750 C 389.874 310.795,389.639 310.997,389.338 310.250 C 388.512 308.203,387.144 308.833,387.710 311.000 C 388.106 312.512,387.741 313.000,386.215 313.000 C 384.484 313.000,384.093 312.113,383.473 306.769 L 382.750 300.537 380.052 303.769 C 376.624 307.874,376.000 307.828,376.000 303.465 C 376.000 300.322,375.792 300.041,374.131 300.930 C 373.104 301.480,371.945 301.612,371.556 301.223 C 371.168 300.835,370.411 301.300,369.875 302.258 C 369.339 303.216,368.303 304.000,367.572 304.000 C 366.842 304.000,365.494 305.012,364.578 306.250 L 362.912 308.500 363.537 305.500 L 364.163 302.500 361.767 304.750 C 358.664 307.664,358.186 307.586,358.704 304.250 C 359.120 301.575,359.087 301.555,357.523 303.500 C 356.638 304.600,355.483 305.500,354.957 305.500 C 354.431 305.500,353.887 305.844,353.750 306.264 C 353.406 307.314,358.778 310.000,361.221 310.000 C 362.600 310.000,363.033 310.472,362.626 311.532 C 362.246 312.523,362.826 313.372,364.269 313.935 C 367.454 315.179,373.411 321.628,372.115 322.429 C 371.042 323.092,356.779 316.270,356.167 314.800 C 355.983 314.360,354.971 314.000,353.917 314.000 C 352.863 314.000,352.000 313.550,352.000 313.000 C 352.000 312.450,351.170 312.000,350.155 312.000 C 349.140 312.000,347.495 311.100,346.500 310.000 C 345.505 308.900,344.071 308.000,343.314 308.000 C 342.557 308.000,341.678 307.325,341.362 306.500 C 341.045 305.675,340.358 305.000,339.834 305.000 C 339.310 305.000,339.203 305.520,339.595 306.155 C 340.038 306.870,339.870 307.038,339.155 306.595 C 338.520 306.203,338.000 305.329,338.000 304.654 C 338.000 303.978,337.028 303.352,335.840 303.263 C 334.652 303.173,333.414 302.707,333.090 302.227 C 332.765 301.747,331.600 300.980,330.500 300.522 C 328.802 299.816,328.750 299.630,330.152 299.291 C 331.060 299.071,333.535 299.657,335.652 300.592 C 337.768 301.528,340.121 302.421,340.881 302.578 C 341.640 302.734,342.705 303.305,343.248 303.848 C 343.896 304.496,345.403 304.178,347.648 302.917 C 349.525 301.863,351.659 301.000,352.390 301.000 C 353.120 301.000,355.694 299.266,358.109 297.147 C 360.524 295.027,363.850 292.597,365.500 291.747 C 367.150 290.896,372.086 286.555,376.470 282.100 C 380.853 277.645,385.102 274.000,385.911 274.000 C 386.993 274.000,386.869 274.389,385.441 275.470 C 383.681 276.803,383.797 276.831,386.683 275.776 C 389.568 274.721,390.056 274.841,391.899 277.056 C 393.018 278.400,393.948 279.078,393.967 278.563 C 393.985 278.048,395.350 278.919,397.000 280.500 C 398.650 282.081,400.000 282.931,400.000 282.390 C 400.000 280.882,392.468 273.866,391.687 274.646 C 391.309 275.024,391.000 274.861,391.000 274.283 C 391.000 269.864,381.986 272.707,378.102 278.351 C 376.332 280.924,371.099 285.672,365.764 289.546 C 360.669 293.246,355.775 297.175,354.890 298.277 C 350.674 303.523,335.605 300.218,319.604 290.537 C 313.671 286.947,309.740 285.163,308.670 285.573 C 307.560 285.999,307.000 285.703,307.000 284.689 C 307.000 282.978,301.148 279.000,298.632 279.000 C 297.734 279.000,296.982 278.438,296.960 277.750 C 296.894 275.676,284.592 269.033,282.048 269.698 C 280.158 270.192,279.877 269.924,280.164 267.897 C 280.448 265.885,279.844 265.287,276.283 264.050 C 273.964 263.244,271.939 262.029,271.783 261.350 C 271.278 259.147,253.599 247.034,252.777 248.327 C 252.069 249.439,251.538 247.881,251.889 245.727 C 251.959 245.301,250.662 244.682,249.008 244.352 C 247.007 243.951,246.000 243.150,246.000 241.958 C 246.000 240.973,245.571 240.017,245.048 239.833 C 242.510 238.945,229.638 227.216,225.938 222.419 C 223.638 219.439,221.137 217.000,220.378 217.000 C 219.599 217.000,219.000 215.981,219.000 214.654 C 219.000 213.363,218.263 210.831,217.363 209.026 C 204.515 183.271,215.451 137.313,236.144 130.100 L 239.373 128.974 237.082 131.413 C 234.339 134.333,234.968 135.920,238.595 135.227 C 240.249 134.910,242.388 133.090,244.311 130.361 C 247.751 125.481,250.728 124.774,256.111 127.557 C 259.881 129.507,259.973 134.291,256.250 134.820 C 253.478 135.213,253.254 137.000,255.977 137.000 C 258.516 137.000,261.258 132.877,260.371 130.391 C 258.881 126.215,256.847 125.000,251.345 125.000 C 246.947 125.000,245.988 124.690,245.933 123.250 C 245.895 122.287,245.269 123.721,244.540 126.435 C 243.252 131.235,240.974 134.000,238.309 134.000 C 237.481 134.000,237.771 133.229,239.098 131.902 C 240.637 130.363,241.026 129.098,240.558 127.152 C 240.207 125.693,239.863 123.938,239.793 123.250 C 239.611 121.448,238.291 121.709,236.000 124.000 C 234.900 125.100,233.081 126.000,231.958 126.000 C 230.249 126.000,230.574 125.374,233.958 122.155 C 237.076 119.188,238.000 117.561,238.000 115.032 C 238.000 112.210,238.211 111.931,239.524 113.020 C 240.362 113.716,241.362 113.971,241.745 113.588 C 244.178 111.155,236.871 110.383,233.336 112.699 L 230.742 114.399 232.344 111.302 C 233.847 108.395,234.285 108.208,239.482 108.249 C 246.263 108.302,249.463 106.064,248.621 101.855 C 248.258 100.038,248.742 98.326,250.114 96.582 C 252.345 93.746,251.119 93.024,248.507 95.636 C 247.503 96.639,246.979 98.531,247.150 100.524 C 247.305 102.313,246.829 104.502,246.093 105.388 C 244.018 107.889,242.911 107.289,244.235 104.383 C 245.262 102.129,245.155 101.538,243.464 100.133 C 242.097 98.997,241.594 97.528,241.809 95.306 C 242.136 91.931,238.461 88.887,234.300 89.086 C 233.159 89.140,233.479 89.467,235.172 89.979 C 240.188 91.493,240.702 92.377,237.004 93.133 C 234.955 93.552,233.000 93.415,232.260 92.800 C 230.624 91.443,230.504 94.104,232.127 95.727 C 233.718 97.318,232.379 101.727,229.903 103.052 C 227.487 104.345,226.257 103.617,227.742 101.774 C 231.290 97.374,224.316 93.755,218.400 96.926 C 212.897 99.875,209.633 99.722,214.084 96.723 C 222.695 90.920,217.306 76.558,208.548 81.970 C 205.112 84.094,202.000 84.156,202.000 82.101 C 202.000 81.572,202.997 80.995,204.217 80.820 C 207.494 80.347,209.879 75.637,208.201 72.950 C 205.210 68.160,209.958 64.958,214.023 69.023 C 215.599 70.599,215.820 71.468,215.023 72.957 C 213.617 75.584,213.723 76.000,215.800 76.000 C 219.846 76.000,222.233 65.071,218.500 63.638 C 217.675 63.322,217.000 62.572,217.000 61.972 C 217.000 61.373,217.450 61.160,218.000 61.500 C 218.592 61.866,218.984 60.769,218.961 58.809 L 218.922 55.500 217.560 58.630 C 216.810 60.351,215.703 62.065,215.099 62.439 C 213.359 63.514,213.820 65.000,215.893 65.000 C 219.116 65.000,220.199 70.760,217.411 73.074 C 216.082 74.177,215.856 74.156,216.030 72.946 C 216.550 69.318,215.754 67.851,212.398 66.250 C 208.490 64.386,208.230 64.526,204.296 70.631 C 203.238 72.273,203.148 72.136,203.558 69.500 C 204.184 65.470,201.733 62.147,199.499 64.000 C 198.127 65.139,198.047 65.005,198.840 62.899 C 200.035 59.729,198.799 56.696,195.328 54.276 C 189.848 50.456,184.976 50.494,185.030 54.357 C 185.058 56.293,185.159 56.331,186.080 54.750 C 187.451 52.397,191.146 52.541,194.365 55.073 C 197.813 57.785,197.725 59.100,194.186 57.764 C 189.795 56.107,187.121 58.895,187.750 64.476 C 188.292 69.284,186.552 71.508,185.675 67.127 C 185.281 65.157,184.145 63.889,181.967 62.986 C 179.482 61.957,178.918 61.210,179.263 59.403 C 179.572 57.788,178.426 55.567,175.350 51.817 C 170.458 45.853,170.414 45.731,172.530 43.975 C 175.060 41.875,179.225 44.323,178.820 47.673 C 178.227 52.585,182.411 51.521,183.473 46.490 L 184.104 43.500 182.520 46.250 C 180.660 49.480,179.545 49.847,180.294 46.982 C 181.335 43.002,174.317 40.083,171.200 43.200 M268.000 48.878 C 268.000 56.267,266.154 58.433,262.656 55.147 C 261.290 53.863,259.191 53.048,257.436 53.118 C 254.601 53.233,254.586 53.258,257.000 53.868 C 258.375 54.216,260.782 55.368,262.348 56.429 C 264.548 57.920,265.592 58.111,266.938 57.271 C 268.002 56.607,269.228 56.531,270.089 57.076 C 270.865 57.568,272.712 57.976,274.193 57.985 C 279.644 58.016,288.047 64.097,287.900 67.905 L 287.801 70.500 287.109 68.015 C 285.018 60.507,277.909 61.885,276.734 70.025 C 275.840 76.227,274.828 77.732,271.177 78.291 C 269.647 78.525,270.575 78.765,273.342 78.850 C 276.490 78.948,279.074 79.700,280.727 81.000 C 283.803 83.419,287.110 83.523,293.356 81.395 C 296.020 80.487,299.465 80.032,301.284 80.347 C 309.224 81.725,310.975 82.344,312.991 84.491 C 314.974 86.601,315.357 86.668,317.971 85.364 C 320.551 84.078,321.201 84.163,325.263 86.323 C 327.716 87.627,330.685 88.946,331.861 89.254 C 333.187 89.600,334.000 90.609,334.000 91.906 L 334.000 94.000 331.901 91.901 C 330.447 90.447,328.918 89.932,326.925 90.224 C 325.343 90.456,323.847 90.163,323.601 89.573 C 323.322 88.907,322.760 89.066,322.118 89.992 C 321.294 91.180,320.830 91.230,319.842 90.242 C 319.159 89.559,317.707 89.000,316.614 89.000 C 315.522 89.000,313.610 88.043,312.365 86.873 C 310.174 84.815,307.000 84.853,307.000 86.937 C 307.000 87.487,307.642 87.691,308.426 87.390 C 309.268 87.067,310.561 87.926,311.585 89.490 C 312.878 91.463,313.886 91.994,315.545 91.578 C 316.905 91.237,318.267 91.617,319.046 92.555 C 319.747 93.400,320.923 93.860,321.660 93.577 C 322.500 93.255,323.000 93.797,323.000 95.031 C 323.000 96.114,323.450 97.000,324.000 97.000 C 324.550 97.000,325.000 95.902,325.000 94.559 C 325.000 89.982,329.772 90.009,331.863 94.598 C 333.367 97.899,335.414 97.207,335.807 93.265 C 336.349 87.813,322.812 80.890,317.337 83.819 C 315.807 84.638,315.153 84.475,314.265 83.053 C 313.645 82.060,311.869 81.018,310.319 80.738 C 308.768 80.458,306.051 79.634,304.279 78.906 C 301.495 77.763,300.391 77.824,296.131 79.356 C 289.667 81.680,285.893 81.706,280.916 79.462 L 276.830 77.620 277.514 73.060 C 278.840 64.215,282.830 61.955,285.564 68.500 C 287.228 72.482,288.516 72.960,289.318 69.893 C 290.604 64.974,284.906 58.667,278.144 57.524 C 271.359 56.378,265.226 45.101,270.631 43.712 C 272.184 43.313,272.120 43.212,270.250 43.116 C 268.159 43.008,268.000 43.415,268.000 48.878 M164.750 45.075 C 166.442 46.868,166.490 49.890,164.800 48.200 C 163.137 46.537,159.495 46.698,158.000 48.500 C 156.632 50.148,157.699 50.477,159.898 49.084 C 160.833 48.492,161.975 48.831,163.343 50.105 C 164.527 51.208,165.761 51.639,166.273 51.127 C 167.624 49.776,166.694 44.713,165.000 44.202 C 163.789 43.837,163.741 44.006,164.750 45.075 M217.962 49.588 C 216.018 54.123,215.953 54.168,212.169 53.529 C 209.557 53.087,207.999 53.297,207.260 54.191 C 206.395 55.236,207.016 55.476,210.338 55.380 C 216.817 55.194,219.000 54.143,219.000 51.212 C 219.000 49.807,219.745 47.835,220.655 46.829 C 221.700 45.675,221.871 45.000,221.119 45.000 C 220.465 45.000,219.044 47.064,217.962 49.588 M261.847 47.069 C 262.451 47.932,263.614 50.182,264.433 52.069 C 265.611 54.784,265.930 55.042,265.961 53.306 C 265.982 52.099,264.819 49.849,263.375 48.306 C 261.932 46.763,261.244 46.206,261.847 47.069 M248.506 50.315 C 245.622 55.008,245.622 55.000,248.361 55.000 C 250.759 55.000,257.709 50.098,255.405 50.032 C 254.803 50.014,253.495 50.900,252.500 52.000 C 249.574 55.234,247.860 54.588,249.681 50.938 C 251.749 46.793,250.934 46.361,248.506 50.315 M202.200 49.200 C 200.693 50.707,200.631 55.654,202.107 56.566 C 202.876 57.042,203.005 56.299,202.529 54.130 C 201.929 51.400,202.166 50.887,204.422 50.030 C 205.840 49.491,207.000 48.813,207.000 48.525 C 207.000 47.507,203.385 48.015,202.200 49.200 M220.000 50.107 C 220.000 50.716,220.662 50.960,221.471 50.649 C 223.967 49.692,226.073 52.678,224.962 55.599 C 222.541 61.968,225.615 64.634,228.595 58.750 C 229.500 56.962,230.932 54.712,231.776 53.750 C 232.791 52.592,232.908 52.000,232.121 52.000 C 231.467 52.000,230.003 53.575,228.867 55.500 C 226.428 59.634,225.726 59.940,226.591 56.493 C 227.381 53.347,224.704 49.000,221.977 49.000 C 220.890 49.000,220.000 49.498,220.000 50.107 M137.629 59.656 C 138.317 62.399,138.284 62.427,136.497 60.640 C 135.078 59.221,133.779 58.940,130.828 59.411 C 128.510 59.782,127.000 59.625,127.000 59.012 C 127.000 58.455,126.315 58.000,125.477 58.000 C 124.128 58.000,124.134 58.275,125.531 60.407 C 126.492 61.874,126.725 63.052,126.126 63.422 C 125.586 63.756,124.888 63.223,124.575 62.238 C 123.592 59.138,113.000 61.004,113.000 64.277 C 113.000 64.845,113.858 64.534,114.906 63.585 C 118.727 60.127,123.539 61.804,123.275 66.500 C 123.088 69.818,123.210 70.116,123.992 68.250 C 124.511 67.013,125.625 66.000,126.468 66.000 C 127.310 66.000,128.000 65.172,128.000 64.161 C 128.000 61.038,133.156 59.349,134.859 61.914 C 136.894 64.980,139.000 64.545,139.000 61.059 C 139.000 59.441,138.532 57.829,137.960 57.475 C 137.275 57.052,137.162 57.797,137.629 59.656 M170.750 59.572 C 169.238 60.393,168.000 61.725,168.000 62.532 C 168.000 64.750,166.227 64.291,165.460 61.875 C 164.642 59.297,166.326 58.021,170.500 58.055 L 173.500 58.080 170.750 59.572 M255.500 59.000 C 255.160 59.550,255.753 60.000,256.819 60.000 C 260.784 60.000,262.090 65.387,259.545 71.250 C 257.963 74.896,261.875 72.927,266.000 68.000 C 268.318 65.232,269.587 63.001,268.843 63.003 C 268.104 63.004,266.600 64.661,265.500 66.685 C 263.008 71.271,260.465 72.538,262.033 68.412 C 263.546 64.433,262.305 60.067,259.342 58.940 C 256.282 57.777,256.256 57.777,255.500 59.000 M154.627 62.706 C 153.335 63.998,154.074 64.708,156.272 64.288 C 159.127 63.743,164.000 67.427,164.000 70.132 C 164.000 71.378,163.570 71.852,162.845 71.405 C 162.130 70.962,161.962 71.130,162.405 71.845 C 163.541 73.685,166.000 73.182,166.000 71.111 C 166.000 67.447,156.734 60.600,154.627 62.706 M270.460 67.347 C 271.737 68.281,271.949 68.913,271.151 69.406 C 269.577 70.380,269.698 74.505,271.342 75.869 C 273.118 77.343,274.000 76.313,274.000 72.768 C 274.000 68.989,272.354 66.000,270.274 66.000 C 268.825 66.000,268.848 66.168,270.460 67.347 M117.000 67.694 C 120.130 68.813,122.697 75.000,120.031 75.000 C 119.499 75.000,119.294 74.397,119.577 73.660 C 120.407 71.497,117.435 69.847,113.320 70.185 C 110.237 70.439,109.438 70.934,109.180 72.750 C 108.790 75.503,108.480 75.522,105.273 73.000 C 101.637 70.140,100.346 70.523,103.694 73.468 C 105.571 75.120,106.003 75.952,105.000 75.984 C 103.705 76.024,103.698 76.156,104.946 76.946 C 107.133 78.329,110.000 76.321,110.000 73.404 C 110.000 69.133,117.073 70.290,118.221 74.750 C 119.176 78.462,120.562 78.956,121.523 75.928 C 122.878 71.659,120.466 66.947,117.000 67.094 C 115.667 67.151,115.667 67.217,117.000 67.694 M222.980 78.524 C 221.070 80.826,222.491 81.380,225.406 79.470 C 226.911 78.483,228.716 78.067,229.742 78.469 C 231.208 79.044,230.919 79.486,228.000 81.134 C 225.199 82.716,224.999 83.002,227.000 82.569 C 228.375 82.271,230.512 82.021,231.750 82.014 C 234.386 81.998,234.628 80.771,232.429 78.571 C 230.422 76.565,224.630 76.536,222.980 78.524 M117.250 79.716 C 118.763 79.945,121.237 79.945,122.750 79.716 C 124.263 79.487,123.025 79.300,120.000 79.300 C 116.975 79.300,115.737 79.487,117.250 79.716 M244.667 81.667 C 243.207 83.126,244.117 83.944,245.936 82.808 C 249.963 80.293,261.470 87.826,263.796 94.500 C 264.531 96.609,264.853 96.906,264.879 95.500 C 265.009 88.490,248.881 77.452,244.667 81.667 M220.848 88.460 C 219.417 91.617,219.432 91.747,221.101 90.705 C 223.015 89.509,224.263 86.280,223.090 85.555 C 222.692 85.310,221.684 86.617,220.848 88.460 M245.399 88.547 C 245.047 89.947,245.001 91.334,245.295 91.628 C 245.589 91.922,245.187 93.701,244.401 95.582 C 243.551 97.618,243.383 99.000,243.987 99.000 C 244.544 99.000,245.000 98.248,245.000 97.329 C 245.000 96.410,245.737 94.843,246.638 93.847 C 247.986 92.358,248.049 91.764,246.996 90.495 C 245.596 88.808,245.601 88.797,248.500 87.178 C 250.447 86.091,250.441 86.060,248.269 86.030 C 246.700 86.009,245.849 86.755,245.399 88.547 M270.500 88.491 C 271.050 88.675,272.738 89.098,274.250 89.432 C 276.484 89.924,277.000 90.586,277.000 92.960 C 277.000 96.394,278.497 97.663,280.544 95.964 C 282.099 94.673,282.619 88.499,281.094 89.442 C 280.596 89.750,280.410 90.851,280.681 91.888 C 280.952 92.926,280.685 94.077,280.087 94.446 C 279.444 94.844,279.000 94.307,279.000 93.130 C 279.000 90.173,276.268 87.990,272.679 88.079 C 270.930 88.122,269.950 88.308,270.500 88.491 M88.223 90.557 C 87.000 91.413,86.000 92.829,86.000 93.703 C 86.000 94.887,86.600 94.645,88.350 92.756 C 90.143 90.822,91.364 90.347,93.499 90.755 C 95.447 91.127,96.082 90.942,95.590 90.145 C 94.584 88.518,90.833 88.728,88.223 90.557 M99.154 91.707 C 100.002 92.693,101.000 94.352,101.372 95.393 C 101.743 96.434,102.278 97.055,102.561 96.772 C 103.417 95.916,100.837 91.151,99.171 90.512 C 97.765 89.973,97.763 90.090,99.154 91.707 M268.000 96.500 C 266.986 99.168,264.194 99.794,262.200 97.800 C 261.267 96.867,261.000 96.985,261.000 98.331 C 261.000 101.288,263.871 101.351,268.195 98.489 C 272.141 95.878,272.405 95.833,273.671 97.564 C 275.530 100.107,275.327 103.698,273.250 104.987 C 271.650 105.980,271.672 106.048,273.500 105.778 C 276.188 105.381,276.896 98.039,274.480 95.623 C 272.065 93.208,269.099 93.610,268.000 96.500 M315.250 95.662 C 314.563 95.940,314.029 97.142,314.063 98.333 C 314.127 100.500,314.127 100.500,315.031 98.250 C 316.407 94.827,320.000 96.214,320.000 100.169 C 320.000 101.330,320.515 101.740,321.500 101.362 C 322.325 101.045,323.000 100.084,323.000 99.226 C 323.000 98.369,322.703 97.964,322.340 98.327 C 321.977 98.690,321.051 98.090,320.283 96.994 C 318.899 95.017,317.660 94.690,315.250 95.662 M289.572 97.920 C 288.537 99.064,288.183 100.000,288.786 100.000 C 289.389 100.000,290.160 99.550,290.500 99.000 C 292.795 95.287,300.231 99.594,299.328 104.112 C 298.459 108.457,301.596 107.903,303.487 103.378 C 305.351 98.917,305.407 97.000,303.673 97.000 C 302.780 97.000,302.485 97.942,302.769 99.882 C 303.002 101.466,302.699 103.068,302.096 103.441 C 301.448 103.841,301.000 103.340,301.000 102.214 C 301.000 97.503,292.754 94.405,289.572 97.920 M279.200 103.200 C 277.113 105.287,277.904 106.397,280.077 104.431 C 282.046 102.648,282.304 102.638,285.091 104.238 C 287.948 105.877,288.000 105.869,286.980 103.962 C 285.792 101.743,281.115 101.285,279.200 103.200 M290.744 103.500 C 292.003 106.077,289.360 113.201,287.976 110.961 C 287.262 109.806,286.987 109.870,286.430 111.321 C 285.547 113.623,286.680 114.692,288.671 113.436 C 291.759 111.488,293.535 105.094,291.521 103.173 C 289.871 101.599,289.824 101.619,290.744 103.500 M315.635 103.491 C 316.654 106.146,323.415 107.523,326.121 105.628 C 331.491 101.866,344.000 104.893,344.000 109.955 C 344.000 111.646,342.578 111.156,341.232 109.000 C 339.754 106.633,336.186 106.353,335.347 108.537 C 334.274 111.334,338.049 114.254,341.923 113.625 C 347.325 112.748,354.000 117.617,354.000 122.434 C 354.000 123.295,353.550 124.000,353.000 124.000 C 352.450 124.000,352.000 123.403,352.000 122.674 C 352.000 118.569,343.155 115.352,339.034 117.958 C 338.104 118.546,337.097 118.496,336.284 117.820 C 335.288 116.994,335.000 117.421,335.000 119.723 C 335.000 121.355,334.159 123.451,333.132 124.381 C 331.349 125.994,331.286 125.955,331.748 123.538 C 332.448 119.875,329.589 115.991,326.227 116.039 L 323.500 116.078 326.750 117.491 C 330.772 119.239,330.959 121.000,327.122 121.000 C 325.540 121.000,323.627 121.753,322.872 122.673 C 321.428 124.435,321.328 124.430,326.808 122.872 C 329.883 121.998,332.410 136.585,329.590 138.926 C 328.410 139.905,328.190 139.354,328.248 135.552 C 328.369 127.523,323.980 124.795,319.333 130.011 L 316.650 133.022 315.400 129.386 C 313.263 123.170,310.463 122.349,307.920 127.194 C 306.738 129.445,306.757 129.457,308.710 127.726 C 309.850 126.715,311.418 126.223,312.355 126.583 C 314.295 127.327,314.535 129.616,312.750 130.341 C 311.809 130.722,311.871 131.114,313.000 131.924 C 314.229 132.805,314.259 133.156,313.166 133.861 C 311.445 134.972,314.239 136.229,316.500 135.362 C 317.589 134.944,318.000 135.477,318.000 137.310 C 318.000 138.698,317.438 140.060,316.750 140.338 C 315.953 140.659,316.089 140.871,317.125 140.921 C 318.750 141.000,320.000 137.331,320.000 132.482 C 320.000 129.811,322.656 128.470,324.657 130.130 C 325.842 131.114,325.744 131.590,324.030 133.186 C 322.032 135.048,321.156 137.640,322.887 136.570 C 324.223 135.744,326.119 138.525,325.435 140.308 C 324.966 141.532,325.555 141.866,328.168 141.852 C 333.274 141.826,338.101 143.099,338.686 144.625 C 338.977 145.381,339.762 146.000,340.433 146.000 C 344.216 146.000,347.220 152.743,344.458 155.035 C 342.754 156.449,344.055 158.702,345.913 157.554 C 351.122 154.335,344.254 143.718,335.509 141.469 C 333.079 140.844,331.611 139.920,331.782 139.122 C 331.938 138.397,332.309 135.711,332.607 133.153 C 333.718 123.610,337.946 118.000,344.027 118.000 C 346.547 118.000,352.000 123.134,352.000 125.506 C 352.000 128.889,354.511 126.208,354.821 122.495 C 355.133 118.750,352.342 114.879,346.746 111.298 C 346.061 110.859,344.670 108.865,343.655 106.866 C 341.494 102.610,333.155 100.907,327.800 103.628 C 324.244 105.435,319.555 105.374,318.000 103.500 C 316.396 101.567,314.894 101.561,315.635 103.491 M273.750 106.716 C 270.813 107.161,269.866 110.000,272.655 110.000 C 274.143 110.000,274.128 110.201,272.500 112.000 C 271.505 113.100,271.183 114.000,271.786 114.000 C 272.389 114.000,273.160 113.550,273.500 113.000 C 274.462 111.443,277.719 111.824,278.389 113.572 C 279.698 116.983,273.726 122.753,271.888 119.853 C 271.306 118.935,270.975 119.625,270.857 122.000 C 270.600 127.175,270.942 129.460,272.029 129.833 C 272.563 130.017,273.000 132.449,273.000 135.238 L 273.000 140.310 275.107 138.405 C 276.266 137.357,277.907 134.769,278.754 132.654 C 280.156 129.154,280.557 128.861,283.227 129.395 C 285.310 129.812,286.043 129.622,285.753 128.741 C 284.598 125.223,280.119 126.842,277.597 131.688 C 275.926 134.899,275.078 135.822,275.047 134.461 C 275.021 133.340,274.165 130.786,273.145 128.785 C 270.804 124.193,271.754 122.111,275.428 123.785 C 276.843 124.430,278.000 124.619,278.000 124.206 C 278.000 122.794,284.587 119.904,286.304 120.563 C 288.409 121.371,289.434 125.082,288.643 129.037 C 287.992 132.291,288.228 132.484,291.032 130.983 C 293.929 129.433,295.358 122.918,293.561 119.454 C 292.568 117.540,292.409 116.104,293.058 114.891 C 293.661 113.765,293.651 112.902,293.032 112.520 C 291.528 111.590,290.554 117.057,291.854 119.137 C 293.535 121.830,293.251 126.551,291.313 128.128 C 289.830 129.334,289.708 129.281,290.303 127.694 C 292.496 121.847,284.990 115.782,280.630 119.878 C 279.388 121.045,277.500 121.971,276.436 121.937 C 274.711 121.880,274.742 121.776,276.720 120.980 C 280.379 119.507,280.546 109.000,276.910 109.000 C 276.444 109.000,276.322 108.325,276.638 107.500 C 276.955 106.675,277.053 106.067,276.857 106.150 C 276.661 106.232,275.262 106.487,273.750 106.716 M307.250 107.662 C 304.810 108.647,306.048 109.647,309.144 109.192 C 311.604 108.831,312.677 109.247,314.076 111.100 C 315.059 112.404,316.144 113.189,316.487 112.846 C 318.658 110.675,310.763 106.245,307.250 107.662 M252.081 111.402 C 251.121 112.559,251.486 112.777,254.173 112.652 C 256.546 112.541,257.525 112.974,257.787 114.250 C 258.008 115.327,257.542 116.000,256.573 116.000 C 255.708 116.000,255.000 116.450,255.000 117.000 C 255.000 117.550,255.675 118.000,256.500 118.000 C 258.276 118.000,258.348 118.482,256.957 121.081 C 255.311 124.155,258.566 124.757,261.571 121.933 C 263.887 119.758,264.147 119.718,265.725 121.297 C 267.304 122.875,267.287 123.073,265.455 124.458 C 264.325 125.313,264.035 125.950,264.769 125.968 C 265.620 125.990,265.831 126.823,265.411 128.500 C 265.066 129.875,265.087 131.000,265.457 131.000 C 266.888 131.000,270.000 128.880,270.000 127.906 C 270.000 127.343,269.550 127.160,269.000 127.500 C 268.425 127.855,267.994 126.924,267.986 125.309 C 267.965 120.972,266.907 118.000,265.383 118.000 C 263.445 118.000,263.659 116.298,265.750 115.080 C 267.326 114.162,267.284 114.058,265.329 114.030 C 263.731 114.008,262.989 114.773,262.515 116.931 C 261.492 121.591,258.949 123.087,259.677 118.601 C 260.681 112.414,255.397 107.406,252.081 111.402 M308.000 114.941 C 308.000 119.647,306.474 121.118,305.685 117.173 C 304.563 111.567,295.000 111.185,295.000 116.746 C 295.000 118.121,295.297 118.021,296.557 116.223 C 298.510 113.434,302.006 113.308,302.710 116.000 C 302.998 117.100,303.647 118.000,304.152 118.000 C 304.670 118.000,304.619 118.844,304.035 119.934 C 303.466 120.998,303.000 122.123,303.000 122.434 C 303.000 123.256,307.323 123.099,308.500 122.235 C 309.746 121.319,310.102 111.000,308.888 111.000 C 308.399 111.000,308.000 112.773,308.000 114.941 M326.750 135.589 C 326.750 137.886,326.581 138.010,325.257 136.685 C 324.435 135.864,324.068 134.699,324.441 134.096 C 325.624 132.182,326.750 132.911,326.750 135.589 M279.842 136.447 C 278.985 138.329,279.090 140.335,280.299 145.134 C 281.376 149.411,281.565 151.943,280.900 153.187 C 279.373 156.041,278.365 155.312,278.791 151.662 C 279.583 144.878,274.499 143.177,267.841 148.000 C 262.829 151.631,261.189 151.902,264.545 148.545 C 267.428 145.663,267.685 141.967,265.284 137.904 C 263.329 134.594,262.742 134.401,261.000 136.500 C 260.315 137.325,258.348 138.007,256.628 138.015 C 254.447 138.026,253.919 138.296,254.884 138.907 C 255.668 139.404,257.572 139.410,259.276 138.921 C 266.120 136.958,268.611 146.545,261.869 148.896 C 258.448 150.088,258.451 152.323,261.874 152.825 C 263.318 153.038,265.470 151.905,268.048 149.575 C 274.047 144.156,278.947 146.213,276.915 153.297 C 275.647 157.719,277.273 158.818,280.423 155.668 C 283.495 152.595,283.826 147.799,281.325 142.556 C 279.739 139.231,279.748 138.936,281.480 137.022 C 285.647 132.418,291.519 136.052,290.534 142.623 C 289.935 146.618,290.062 147.000,291.990 147.000 C 295.399 147.000,298.858 136.266,296.015 134.509 C 295.413 134.137,295.247 134.988,295.588 136.700 C 296.209 139.820,294.610 145.000,293.025 145.000 C 292.461 145.000,292.000 143.226,292.000 141.057 C 292.000 134.372,282.439 130.747,279.842 136.447 M300.035 142.273 C 301.445 144.702,302.040 147.010,301.707 148.754 C 301.221 151.294,301.276 151.343,302.599 149.533 C 304.337 147.157,303.569 144.282,300.320 141.000 L 297.846 138.500 300.035 142.273 M49.045 143.445 C 48.000 144.705,48.060 145.086,49.387 145.595 C 51.569 146.432,54.264 145.292,53.750 143.749 C 53.127 141.878,50.487 141.708,49.045 143.445 M91.571 145.571 C 89.375 147.768,89.495 148.103,94.066 152.547 L 98.132 156.500 97.816 152.500 L 97.500 148.500 103.000 147.886 L 108.500 147.272 102.000 147.386 C 95.856 147.494,95.513 147.625,95.744 149.782 C 95.957 151.773,95.734 151.928,93.994 150.997 C 91.533 149.680,91.423 147.158,93.750 145.392 C 94.713 144.661,94.970 144.049,94.321 144.032 C 93.673 144.014,92.436 144.707,91.571 145.571 M45.000 148.035 C 45.000 149.155,45.701 151.141,46.559 152.449 C 48.468 155.363,45.166 157.207,42.289 154.833 C 40.923 153.705,40.750 153.730,41.164 155.000 C 41.747 156.784,45.883 157.418,47.998 156.047 C 49.310 155.196,49.265 154.648,47.636 151.623 C 46.613 149.724,46.079 147.682,46.447 147.085 C 46.816 146.488,46.641 146.000,46.059 146.000 C 45.477 146.000,45.000 146.916,45.000 148.035 M319.250 146.662 C 318.563 146.940,318.029 148.367,318.063 149.833 C 318.123 152.349,318.176 152.378,318.999 150.338 C 320.089 147.633,323.289 146.549,325.962 147.980 C 328.698 149.444,328.542 151.000,325.661 151.000 C 323.214 151.000,321.000 154.337,321.000 158.024 C 321.000 160.165,324.048 162.425,328.250 163.400 C 335.492 165.080,329.683 166.091,321.750 164.531 C 319.878 164.163,319.284 165.595,321.062 166.187 C 321.804 166.435,321.785 167.435,321.000 169.500 C 319.623 173.123,318.133 174.142,315.935 172.965 C 314.266 172.072,313.000 172.590,313.000 174.167 C 313.000 174.625,314.505 175.000,316.345 175.000 C 319.923 175.000,323.000 172.522,323.000 169.640 C 323.000 165.122,328.538 166.688,331.062 171.920 C 332.466 174.829,332.762 174.992,333.979 173.525 C 336.499 170.489,335.647 165.976,331.989 162.991 C 328.756 160.352,328.713 160.224,330.702 159.160 C 331.833 158.554,333.491 156.230,334.385 153.996 C 336.248 149.340,338.327 148.116,340.787 150.227 C 344.408 153.333,345.636 153.622,343.886 150.957 C 342.757 149.238,341.180 148.407,338.636 148.190 C 336.636 148.019,335.000 147.456,335.000 146.940 C 335.000 146.423,334.309 146.000,333.465 146.000 C 332.225 146.000,332.142 146.396,333.031 148.059 C 334.430 150.672,333.355 155.740,331.151 156.919 C 329.682 157.705,329.511 157.330,329.828 154.007 C 330.402 147.991,325.093 144.305,319.250 146.662 M305.000 149.500 C 303.708 150.875,302.055 152.000,301.326 152.000 C 300.597 152.000,300.000 152.450,300.000 153.000 C 300.000 153.550,300.648 154.000,301.441 154.000 C 302.234 154.000,303.160 153.550,303.500 153.000 C 304.803 150.892,308.939 151.911,309.589 154.500 C 310.468 158.000,309.239 162.125,307.155 162.670 C 304.706 163.310,302.977 166.352,304.075 168.089 C 304.817 169.265,305.625 169.126,308.931 167.250 C 314.396 164.149,316.000 164.319,316.000 168.000 C 316.000 169.650,316.450 171.000,317.000 171.000 C 318.407 171.000,318.249 165.649,316.800 164.200 C 315.156 162.556,312.499 162.694,311.000 164.500 C 308.458 167.563,306.825 166.156,309.197 162.947 C 312.112 159.005,312.290 152.416,309.536 150.403 C 307.681 149.046,307.692 149.000,309.868 149.000 C 311.113 149.000,311.842 148.553,311.500 148.000 C 310.410 146.237,307.417 146.927,305.000 149.500 M22.500 152.225 C 21.400 152.865,18.925 153.699,17.000 154.079 L 13.500 154.770 17.139 154.885 C 19.427 154.957,21.655 154.270,23.139 153.033 C 25.788 150.827,25.508 150.474,22.500 152.225 M37.164 154.302 C 36.097 155.587,36.638 159.987,37.867 160.014 C 38.215 160.021,39.625 160.272,41.000 160.571 C 43.388 161.091,43.373 161.042,40.650 159.473 C 38.452 158.207,37.905 157.278,38.261 155.415 C 38.791 152.642,38.656 152.505,37.164 154.302 M111.000 156.006 C 108.525 157.654,105.938 158.791,105.250 158.533 C 104.563 158.274,104.000 158.499,104.000 159.031 C 104.000 160.034,105.404 160.386,108.000 160.034 C 108.825 159.922,110.751 158.475,112.281 156.820 C 113.876 155.092,115.674 154.045,116.499 154.361 C 117.289 154.664,118.202 154.482,118.527 153.956 C 119.782 151.925,115.290 153.148,111.000 156.006 M328.494 154.750 C 328.097 155.713,327.541 157.309,327.257 158.298 C 326.612 160.548,323.643 160.098,323.177 157.680 C 322.596 154.665,323.805 153.000,326.576 153.000 C 328.696 153.000,329.073 153.343,328.494 154.750 M90.777 156.557 C 92.000 157.413,92.993 158.650,92.985 159.307 C 92.975 160.027,92.585 159.905,92.000 159.000 C 91.329 157.961,91.026 157.892,91.015 158.775 C 91.007 159.476,89.875 160.477,88.500 161.000 C 87.125 161.523,86.000 162.610,86.000 163.416 C 86.000 165.748,87.720 166.177,88.293 163.989 C 88.603 162.803,89.658 162.000,90.906 162.000 C 93.154 162.000,93.821 164.560,91.753 165.249 C 90.993 165.502,91.415 166.152,92.831 166.909 C 95.606 168.395,98.000 167.700,98.000 165.409 C 98.000 164.052,97.730 163.979,96.500 165.000 C 95.592 165.754,95.000 165.834,95.000 165.204 C 95.000 164.632,94.750 163.511,94.443 162.713 C 94.096 161.807,94.658 161.061,95.943 160.725 C 97.075 160.429,98.000 159.669,98.000 159.035 C 98.000 158.401,97.514 158.182,96.920 158.549 C 96.326 158.916,95.176 158.268,94.363 157.108 C 93.551 155.949,91.912 155.000,90.721 155.000 L 88.555 155.000 90.777 156.557 M114.960 157.452 C 116.241 158.995,115.499 163.000,113.933 163.000 C 113.420 163.000,113.000 163.450,113.000 164.000 C 113.000 166.216,115.181 164.799,116.463 161.750 C 117.829 158.502,117.086 156.000,114.755 156.000 C 114.183 156.000,114.270 156.621,114.960 157.452 M7.448 159.274 C 6.394 162.022,7.421 164.486,9.760 164.820 C 10.992 164.995,12.000 164.658,12.000 164.070 C 12.000 163.481,11.045 163.000,9.878 163.000 C 8.078 163.000,7.950 162.765,9.035 161.458 C 9.983 160.315,10.024 159.624,9.190 158.790 C 8.357 157.957,7.905 158.083,7.448 159.274 M70.750 159.978 C 73.125 160.989,73.720 162.593,71.940 163.187 C 71.253 163.416,71.413 164.568,72.397 166.464 C 73.622 168.825,74.036 169.071,74.546 167.742 C 74.893 166.837,74.817 165.512,74.376 164.799 C 73.935 164.086,73.558 162.602,73.537 161.501 C 73.511 160.109,72.739 159.427,71.000 159.260 C 68.536 159.023,68.533 159.034,70.750 159.978 M28.000 161.827 C 28.000 162.282,29.350 162.455,31.000 162.213 C 32.650 161.971,34.000 162.226,34.000 162.781 C 34.000 164.340,39.637 170.004,41.151 169.967 C 41.983 169.946,41.642 169.217,40.264 168.067 C 39.033 167.041,37.582 165.031,37.038 163.601 C 36.069 161.051,28.000 159.468,28.000 161.827 M44.250 162.269 C 44.472 162.946,45.857 163.642,47.327 163.816 C 48.797 163.990,50.000 164.491,50.000 164.928 C 50.000 165.973,54.864 165.029,55.599 163.841 C 55.922 163.318,55.113 163.185,53.726 163.533 C 52.374 163.872,49.625 163.452,47.565 162.592 C 44.889 161.474,43.959 161.383,44.250 162.269 M119.987 163.616 C 114.667 166.462,113.276 166.557,110.713 164.250 C 108.849 162.573,108.783 162.584,109.142 164.500 C 109.645 167.188,114.829 167.657,119.180 165.407 C 120.999 164.466,123.598 163.400,124.955 163.037 C 126.728 162.563,127.004 162.215,125.934 161.805 C 125.114 161.490,122.438 162.306,119.987 163.616 M57.660 165.725 C 52.911 166.436,56.150 173.876,61.250 173.968 C 63.190 174.003,63.592 175.516,61.933 176.541 C 61.347 176.904,60.334 176.489,59.683 175.619 C 58.921 174.600,58.017 174.342,57.143 174.894 C 55.225 176.104,56.610 179.747,59.301 180.571 C 62.250 181.474,64.096 183.035,63.451 184.079 C 63.161 184.548,61.372 184.191,59.475 183.287 C 57.577 182.382,55.753 181.913,55.421 182.245 C 54.028 183.638,56.440 187.286,59.637 188.622 C 61.531 189.413,62.804 190.508,62.466 191.055 C 61.327 192.898,63.171 198.125,66.162 201.532 C 69.979 205.879,69.903 211.093,66.010 212.003 C 64.330 212.396,63.924 212.835,64.760 213.352 C 66.967 214.716,66.078 216.000,62.927 216.000 C 60.536 216.000,59.929 216.389,60.195 217.750 C 60.426 218.934,61.493 219.512,63.494 219.537 C 69.341 219.610,72.028 205.874,67.126 200.972 C 64.008 197.855,62.674 193.478,64.055 190.898 C 65.362 188.455,70.828 186.428,72.256 187.856 C 73.950 189.550,75.448 189.245,74.000 187.500 C 72.488 185.678,69.511 185.646,65.500 187.408 C 62.505 188.724,57.000 187.025,57.000 184.784 C 57.000 183.654,58.420 183.820,59.699 185.099 C 61.273 186.673,65.181 185.192,64.806 183.165 C 64.637 182.249,63.036 180.856,61.249 180.070 C 59.462 179.283,58.007 177.933,58.015 177.070 C 58.028 175.815,58.202 175.771,58.885 176.848 C 60.227 178.966,63.512 177.785,63.421 175.219 C 63.368 173.755,63.927 173.000,65.064 173.000 C 66.735 173.000,68.556 170.223,67.547 169.214 C 67.272 168.939,66.763 169.453,66.417 170.357 C 65.077 173.846,56.954 171.850,57.032 168.050 C 57.059 166.746,57.274 166.777,58.392 168.250 C 59.869 170.195,62.535 170.562,63.527 168.956 C 64.182 167.897,62.277 164.875,61.128 165.150 C 60.782 165.232,59.222 165.491,57.660 165.725 M46.471 169.500 C 48.042 173.657,48.199 175.000,47.117 175.000 C 46.502 175.000,46.000 174.550,46.000 174.000 C 46.000 173.450,45.255 173.000,44.345 173.000 C 42.857 173.000,42.872 173.201,44.500 175.000 C 47.536 178.355,50.297 177.662,49.479 173.750 C 49.105 171.963,48.105 169.825,47.258 169.000 C 45.880 167.660,45.796 167.713,46.471 169.500 M149.000 172.441 C 149.000 175.248,148.552 177.000,147.833 177.000 C 147.192 177.000,147.003 177.337,147.415 177.748 C 148.576 178.910,151.000 174.934,151.000 171.868 C 151.000 170.355,150.550 168.840,150.000 168.500 C 149.389 168.122,149.000 169.656,149.000 172.441 M145.032 170.559 C 145.014 171.141,145.661 172.491,146.468 173.559 C 147.276 174.626,147.951 175.024,147.968 174.441 C 147.986 173.859,147.339 172.509,146.532 171.441 C 145.724 170.374,145.049 169.976,145.032 170.559 M109.918 172.401 C 110.692 173.334,110.870 175.176,110.418 177.586 C 109.804 180.860,109.930 181.241,111.440 180.661 C 112.388 180.298,114.139 179.993,115.332 179.985 C 116.929 179.973,117.143 179.743,116.143 179.110 C 115.197 178.510,115.122 178.043,115.893 177.566 C 116.502 177.190,117.000 176.133,117.000 175.218 C 117.000 173.907,116.671 174.025,115.443 175.777 C 113.312 178.820,112.000 178.565,112.000 175.107 C 112.000 173.347,111.357 171.967,110.359 171.584 C 109.020 171.070,108.939 171.221,109.918 172.401 M7.346 173.134 C 8.670 173.903,9.505 173.895,10.296 173.104 C 11.101 172.299,10.601 172.008,8.450 172.030 C 5.864 172.057,5.728 172.193,7.346 173.134 M171.250 172.689 C 174.453 173.526,173.056 175.000,169.059 175.000 C 166.891 175.000,164.880 175.386,164.588 175.857 C 164.297 176.329,166.520 176.714,169.529 176.714 C 172.538 176.714,175.000 176.365,175.000 175.939 C 175.000 173.675,173.541 172.013,171.643 172.116 C 169.953 172.208,169.870 172.329,171.250 172.689 M43.395 180.118 C 42.886 181.892,41.867 183.544,41.130 183.790 C 40.189 184.104,39.977 183.648,40.418 182.259 C 41.230 179.701,38.473 177.127,36.758 178.842 C 35.881 179.719,35.990 180.000,37.206 180.000 C 38.267 180.000,38.651 180.618,38.337 181.820 C 38.075 182.821,38.563 184.223,39.422 184.935 C 41.733 186.853,47.833 180.404,45.713 178.284 C 44.523 177.094,44.186 177.361,43.395 180.118 M148.730 181.703 C 149.957 181.940,151.869 183.289,152.980 184.702 C 154.759 186.964,155.000 187.039,155.000 185.335 C 155.000 182.508,153.018 180.981,149.550 181.136 C 147.227 181.240,147.031 181.375,148.730 181.703 M69.131 190.342 C 66.769 193.189,75.061 195.539,77.800 192.800 C 79.842 190.758,79.121 189.802,76.777 191.443 C 73.759 193.558,72.083 193.399,71.163 190.912 C 70.486 189.081,70.236 189.011,69.131 190.342 M92.000 203.448 C 92.000 204.210,92.515 205.005,93.143 205.214 C 93.995 205.498,93.986 206.157,93.108 207.798 C 92.172 209.548,92.199 210.000,93.242 210.000 C 95.435 210.000,99.003 206.994,98.948 205.193 C 98.905 203.822,98.597 203.927,97.326 205.750 C 95.292 208.666,94.159 208.618,94.728 205.641 C 95.023 204.101,94.627 203.071,93.590 202.673 C 92.608 202.296,92.000 202.593,92.000 203.448 M60.366 205.765 C 59.742 206.169,59.067 207.352,58.866 208.393 C 58.344 211.096,55.198 212.909,54.097 211.143 C 53.625 210.387,52.993 210.203,52.669 210.727 C 52.349 211.244,50.606 211.486,48.794 211.266 L 45.500 210.865 48.000 212.277 C 49.375 213.054,50.917 213.321,51.426 212.869 C 51.936 212.417,52.919 212.518,53.612 213.093 C 55.355 214.540,58.839 212.554,60.023 209.439 C 61.114 206.570,64.425 206.183,65.920 208.750 C 66.870 210.381,66.941 210.383,66.970 208.785 C 67.016 206.146,62.773 204.206,60.366 205.765 M112.250 205.662 C 111.521 205.956,111.000 207.964,111.000 210.476 C 111.000 214.995,109.958 216.062,105.668 215.937 C 103.545 215.875,103.548 215.854,105.824 214.941 C 107.268 214.363,108.021 213.349,107.813 212.266 C 107.407 210.158,104.227 209.365,102.644 210.977 C 101.776 211.860,102.164 211.977,104.250 211.462 C 106.353 210.943,107.000 211.145,107.000 212.322 C 107.000 213.168,105.987 214.005,104.750 214.180 C 101.793 214.600,102.255 216.414,105.419 216.812 C 109.710 217.350,112.000 215.385,112.000 211.165 C 112.000 209.094,112.540 206.860,113.200 206.200 C 114.464 204.936,114.292 204.838,112.250 205.662 M40.219 220.998 C 40.100 225.177,44.061 226.230,47.555 222.948 C 48.900 221.685,50.000 220.196,50.000 219.639 C 50.000 219.082,48.691 219.880,47.091 221.413 C 44.733 223.672,43.832 223.998,42.341 223.131 C 40.616 222.128,40.635 222.059,42.628 222.030 C 43.798 222.014,45.315 221.325,46.000 220.500 C 46.785 219.554,46.852 219.000,46.181 219.000 C 45.597 219.000,44.840 219.450,44.500 220.000 C 44.160 220.550,43.346 220.964,42.691 220.921 C 41.839 220.865,41.857 220.698,42.756 220.336 C 44.268 219.726,43.408 218.000,41.593 218.000 C 40.847 218.000,40.268 219.262,40.219 220.998 M0.170 224.000 C 0.141 228.640,0.304 229.150,1.216 227.261 C 1.976 225.685,1.986 224.057,1.250 221.761 C 0.250 218.644,0.203 218.742,0.170 224.000 M96.996 225.005 C 95.252 227.207,93.414 228.756,92.912 228.446 C 92.410 228.136,92.000 228.359,92.000 228.941 C 92.000 230.986,94.201 229.966,97.269 226.500 C 100.703 222.622,103.415 222.038,104.921 224.853 C 105.783 226.463,105.590 226.644,103.457 226.236 C 102.034 225.965,101.000 226.237,101.000 226.883 C 101.000 227.498,101.873 228.000,102.941 228.000 C 105.515 228.000,106.472 229.726,104.928 231.586 C 103.241 233.620,105.352 236.048,107.200 234.200 C 108.133 233.267,108.126 233.000,107.165 233.000 C 106.244 233.000,106.199 232.497,106.989 231.021 C 108.393 228.397,107.281 224.310,104.663 222.477 C 101.515 220.272,100.473 220.615,96.996 225.005 M222.000 271.304 C 222.000 273.344,227.444 281.417,230.374 283.722 C 231.829 284.867,233.677 287.668,234.482 289.949 C 235.870 293.882,241.322 301.005,250.596 311.000 C 252.892 313.475,255.282 317.110,255.906 319.078 C 257.944 325.499,266.461 337.297,271.011 340.000 C 273.326 341.375,275.958 343.400,276.860 344.500 C 282.628 351.533,289.587 356.980,299.079 361.894 C 304.811 364.861,313.775 369.787,319.000 372.842 C 324.225 375.896,330.975 379.423,334.000 380.678 C 337.025 381.933,339.387 383.419,339.250 383.980 C 339.024 384.901,343.426 385.522,346.850 385.052 C 347.678 384.938,347.908 385.339,347.446 386.088 C 346.976 386.848,347.107 387.052,347.794 386.627 C 348.401 386.252,353.983 387.303,360.200 388.962 C 366.417 390.621,374.329 392.274,377.783 392.635 C 381.236 392.996,384.324 393.715,384.643 394.232 C 384.995 394.801,382.910 394.955,379.362 394.623 C 374.523 394.169,374.198 394.224,377.500 394.935 C 379.700 395.409,385.663 396.076,390.750 396.416 L 400.000 397.036 400.000 388.018 C 400.000 382.673,399.593 379.000,399.000 379.000 C 398.450 379.000,398.000 379.430,398.000 379.956 C 398.000 381.526,390.127 378.274,379.850 372.460 C 374.542 369.457,369.705 367.000,369.100 367.000 C 368.495 367.000,368.000 366.550,368.000 366.000 C 368.000 365.450,367.508 365.000,366.907 365.000 C 363.440 365.000,343.398 347.783,344.601 345.837 C 344.885 345.377,344.437 345.000,343.606 345.000 C 342.774 345.000,340.093 342.971,337.648 340.492 C 330.966 333.713,324.114 331.374,323.930 335.809 C 323.872 337.188,323.701 337.130,323.000 335.500 C 322.157 333.537,322.139 333.539,322.070 335.595 C 322.032 336.747,323.827 340.516,326.059 343.970 C 328.291 347.424,329.915 350.780,329.666 351.428 C 329.417 352.076,330.612 353.225,332.321 353.982 C 334.030 354.738,334.915 355.528,334.288 355.737 C 332.941 356.186,324.856 351.311,323.700 349.354 C 323.260 348.610,322.303 348.000,321.572 348.000 C 320.842 348.000,317.738 345.146,314.676 341.657 C 306.997 332.911,295.226 323.374,293.832 324.768 C 292.317 326.283,295.832 333.157,298.885 334.652 C 300.197 335.294,301.547 336.208,301.885 336.683 C 302.223 337.158,303.777 338.359,305.337 339.353 C 306.897 340.347,307.920 341.413,307.611 341.722 C 307.302 342.032,306.362 341.716,305.524 341.020 C 304.686 340.324,303.971 340.148,303.936 340.628 C 303.901 341.107,303.720 343.067,303.534 344.982 C 303.331 347.074,303.983 350.007,305.168 352.329 C 309.612 361.039,302.492 357.378,296.298 347.767 C 291.931 340.991,284.918 331.831,279.631 326.000 C 278.385 324.625,275.243 320.753,272.649 317.395 C 268.729 312.320,264.696 309.000,262.453 309.000 C 262.204 309.000,262.007 310.012,262.015 311.250 C 262.028 313.085,262.215 313.223,263.030 312.000 C 263.868 310.743,264.513 311.028,267.015 313.766 C 270.125 317.168,270.782 319.000,268.892 319.000 C 267.830 319.000,268.088 321.273,269.647 325.657 C 270.007 326.671,268.741 325.735,266.833 323.578 C 263.656 319.987,261.000 319.322,261.000 322.118 C 261.000 322.668,261.489 322.816,262.086 322.447 C 262.684 322.077,264.709 323.264,266.586 325.084 C 268.464 326.903,270.000 327.993,270.000 327.505 C 270.000 327.017,270.661 327.491,271.468 328.559 C 273.348 331.045,273.370 329.272,271.500 326.000 C 269.627 322.723,269.627 320.920,271.500 321.638 C 272.325 321.955,273.000 321.753,273.000 321.190 C 273.000 320.627,272.438 319.940,271.750 319.662 C 270.950 319.340,270.909 319.129,271.635 319.079 C 272.259 319.036,273.476 320.077,274.339 321.394 C 275.819 323.653,275.797 323.760,273.954 323.278 C 272.879 322.997,272.000 323.067,272.000 323.433 C 272.000 324.607,275.163 330.402,277.535 333.575 C 280.587 337.656,279.272 339.989,275.934 336.416 C 272.309 332.535,268.175 330.610,266.484 332.014 C 265.078 333.180,264.030 331.619,257.152 318.111 C 255.860 315.575,252.260 310.740,249.152 307.367 C 238.062 295.334,235.471 291.315,241.045 294.796 C 242.120 295.468,243.000 295.589,243.000 295.065 C 243.000 293.623,238.942 291.085,237.513 291.633 C 236.748 291.927,236.044 291.017,235.716 289.308 C 235.038 285.778,235.284 285.552,238.164 287.064 C 240.493 288.287,240.494 288.284,238.595 286.146 C 237.547 284.965,235.713 284.000,234.519 284.000 C 231.909 284.000,227.502 279.614,228.496 278.006 C 228.885 277.378,229.855 277.114,230.653 277.420 C 231.463 277.731,231.834 277.541,231.493 276.989 C 231.157 276.445,229.603 276.000,228.039 276.000 C 225.779 276.000,224.981 275.385,224.150 273.000 C 223.063 269.884,222.000 269.045,222.000 271.304 M13.789 276.395 C 13.080 277.162,12.155 277.581,11.734 277.326 C 10.590 276.633,11.900 275.000,13.598 275.000 C 14.814 275.000,14.849 275.249,13.789 276.395 M66.000 286.474 C 66.000 286.735,64.650 287.647,63.000 288.500 C 61.350 289.353,60.000 289.677,60.000 289.219 C 60.000 288.761,61.237 287.897,62.750 287.299 C 64.263 286.702,65.612 286.165,65.750 286.106 C 65.888 286.048,66.000 286.213,66.000 286.474 M168.667 286.667 C 167.465 287.868,168.009 290.455,170.000 293.000 C 172.572 296.288,172.500 298.827,169.750 301.821 C 167.552 304.215,167.549 304.246,169.632 303.163 C 173.520 301.144,174.300 294.487,171.000 291.500 C 168.449 289.191,168.486 288.553,171.250 287.220 C 173.430 286.169,173.435 286.133,171.417 286.068 C 170.271 286.030,169.033 286.300,168.667 286.667 M176.441 287.095 C 176.058 287.716,176.267 288.547,176.906 288.942 C 177.545 289.337,177.779 290.411,177.427 291.330 C 177.004 292.433,177.296 293.000,178.286 293.000 C 179.111 293.000,180.054 292.302,180.382 291.448 C 180.723 290.558,180.555 290.157,179.989 290.507 C 179.445 290.843,179.000 290.218,179.000 289.118 C 179.000 286.742,177.428 285.499,176.441 287.095 M160.502 297.004 C 160.843 297.556,162.238 297.727,163.602 297.385 C 165.262 296.968,166.728 297.349,168.040 298.536 C 170.131 300.429,170.819 299.219,168.800 297.200 C 167.337 295.737,159.606 295.554,160.502 297.004 M175.558 299.907 C 175.249 300.405,175.859 300.588,176.913 300.313 C 178.170 299.984,179.210 300.524,179.938 301.883 C 180.844 303.576,180.779 303.852,179.584 303.394 C 178.780 303.085,177.307 303.307,176.311 303.886 C 174.732 304.804,174.862 304.943,177.323 304.970 C 181.199 305.011,180.638 308.367,176.679 308.822 C 174.582 309.064,174.134 309.457,174.902 310.382 C 176.860 312.741,172.586 323.000,169.645 323.000 C 169.004 323.000,169.064 322.536,169.800 321.800 C 172.850 318.750,169.724 309.942,165.635 310.063 L 163.500 310.127 165.685 311.007 C 169.198 312.423,172.044 321.000,169.000 321.000 C 168.450 321.000,168.000 321.706,168.000 322.570 C 168.000 325.049,172.245 323.876,173.682 321.000 C 174.369 319.625,175.512 317.156,176.223 315.512 C 176.934 313.869,178.412 312.360,179.508 312.159 C 180.603 311.958,182.271 311.110,183.213 310.275 C 186.469 307.390,193.084 316.011,191.483 321.054 C 191.173 322.032,191.455 323.163,192.111 323.569 C 193.481 324.416,196.032 321.409,195.937 319.059 C 195.897 318.091,195.530 318.353,194.969 319.750 C 193.901 322.406,192.709 322.752,193.187 320.267 C 194.398 313.980,186.298 306.277,181.793 309.432 C 178.314 311.869,176.813 311.277,179.545 308.545 C 182.210 305.881,182.572 303.938,180.965 300.934 C 179.897 298.940,176.549 298.303,175.558 299.907 M250.595 305.000 C 252.571 307.750,254.366 310.000,254.585 310.000 C 254.803 310.000,253.597 307.750,251.905 305.000 C 250.213 302.250,248.418 300.000,247.916 300.000 C 247.414 300.000,248.620 302.250,250.595 305.000 M260.000 300.808 C 260.000 301.326,261.258 302.002,262.796 302.309 C 264.401 302.630,266.176 303.961,266.965 305.434 C 267.720 306.845,268.728 308.000,269.204 308.000 C 270.370 308.000,268.626 304.865,266.343 302.857 C 264.058 300.848,260.000 299.537,260.000 300.808 M59.860 306.290 L 64.219 308.427 59.860 310.299 C 54.738 312.498,47.610 313.799,50.000 312.098 C 51.398 311.103,50.702 310.535,48.581 310.938 C 48.075 311.034,48.238 310.418,48.943 309.568 C 50.005 308.290,49.943 307.915,48.587 307.395 C 45.989 306.398,48.584 304.136,52.315 304.145 C 54.067 304.149,57.462 305.114,59.860 306.290 M149.000 309.096 C 147.823 309.932,148.041 310.046,150.008 309.622 C 153.106 308.957,154.265 309.669,156.315 313.500 C 157.768 316.216,157.924 316.287,157.960 314.250 C 158.040 309.752,152.535 306.585,149.000 309.096 M196.667 308.667 C 196.300 309.033,196.000 310.244,196.000 311.358 C 196.000 313.290,196.061 313.299,197.333 311.559 C 198.607 309.817,198.785 309.813,201.333 311.483 C 204.538 313.582,204.953 311.781,201.777 309.557 C 199.394 307.887,197.735 307.598,196.667 308.667 M134.000 312.000 C 134.000 314.343,132.470 314.667,131.638 312.500 C 131.002 310.842,127.000 310.410,127.000 312.000 C 127.000 312.550,127.900 313.000,129.000 313.000 C 130.111 313.000,131.000 313.667,131.000 314.500 C 131.000 316.652,133.742 316.351,134.965 314.066 C 136.274 311.620,136.288 310.000,135.000 310.000 C 134.450 310.000,134.000 310.900,134.000 312.000 M218.500 312.000 C 218.840 312.550,219.765 313.000,220.556 313.000 C 221.347 313.000,223.900 314.688,226.230 316.750 C 229.506 319.650,230.107 319.934,228.880 318.000 C 228.008 316.625,225.812 314.488,224.000 313.250 C 220.623 310.945,217.394 310.211,218.500 312.000 M200.090 317.702 C 199.449 319.108,199.185 320.518,199.502 320.836 C 199.820 321.153,200.339 320.420,200.656 319.206 C 201.994 314.090,208.415 318.456,211.583 326.637 L 213.185 330.773 209.596 334.469 C 206.068 338.101,204.576 347.002,207.221 348.636 C 207.649 348.901,208.004 351.004,208.010 353.309 C 208.015 355.703,209.124 359.858,210.595 363.000 C 212.011 366.025,213.951 370.525,214.906 373.000 C 215.861 375.475,220.593 382.563,225.422 388.750 L 234.201 400.000 258.350 399.921 C 271.633 399.878,281.846 399.584,281.046 399.270 C 279.508 398.664,278.075 397.605,274.928 394.750 C 273.868 393.788,272.576 393.000,272.057 393.000 C 271.538 393.000,270.525 392.212,269.807 391.249 C 269.088 390.287,266.779 388.213,264.676 386.642 C 262.572 385.071,255.544 378.433,249.056 371.893 C 242.568 365.352,236.860 360.000,236.371 360.000 C 235.881 360.000,234.898 359.066,234.185 357.924 C 233.148 356.265,232.601 356.087,231.456 357.037 C 230.314 357.984,229.884 357.860,229.333 356.426 C 228.900 355.296,229.206 354.273,230.158 353.672 C 231.688 352.707,229.007 347.584,223.005 340.000 L 221.027 337.500 221.013 339.816 C 221.006 341.089,221.392 342.889,221.872 343.816 C 222.352 344.742,223.061 347.750,223.447 350.500 L 224.150 355.500 220.986 351.247 C 217.584 346.673,213.883 345.022,211.487 347.011 C 210.238 348.047,210.000 347.844,210.000 345.745 C 210.000 342.184,212.424 340.416,215.430 341.786 C 219.776 343.766,220.285 340.681,216.379 336.039 C 213.890 333.081,213.844 332.829,215.469 331.034 C 216.778 329.588,216.931 328.716,216.120 327.322 C 215.169 325.686,215.057 325.755,215.021 328.000 C 214.989 329.991,214.503 329.483,212.632 325.500 C 208.673 317.071,202.209 313.052,200.090 317.702 M126.313 318.805 C 129.399 322.026,130.232 326.247,127.313 323.872 C 125.828 322.664,125.708 322.719,126.313 324.332 C 126.691 325.339,127.000 326.338,127.000 326.550 C 127.000 326.763,127.675 326.678,128.500 326.362 C 131.052 325.382,130.403 319.494,127.535 317.615 C 123.816 315.178,123.310 315.670,126.313 318.805 M162.083 317.654 C 160.109 319.037,159.876 319.826,160.427 323.266 C 160.909 326.282,160.650 327.729,159.378 329.134 C 158.439 330.173,158.187 331.000,158.810 331.000 C 160.706 331.000,162.246 326.901,161.673 323.374 C 161.242 320.714,161.568 319.716,163.254 318.534 C 164.423 317.716,165.154 316.821,164.879 316.546 C 164.604 316.271,163.346 316.770,162.083 317.654 M216.104 317.863 C 215.136 318.512,216.421 318.905,220.307 319.149 C 223.387 319.342,225.551 319.146,225.117 318.714 C 223.835 317.437,217.616 316.849,216.104 317.863 M365.083 317.365 C 367.099 319.128,370.380 320.182,369.128 318.664 C 368.373 317.749,367.060 317.000,366.211 317.000 C 365.362 317.000,364.854 317.164,365.083 317.365 M221.320 326.955 C 221.751 332.420,223.019 334.780,228.969 341.186 C 231.172 343.559,232.981 346.063,232.988 346.750 C 232.994 347.438,233.563 347.998,234.250 347.996 C 235.415 347.993,237.599 349.920,246.856 359.122 C 248.860 361.115,251.252 363.140,252.171 363.622 C 253.090 364.105,256.115 367.200,258.893 370.500 C 261.671 373.800,264.597 377.253,265.395 378.173 C 266.644 379.613,266.648 379.921,265.423 380.391 C 263.463 381.143,263.638 382.925,265.750 383.731 C 267.807 384.516,269.357 385.676,272.459 388.750 C 273.708 389.988,275.465 391.000,276.365 391.000 C 277.264 391.000,278.900 391.900,280.000 393.000 C 282.358 395.358,284.178 395.629,283.362 393.500 C 282.553 391.393,284.323 391.628,289.783 394.356 C 293.143 396.034,295.592 396.577,298.295 396.241 C 301.075 395.897,302.639 396.269,304.147 397.635 C 306.835 400.070,346.657 401.148,348.129 398.825 C 349.392 396.834,349.169 395.721,347.626 396.313 C 345.656 397.069,343.104 392.172,344.893 391.066 C 346.354 390.163,341.224 388.003,337.601 387.996 C 335.319 387.992,330.154 385.140,327.263 382.288 C 326.267 381.304,323.662 379.600,321.476 378.500 C 319.289 377.400,317.350 376.163,317.167 375.750 C 316.983 375.337,316.190 375.000,315.403 375.000 C 314.616 375.000,313.099 374.455,312.032 373.788 C 309.330 372.101,308.090 373.765,310.519 375.818 C 311.614 376.743,313.632 378.802,315.005 380.394 L 317.500 383.288 314.198 382.659 C 312.261 382.289,309.814 380.743,308.279 378.919 C 306.840 377.209,302.533 374.287,298.709 372.426 C 294.884 370.565,291.124 368.518,290.353 367.878 C 288.099 366.008,287.499 367.785,289.589 370.139 C 293.670 374.735,287.650 370.300,282.034 364.574 C 274.232 356.618,272.133 357.227,278.519 365.593 C 284.000 372.773,284.621 374.240,281.599 372.863 C 280.244 372.246,278.640 370.545,278.035 369.084 C 277.430 367.623,275.241 364.575,273.172 362.312 C 271.103 360.048,268.837 356.915,268.135 355.348 C 263.611 345.246,254.731 336.089,256.945 343.808 C 257.388 345.353,258.509 348.083,259.436 349.876 C 262.409 355.626,260.982 356.613,256.152 352.147 C 252.131 348.429,250.865 343.984,254.744 347.201 C 256.134 348.355,256.129 348.164,254.702 345.500 C 251.792 340.069,249.013 336.434,249.007 338.050 C 249.003 338.903,249.540 340.140,250.200 340.800 C 250.860 341.460,250.999 342.000,250.509 342.000 C 250.019 342.000,250.491 342.638,251.557 343.418 C 254.464 345.544,252.638 346.381,249.093 344.548 L 246.000 342.949 246.000 345.974 C 246.000 348.274,246.453 349.000,247.889 349.000 C 251.625 349.000,254.438 352.319,252.876 354.885 C 251.599 356.985,251.769 357.375,255.250 360.324 C 260.328 364.625,260.002 365.785,254.733 362.160 C 245.032 355.486,240.570 350.548,239.285 345.067 C 235.601 329.347,220.291 313.912,221.320 326.955 M239.500 327.577 C 241.150 328.960,243.512 330.936,244.750 331.970 C 245.988 333.003,247.000 333.487,247.000 333.045 C 247.000 332.051,238.478 324.988,237.332 325.032 C 236.874 325.049,237.850 326.194,239.500 327.577 M139.556 326.910 C 138.843 328.063,139.934 331.000,141.076 331.000 C 141.549 331.000,141.678 330.325,141.362 329.500 C 140.653 327.654,144.026 327.426,145.800 329.200 C 146.460 329.860,147.000 330.117,147.000 329.771 C 147.000 327.193,140.843 324.827,139.556 326.910 M61.174 329.945 C 62.453 331.564,64.067 332.914,64.760 332.945 C 65.453 332.975,66.790 333.900,67.732 335.000 C 70.164 337.840,71.362 337.482,69.408 334.500 C 68.507 333.125,66.998 332.000,66.054 332.000 C 65.110 332.000,63.736 330.875,63.000 329.500 C 62.264 328.125,61.029 327.000,60.255 327.000 C 59.254 327.000,59.519 327.849,61.174 329.945 M192.430 329.421 C 192.096 330.752,192.036 332.665,192.295 333.671 C 192.625 334.946,192.803 334.705,192.884 332.872 C 193.160 326.612,198.082 327.950,202.691 335.539 C 203.743 337.271,203.887 337.034,203.926 333.500 C 203.950 331.300,203.539 328.825,203.013 328.000 C 202.353 326.965,202.220 327.740,202.583 330.500 L 203.109 334.500 201.536 331.775 C 198.641 326.762,193.436 325.416,192.430 329.421 M339.000 328.346 C 339.000 330.228,358.091 336.282,367.643 337.429 C 370.315 337.749,368.000 336.930,362.500 335.609 C 353.870 333.535,348.605 331.819,340.750 328.521 C 339.788 328.117,339.000 328.038,339.000 328.346 M103.795 331.471 C 101.847 334.082,102.334 335.000,105.667 335.000 C 107.252 335.000,107.975 334.439,107.921 333.250 C 107.874 332.205,107.639 332.003,107.338 332.750 C 107.060 333.438,106.141 334.000,105.294 334.000 C 104.055 334.000,103.992 333.714,104.972 332.534 C 105.641 331.727,106.034 330.644,105.845 330.126 C 105.655 329.609,104.733 330.214,103.795 331.471 M133.011 330.487 C 132.273 331.375,132.094 332.685,132.564 333.737 C 133.251 335.275,133.404 335.201,133.757 333.162 C 134.097 331.200,134.592 330.921,136.831 331.427 C 139.374 332.002,139.408 331.959,137.559 330.515 C 135.142 328.628,134.556 328.625,133.011 330.487 M126.501 334.000 L 127.105 338.500 125.420 335.500 C 124.494 333.850,123.633 332.375,123.507 332.222 C 122.601 331.124,118.074 334.407,117.035 336.916 C 116.249 338.814,115.035 340.000,113.879 340.000 C 112.820 340.000,112.000 340.701,112.000 341.607 C 112.000 342.662,112.544 343.005,113.582 342.607 C 114.452 342.273,115.343 342.000,115.561 342.000 C 115.780 342.000,116.892 340.172,118.032 337.937 C 120.453 333.191,123.312 332.885,123.822 337.318 C 124.051 339.309,124.629 340.027,125.822 339.801 C 127.833 339.420,128.753 332.352,127.017 330.618 C 126.191 329.793,126.056 330.680,126.501 334.000 M179.250 332.671 C 176.922 333.155,176.307 334.454,177.931 335.457 C 178.443 335.774,179.144 335.575,179.490 335.016 C 181.634 331.547,193.510 337.970,192.203 341.892 C 192.000 342.501,192.321 343.000,192.917 343.000 C 193.522 343.000,193.949 341.347,193.884 339.250 C 193.820 337.188,193.553 336.333,193.291 337.351 C 192.874 338.973,192.485 338.817,190.157 336.094 C 187.477 332.960,183.646 331.757,179.250 332.671 M239.333 338.625 C 239.635 339.656,240.370 342.394,240.968 344.708 C 241.565 347.022,242.479 349.178,242.997 349.498 C 243.516 349.819,243.278 348.206,242.470 345.915 C 241.661 343.623,241.000 340.932,241.000 339.933 C 241.000 338.935,240.502 337.810,239.893 337.434 C 239.176 336.991,238.979 337.411,239.333 338.625 M132.836 340.325 C 134.582 342.184,134.884 343.337,134.341 346.075 C 133.743 349.095,133.847 349.349,135.219 348.220 C 136.438 347.218,136.589 346.134,135.912 343.220 C 135.437 341.174,135.037 339.163,135.024 338.750 C 135.011 338.337,134.022 338.000,132.826 338.000 L 130.651 338.000 132.836 340.325 M377.000 338.959 C 379.475 339.409,385.775 340.025,391.000 340.330 C 398.400 340.761,399.174 340.701,394.500 340.056 C 385.576 338.826,371.354 337.934,377.000 338.959 M64.249 341.420 C 60.210 342.888,58.612 344.426,59.320 346.163 C 59.684 347.054,60.093 346.750,60.549 345.250 C 60.954 343.920,62.030 343.000,63.182 343.000 C 64.254 343.000,65.995 342.538,67.049 341.974 C 68.595 341.146,69.393 341.437,71.164 343.474 C 73.711 346.403,75.000 346.692,75.000 344.333 C 75.000 343.417,74.737 342.929,74.417 343.250 C 74.096 343.571,72.971 342.971,71.917 341.917 C 69.777 339.777,68.923 339.722,64.249 341.420 M13.385 342.750 C 15.350 349.363,15.352 350.350,13.400 349.551 C 9.437 347.928,8.322 347.907,7.059 349.429 C 5.935 350.783,6.082 350.974,8.129 350.826 C 9.433 350.731,11.400 350.946,12.500 351.304 C 16.244 352.522,17.224 350.865,15.833 345.666 C 15.147 343.100,14.198 341.000,13.725 341.000 C 13.252 341.000,13.099 341.788,13.385 342.750 M185.686 346.840 C 188.884 348.900,191.000 351.795,191.000 354.109 C 191.000 354.853,190.100 354.525,188.750 353.289 C 185.875 350.658,182.908 349.784,181.000 351.008 C 179.793 351.781,179.947 351.972,181.785 351.985 C 184.590 352.003,189.000 354.769,189.000 356.508 C 189.000 357.927,191.466 359.201,192.402 358.264 C 194.267 356.399,190.394 346.010,187.832 346.004 C 186.914 346.002,185.339 345.727,184.332 345.394 C 183.324 345.060,183.934 345.711,185.686 346.840 M142.155 348.883 C 141.175 349.504,141.581 349.925,143.655 350.435 C 149.058 351.765,151.274 353.880,150.631 357.093 C 150.173 359.383,150.416 360.021,151.775 360.100 C 152.893 360.164,152.621 360.481,151.000 361.000 L 148.500 361.801 151.050 361.900 C 153.849 362.010,156.000 360.392,156.000 358.178 C 156.000 357.117,155.666 357.032,154.689 357.843 C 153.671 358.688,153.098 358.161,152.135 355.496 C 150.181 350.094,145.324 346.875,142.155 348.883 M0.000 353.190 C 0.000 354.015,0.900 355.505,2.000 356.500 C 3.640 357.984,4.000 358.040,4.000 356.810 C 4.000 355.985,3.100 354.495,2.000 353.500 C 0.360 352.016,0.000 351.960,0.000 353.190 M6.577 354.450 C 7.034 356.273,6.528 357.563,4.596 359.495 C 1.458 362.633,1.288 363.451,4.085 361.955 C 6.368 360.733,9.416 354.482,8.473 352.956 C 7.286 351.036,5.979 352.067,6.577 354.450 M57.856 353.146 C 60.702 353.965,61.141 354.483,60.745 356.556 C 60.342 358.663,60.637 358.984,62.889 358.884 C 64.583 358.809,64.885 358.607,63.750 358.311 C 62.586 358.007,62.000 356.873,62.000 354.927 C 62.000 352.195,61.750 352.006,58.250 352.090 L 54.500 352.180 57.856 353.146 M33.656 354.133 C 32.108 355.032,29.000 360.613,29.000 362.493 C 29.000 362.799,30.125 363.477,31.500 364.000 C 32.875 364.523,34.000 365.607,34.000 366.410 C 34.000 368.677,32.006 373.376,30.687 374.214 C 28.756 375.443,28.419 375.146,28.461 372.250 C 28.562 365.161,21.865 368.684,20.687 376.339 C 19.665 382.986,15.041 386.090,15.796 379.623 C 16.435 374.150,10.178 371.038,5.559 374.532 C 3.367 376.190,1.581 376.487,2.472 375.046 C 3.262 373.768,2.016 369.000,0.892 369.000 C 0.401 369.000,0.000 375.975,0.000 384.500 L 0.000 400.000 12.500 400.000 C 19.375 400.000,25.000 399.598,25.000 399.107 C 25.000 397.824,22.395 397.006,18.168 396.961 L 14.500 396.922 17.715 395.524 C 19.761 394.634,21.172 393.164,21.594 391.480 C 22.122 389.378,22.694 388.954,24.379 389.418 C 34.168 392.110,38.043 391.303,42.079 385.732 C 44.401 382.527,45.704 381.580,47.475 381.812 C 48.759 381.980,50.146 381.572,50.559 380.905 C 51.014 380.168,50.890 379.950,50.245 380.349 C 48.726 381.287,46.000 380.038,46.000 378.405 C 46.000 377.586,46.871 377.121,48.140 377.262 C 49.317 377.393,50.503 376.866,50.776 376.091 C 51.116 375.125,50.768 374.875,49.668 375.297 C 47.581 376.098,46.656 374.508,47.425 371.443 C 48.287 368.008,52.464 368.098,54.294 371.591 L 55.651 374.182 57.219 371.789 C 59.144 368.851,57.250 363.000,54.374 363.000 C 52.920 363.000,53.026 363.398,55.049 365.553 C 57.867 368.551,55.958 371.177,52.944 368.449 C 51.036 366.723,48.815 366.585,47.299 368.101 C 46.498 368.902,46.008 368.602,45.500 367.000 C 45.109 365.769,45.286 364.314,45.901 363.699 C 47.605 361.995,47.196 360.592,45.424 362.063 C 43.686 363.506,42.046 362.018,42.015 358.973 C 41.970 354.481,37.505 351.895,33.656 354.133 M137.655 354.829 C 135.502 357.208,135.568 358.299,138.000 360.500 C 140.432 362.701,140.568 365.715,138.345 368.171 C 136.513 370.196,139.476 371.059,141.550 369.104 C 142.697 368.023,147.000 369.494,147.000 370.968 C 147.000 371.535,146.325 372.000,145.500 372.000 C 144.675 372.000,144.000 372.450,144.000 373.000 C 144.000 373.550,144.450 374.000,145.000 374.000 C 145.550 374.000,146.000 374.498,146.000 375.107 C 146.000 375.716,145.325 375.955,144.500 375.638 C 142.654 374.930,142.596 376.884,144.392 379.250 C 146.175 381.598,147.283 381.467,146.500 379.000 C 146.064 377.626,146.320 377.000,147.319 377.000 C 148.170 377.000,148.956 375.756,149.213 374.000 C 149.455 372.350,149.282 371.000,148.827 371.000 C 148.372 371.000,148.053 370.663,148.118 370.250 C 148.497 367.850,147.682 367.000,145.000 367.000 C 142.411 367.000,142.000 366.632,142.000 364.314 C 142.000 362.837,141.085 360.655,139.967 359.465 C 138.159 357.541,138.104 357.159,139.467 356.028 C 141.133 354.645,141.507 353.000,140.155 353.000 C 139.690 353.000,138.565 353.823,137.655 354.829 M78.459 356.067 C 78.096 356.653,78.070 357.403,78.400 357.733 C 78.730 358.063,79.000 357.808,79.000 357.167 C 79.000 355.395,82.497 355.772,85.022 357.817 C 86.933 359.364,87.093 359.958,86.098 361.817 C 85.041 363.791,85.169 364.000,87.439 364.000 C 89.216 364.000,90.402 363.124,91.500 361.000 C 92.429 359.204,92.627 358.000,91.994 358.000 C 91.413 358.000,90.679 358.672,90.364 359.494 C 89.915 360.663,89.182 360.336,86.994 357.994 C 84.171 354.971,79.752 353.974,78.459 356.067 M170.000 357.389 C 170.000 358.153,170.563 358.715,171.250 358.639 C 171.938 358.563,172.630 358.820,172.788 359.212 C 172.947 359.603,174.410 361.256,176.038 362.885 C 177.667 364.513,179.000 366.582,179.000 367.482 C 179.000 368.464,179.462 368.833,180.155 368.405 C 180.870 367.962,181.038 368.130,180.595 368.845 C 180.203 369.480,179.234 370.000,178.441 370.000 C 176.814 370.000,176.505 371.576,177.956 372.473 C 179.825 373.628,184.279 364.209,183.263 361.250 C 182.372 358.658,181.418 360.137,181.810 363.500 C 182.060 365.642,181.788 367.000,181.109 367.000 C 180.499 367.000,180.000 366.523,180.000 365.940 C 180.000 365.358,178.330 362.883,176.288 360.440 C 172.586 356.012,170.000 354.757,170.000 357.389 M50.000 358.942 C 51.925 359.333,54.625 359.980,56.000 360.378 C 58.399 361.074,58.422 361.041,56.559 359.552 C 55.446 358.662,52.885 358.049,50.559 358.115 L 46.500 358.230 50.000 358.942 M163.776 363.017 C 164.154 366.957,163.920 368.094,162.626 368.590 C 161.732 368.933,161.000 370.114,161.000 371.214 C 161.000 373.568,162.727 373.148,167.045 369.743 C 169.344 367.930,169.880 366.734,169.843 363.500 L 169.796 359.500 168.792 363.000 C 168.240 364.925,167.625 367.063,167.425 367.750 C 166.524 370.856,165.000 368.536,165.000 364.059 C 165.000 361.341,164.618 358.882,164.150 358.593 C 163.683 358.304,163.514 360.295,163.776 363.017 M192.132 362.268 C 191.509 362.891,191.052 364.547,191.116 365.950 C 191.210 368.013,191.324 368.118,191.713 366.500 C 192.525 363.124,193.809 362.517,195.983 364.484 C 197.099 365.494,198.229 366.104,198.494 365.840 C 198.759 365.575,197.690 364.408,196.120 363.247 C 193.994 361.675,192.975 361.425,192.132 362.268 M62.568 369.416 C 63.484 373.065,62.288 376.985,60.231 377.079 C 59.149 377.128,59.518 377.530,61.212 378.150 C 63.101 378.840,64.468 378.795,65.712 378.002 C 67.348 376.959,67.322 376.899,65.410 377.296 C 63.476 377.697,63.354 377.375,63.775 372.995 C 64.059 370.032,63.797 367.993,63.075 367.546 C 62.261 367.043,62.111 367.595,62.568 369.416 M152.471 368.355 C 153.606 369.185,154.080 370.348,153.694 371.355 C 153.347 372.260,153.547 373.000,154.140 373.000 C 154.789 373.000,154.968 373.992,154.589 375.500 C 154.228 376.942,154.393 378.000,154.981 378.000 C 156.084 378.000,156.383 371.161,155.393 368.582 C 155.059 367.712,153.848 367.000,152.702 367.000 C 150.703 367.000,150.694 367.056,152.471 368.355 M117.598 370.841 C 117.218 371.456,115.517 371.709,113.711 371.419 C 110.756 370.945,110.878 371.108,115.250 373.471 C 120.076 376.079,120.820 377.600,118.965 381.066 C 118.395 382.130,118.323 383.000,118.804 383.000 C 119.285 383.000,120.203 381.850,120.843 380.445 C 122.104 377.678,119.018 368.544,117.598 370.841 M185.200 372.200 C 183.789 373.611,183.636 378.876,184.946 380.946 C 185.512 381.841,185.465 383.130,184.823 384.330 C 183.855 386.140,183.690 386.070,182.332 383.267 C 180.854 380.215,176.606 377.508,174.925 378.546 C 173.175 379.628,174.006 380.751,177.000 381.350 C 178.650 381.680,180.000 382.402,180.000 382.954 C 180.000 383.585,179.062 383.530,177.467 382.803 C 175.270 381.802,174.732 381.937,173.410 383.824 C 172.572 385.021,171.039 386.000,170.002 386.000 C 168.966 386.000,167.819 386.483,167.455 387.073 C 167.040 387.745,166.247 387.370,165.339 386.073 C 161.708 380.890,154.000 385.904,154.000 393.450 C 154.000 399.460,155.982 400.000,178.047 400.000 L 198.094 400.000 197.797 394.631 C 197.604 391.147,197.103 389.413,196.369 389.692 C 195.599 389.985,195.501 391.289,196.064 393.783 C 197.151 398.604,196.479 399.059,194.451 394.874 C 192.049 389.916,186.609 387.493,184.929 390.632 C 184.252 391.897,183.268 392.666,182.743 392.341 C 182.217 392.016,182.176 391.469,182.653 391.125 C 185.533 389.047,187.250 383.289,186.063 379.692 C 183.936 373.245,188.554 371.708,193.923 377.077 C 197.241 380.395,198.009 379.886,195.369 376.117 C 194.472 374.836,192.237 373.161,190.401 372.394 C 186.377 370.713,186.676 370.724,185.200 372.200 M71.869 374.866 C 73.890 376.420,74.068 377.004,73.084 378.844 C 72.084 380.712,72.192 381.000,73.895 381.000 C 75.599 381.000,75.747 380.605,75.009 378.033 C 73.824 373.899,73.136 372.997,71.191 373.022 C 69.844 373.040,69.981 373.415,71.869 374.866 M87.040 375.452 C 86.377 376.251,86.045 377.713,86.301 378.702 C 86.685 380.179,86.789 380.118,86.884 378.357 C 87.015 375.943,89.172 374.745,91.664 375.701 C 92.783 376.131,93.091 375.957,92.605 375.170 C 91.602 373.548,88.489 373.706,87.040 375.452 M159.661 375.442 C 158.484 378.507,153.906 380.592,152.519 378.694 C 151.157 376.833,150.000 376.481,150.000 377.929 C 150.000 381.900,154.889 382.806,158.758 379.550 C 162.090 376.746,166.000 377.052,166.000 380.117 C 166.000 381.152,166.450 382.000,167.000 382.000 C 169.301 382.000,167.899 377.372,165.096 375.716 C 161.553 373.623,160.381 373.564,159.661 375.442 M101.626 379.467 C 102.008 380.462,101.353 382.060,99.952 383.551 C 98.687 384.898,98.147 386.000,98.753 386.000 C 101.828 386.000,104.867 379.122,102.187 378.229 C 101.444 377.981,101.234 378.446,101.626 379.467 M54.000 380.525 C 54.000 380.813,55.125 381.477,56.500 382.000 C 57.874 382.523,59.898 384.424,60.996 386.225 C 63.337 390.065,63.677 389.209,61.490 384.980 C 59.704 381.527,54.000 378.134,54.000 380.525 M113.266 381.134 C 111.324 383.076,113.712 385.000,118.063 385.000 C 120.164 385.000,122.144 384.577,122.463 384.059 C 122.806 383.506,121.676 383.341,119.719 383.658 C 116.993 384.100,116.222 383.812,115.439 382.057 C 114.688 380.375,114.223 380.177,113.266 381.134 M136.222 384.086 C 138.216 386.783,138.243 387.073,136.673 388.809 C 134.288 391.444,134.568 392.000,138.278 392.000 C 141.869 392.000,145.267 389.050,144.013 387.021 C 143.471 386.144,142.804 386.442,141.663 388.071 C 139.976 390.480,139.769 390.263,138.594 384.869 C 138.276 383.408,137.150 382.011,136.060 381.726 C 134.169 381.231,134.175 381.317,136.222 384.086 M193.818 383.500 C 195.452 384.875,197.399 385.998,198.144 385.995 C 199.866 385.989,193.961 381.084,192.173 381.036 C 191.444 381.016,192.184 382.125,193.818 383.500 M78.500 383.000 C 78.160 383.551,78.870 384.000,80.081 384.000 C 81.290 384.000,82.877 384.788,83.608 385.750 C 84.726 387.223,84.941 387.254,84.968 385.950 C 85.033 382.786,80.040 380.509,78.500 383.000 M101.358 391.309 C 106.071 394.330,108.000 396.294,108.000 398.073 C 108.000 399.133,108.450 400.000,109.000 400.000 C 110.339 400.000,110.266 399.416,108.506 396.011 C 106.824 392.758,103.321 389.971,101.027 390.059 C 99.825 390.105,99.896 390.371,101.358 391.309 M121.000 390.679 C 121.825 390.965,123.510 392.392,124.745 393.850 C 126.362 395.759,126.991 396.054,126.995 394.905 C 127.002 392.758,123.795 389.981,121.421 390.079 C 120.028 390.136,119.912 390.301,121.000 390.679 M48.139 392.926 C 50.685 395.003,48.861 396.928,45.551 395.658 C 44.046 395.080,38.473 397.426,37.461 399.063 C 37.107 399.635,46.051 400.000,60.441 400.000 C 73.398 400.000,83.993 399.663,83.985 399.250 C 83.934 396.780,82.025 395.773,78.610 396.413 C 75.777 396.945,75.000 396.770,75.000 395.602 C 75.000 391.476,67.782 389.810,63.727 393.000 C 61.951 394.397,59.670 395.000,56.160 395.000 C 52.013 395.000,51.024 394.650,50.500 393.000 C 50.138 391.860,48.987 391.000,47.822 391.000 C 45.874 391.000,45.889 391.090,48.139 392.926 M115.667 392.667 C 115.300 393.033,115.000 394.293,115.000 395.467 C 115.000 396.640,114.460 398.140,113.800 398.800 C 112.429 400.171,113.832 400.393,115.836 399.122 C 116.571 398.657,117.021 397.201,116.836 395.888 C 116.587 394.115,116.951 393.536,118.250 393.639 C 119.213 393.715,120.000 393.378,120.000 392.889 C 120.000 391.856,116.649 391.684,115.667 392.667 M363.000 392.883 C 363.000 394.242,366.947 394.964,370.399 394.238 L 373.500 393.585 370.500 392.911 C 366.012 391.902,363.000 391.891,363.000 392.883 M209.636 394.170 C 210.811 394.738,212.264 396.283,212.864 397.602 C 214.326 400.810,217.000 400.745,217.000 397.500 C 217.000 396.125,217.034 394.674,217.075 394.275 C 217.116 393.876,216.619 393.373,215.970 393.157 C 215.183 392.894,215.014 393.468,215.462 394.882 C 216.310 397.553,214.862 397.610,212.500 395.000 C 211.505 393.900,209.972 393.030,209.095 393.068 C 207.942 393.117,208.092 393.422,209.636 394.170 M128.225 396.405 C 126.975 399.149,125.428 399.785,124.774 397.823 C 124.341 396.522,122.000 397.565,122.000 399.059 C 122.000 400.484,129.713 400.196,130.255 398.750 C 131.352 395.822,129.478 393.656,128.225 396.405 M291.000 399.000 C 291.000 399.550,292.012 399.993,293.250 399.985 C 295.069 399.972,295.213 399.784,294.000 399.000 C 292.061 397.747,291.000 397.747,291.000 399.000" stroke="none" fill="#000" fill-rule="evenodd"/></g></svg>