<svg xmlns="http://www.w3.org/2000/svg" xmlns:xlink="http://www.w3.org/1999/xlink" version="1.1" x="0px" y="0px" width="19.903px" height="7.178px" viewBox="0 0 19.903 7.178" enable-background="new 0 0 19.903 7.178" xml:space="preserve"><path d="M5.111 5.156C4.999 5 4.9 5 4.7 4.979c-0.196 0-0.329 0.099-0.396 0.185C4.24 5.3 4.2 5.3 4.2 5.7 c0 0.4 0 0.5 0.1 0.585C4.394 6.4 4.5 6.5 4.7 6.518c0.154 0 0.293-0.069 0.389-0.176v0.154 c0 0.211-0.143 0.325-0.344 0.325c-0.116 0-0.22-0.062-0.293-0.137L4.24 6.873c0.133 0.2 0.3 0.3 0.5 0.3 c0.344 0 0.653-0.207 0.653-0.661V4.996H5.111V5.156z M5.052 6.1C5.01 6.2 4.9 6.2 4.8 6.2 c-0.122 0-0.198-0.062-0.239-0.115c-0.054-0.067-0.06-0.109-0.06-0.351c0-0.243 0.006-0.284 0.06-0.354 c0.042-0.055 0.118-0.114 0.239-0.114c0.119 0 0.2 0.1 0.2 0.114c0.054 0.1 0.1 0.1 0.1 0.4 C5.111 6 5.1 6 5.1 6.1z M7.381 5.281c0.125 0 0.2 0.1 0.3 0.155L7.91 5.237c-0.132-0.149-0.312-0.26-0.54-0.26 c-0.348 0-0.683 0.219-0.683 0.771c0 0.5 0.3 0.8 0.7 0.769c0.229 0 0.408-0.107 0.54-0.262L7.687 6.1 C7.612 6.1 7.5 6.2 7.4 6.215c-0.246 0-0.392-0.139-0.392-0.466C6.989 5.4 7.1 5.3 7.4 5.281z M10.371 5 c-0.291 0-0.62 0.189-0.62 0.773c0 0.6 0.4 0.8 0.7 0.766c0.202 0 0.395-0.069 0.543-0.242l-0.22-0.188 c-0.09 0.092-0.215 0.145-0.33 0.145c-0.208 0-0.358-0.125-0.358-0.371h0.938V5.614C10.991 5.2 10.7 5 10.4 4.979z M10.054 5.612c0.006-0.229 0.139-0.352 0.317-0.352c0.178 0 0.3 0.1 0.3 0.352H10.054z M11.916 5 c-0.226 0-0.392 0.061-0.507 0.221l0.236 0.182c0.054-0.086 0.127-0.116 0.285-0.116c0.215 0 0.3 0.1 0.3 0.192v0.158h-0.421 c-0.321 0-0.487 0.203-0.487 0.443c0 0.3 0.2 0.5 0.5 0.459c0.203 0 0.31-0.047 0.369-0.149h0.009V6.5h0.303V5.473 C12.543 5.1 12.3 5 11.9 4.979z M12.24 5.973c0 0.233-0.087 0.26-0.341 0.26c-0.203 0-0.282-0.088-0.282-0.188 c0-0.108 0.082-0.184 0.261-0.184h0.362V5.973z M19.817 0.088h-0.983v2.956c0 0.677-0.422 1.066-0.979 1.1 c-0.567 0-0.989-0.391-0.989-1.066V0.088h-0.997v2.956c0 0.677-0.42 1.066-0.979 1.066c-0.569 0-0.989-0.391-0.989-1.066V0.088 h-0.998v1.678C12.673 0.9 12.1 0.4 11.2 0.39c-1.027 0-1.617 0.732-1.7 1.725L9.376 3.176C9.34 3.6 9.2 3.9 8.8 3.9 c-0.509 0-0.769-0.496-0.769-1.181c0-0.803 0.26-1.37 0.769-1.889L7.958 0C7.402 0.6 7.1 1.3 6.9 1.979V1.786 c0-1.125-0.881-1.724-1.653-1.724c-0.676 0-1.155 0.196-1.566 0.646c-0.353-0.362-0.705-0.646-1.4-0.646 c-0.527 0-0.979 0.196-1.292 0.587h-0.02V0.121H0v4.874l0 0V6.5h0.292V5.604c0-0.205 0.127-0.32 0.3-0.32 c0.169 0 0.3 0.1 0.3 0.32V6.5h0.302V5.604c0-0.205 0.127-0.32 0.3-0.32c0.169 0 0.3 0.1 0.3 0.32V6.5h0.302v-1 c0-0.341-0.268-0.521-0.501-0.521c-0.205 0-0.351 0.061-0.476 0.195C1.078 5.1 1 5.1 1 5.08V2.128 c0-0.675 0.421-1.066 0.989-1.066c0.558 0 1 0.4 1 1.066v2.857C2.814 5 2.7 5.1 2.6 5.196l0.237 0.2 C2.889 5.3 3 5.3 3.1 5.264c0.216 0 0.3 0 0.3 0.191v0.157H3.012c-0.323 0-0.489 0.203-0.489 0.4 c0 0.3 0.2 0.5 0.5 0.461c0.205 0 0.309-0.047 0.371-0.15H3.43V6.5h0.303V5.473c0-0.187-0.064-0.311-0.177-0.389h0.42V2.128 c0-0.675 0.421-1.066 0.989-1.066c0.558 0 1 0.4 1 1.066v2.956l0 0V6.5h0.31V5.084h0.681V3.306 C7.104 4.2 7.6 4.9 8.4 5.078C8.266 5.2 8.2 5.3 8.2 5.44c0 0.3 0.2 0.4 0.4 0.427L8.895 5.9 c0.104 0 0.2 0 0.2 0.149c0 0.128-0.125 0.19-0.297 0.19c-0.202 0-0.345-0.062-0.476-0.19l-0.21 0.2 C8.29 6.4 8.5 6.5 8.8 6.518c0.35 0 0.623-0.17 0.623-0.463c0-0.24-0.125-0.431-0.437-0.451l-0.25-0.019 C8.545 5.6 8.5 5.5 8.5 5.44c0-0.104 0.064-0.18 0.258-0.18c0.163 0 0.3 0.1 0.4 0.139l0.187-0.219 C9.293 5.1 9.2 5.1 9.2 5.067c0.734-0.141 1.275-0.654 1.345-1.692l0.07-0.992c0.047-0.602 0.307-0.791 0.567-0.791 c0.412 0 0.7 0.3 0.7 1.027c0 0.648-0.227 1.133-0.556 1.604l0.874 0.743c0.322-0.387 0.57-0.823 0.703-1.372v1.397h-0.016 l0.016 0.049v0.006h0.002l0.465 1.449h0.267l0.314-1.055h0.006l0.313 1.055h0.268l0.448-1.403c0.074 0 0.1 0 0.2 0 c0.127 0 0.244-0.01 0.352-0.026c-0.157 0.108-0.276 0.317-0.276 0.67c0 0.6 0.4 0.8 0.7 0.8 c0.2 0 0.394-0.07 0.542-0.242l-0.22-0.188c-0.09 0.092-0.215 0.145-0.328 0.145c-0.207 0-0.359-0.125-0.359-0.371h0.937V5.61 c0-0.383-0.276-0.627-0.603-0.635c0.274-0.117 0.481-0.303 0.688-0.515c0.231 0.3 0.5 0.4 0.8 0.5 c-0.25 0.054-0.485 0.266-0.485 0.76c0 0.6 0.4 0.8 0.7 0.766c0.2 0 0.396-0.07 0.543-0.242l-0.22-0.188 c-0.09 0.092-0.215 0.145-0.329 0.145c-0.207 0-0.359-0.125-0.359-0.371h0.938V5.61c0-0.229-0.102-0.405-0.248-0.516 c0.089 0 0.2 0 0.3 0.012c0.479 0 1-0.229 1.324-0.672v0.719c-0.111-0.105-0.232-0.178-0.389-0.178 c-0.185 0-0.316 0.082-0.402 0.195c-0.084 0.106-0.105 0.205-0.105 0.572c0 0.4 0 0.5 0.1 0.6 c0.086 0.1 0.2 0.2 0.4 0.195c0.153 0 0.295-0.072 0.389-0.177V6.5h0.315V4.389h-0.28c0.182-0.266 0.28-0.6 0.28-1v-3.3 L19.817 0.088L19.817 0.088z M0.297 5.156H0.292V5.084h0.077C0.343 5.1 0.3 5.1 0.3 5.156z M3.43 6 c0 0.233-0.086 0.26-0.338 0.26c-0.205 0-0.285-0.088-0.285-0.188c0-0.108 0.083-0.184 0.261-0.184H3.43V5.973z M13.5 6.049h-0.006 l-0.271-0.998h0.603L13.5 6.049z M14.408 6.049h-0.007L14.06 4.996h-0.16V4.521h0.021c0.203 0.3 0.5 0.4 0.8 0.5 L14.408 6.049z M16.223 5.612h-0.634c0.006-0.229 0.141-0.352 0.318-0.352C16.082 5.3 16.2 5.4 16.2 5.612z M17.211 5.6 c0.006-0.229 0.141-0.352 0.315-0.352c0.181 0 0.3 0.1 0.3 0.352H17.211z M19.207 6.215c-0.285 0-0.299-0.234-0.299-0.469 c0-0.23 0.014-0.465 0.299-0.465c0.28 0 0.3 0.2 0.3 0.465C19.504 6 19.5 6.2 19.2 6.215z"/></svg>
