<svg display="block" height="400" width="400" xmlns="http://www.w3.org/2000/svg"><path d="m193 5c-10.297.412-13.02.852-15.45 2.496-2.44 1.651-5.208 2.092-16 2.548-11.507.487-13.76.882-19.05 3.339-3.3 1.532-10.132 4.293-15.181 6.134-10.202 3.719-11.965 4.7-21.319 11.864-11.25 8.616-10.536 8.991 1.022.538 6.524-4.772 22.141-12.919 24.763-12.919.765 0 5.064-1.641 9.553-3.646 7.583-3.388 9.085-3.694 21.162-4.309 9.442-.481 13.684-1.108 15.5-2.293 9.543-6.223 46-.454 46 7.281 0 .947.675 2.282 1.5 2.967 1.198.995 1.5.991 1.5-.016 0-2.155 11.019-.555 16.583 2.407 2.695 1.435 5.506 2.609 6.246 2.609.739 0 4.118 2.649 7.508 5.887 4.823 4.607 7.079 6.038 10.379 6.582 3.692.609 6.656 2.374 13.513 8.045.951.787 1.479 2.083 1.173 2.881-.458 1.194-.896 1.111-2.479-.472-2.262-2.262-6.747-2.546-7.54-.477-.648 1.686 4.593 8.687 5.898 7.88.486-.3-.328-1.809-1.808-3.354-3.023-3.155-2.684-4.926.814-4.257 1.46.279 2.761 1.574 3.472 3.457 1.473 3.902 3.241 2.772 3.241-2.071 0-3.04-.479-3.998-2.447-4.895-1.346-.613-3.198-2.26-4.115-3.66-.917-1.401-2.21-2.546-2.872-2.546-4.838 0-12.238-3.557-16.497-7.929-5.588-5.737-17.96-11.688-26.35-12.674-4.406-.518-5.808-1.103-6.291-2.624-.663-2.088-7.579-5.715-10.967-5.751-1.121-.012-3.596-.809-5.5-1.772-2.932-1.483-5.37-1.674-15.961-1.25m8.241 13.21c-.994 1.197-.259 1.347 4.816.98 5.966-.432 12.147 2.931 10.088 5.488-.355.44.37-.054 1.611-1.099s2.554-1.603 2.917-1.24c.363.364.305.661-.129.661s-.229.675.456 1.5c2.634 3.174 6.184.164 3.933-3.336-.906-1.409-.998-1.319-.596.585.605 2.861-.979 3.954-1.833 1.264-.846-2.667-4.504-4.736-4.504-2.548 0 .844-.45 1.535-1 1.535s-1-.434-1-.965c0-2.77-12.775-5.216-14.759-2.825m-10.586 5.54c-.255.413.506.786 1.69.829 1.185.043 2.774.268 3.53.5s1.581-.141 1.833-.829c.503-1.372-6.22-1.848-7.053-.5m1.553 4.5c-.799.964-.199 1.218 2.628 1.111 5.343-.202 5.889-.405 3.664-1.361-2.923-1.256-5.115-1.169-6.292.25m15.822 2c-.031 3.849-1.524 5.125-2.341 2-.251-.962-.509-.272-.573 1.535-.103 2.922.092 3.174 1.769 2.277 2.325-1.245 3.516-5.547 2.174-7.85-.793-1.36-1.004-.942-1.029 2.038m21.47-1.055c2.808 1.592 3.467 2.832 3.485 6.555.017 3.7 2.255 4.44 4.166 1.379 2.435-3.899 6.397-1.197 6.058 4.131-.269 4.22-.128 4.532 1.814 4.024 2.127-.556 5.672-4.922 4.748-5.846-.275-.275-1.246.639-2.159 2.031-2.347 3.583-3.112 3.161-3.112-1.718 0-3.894-.231-4.278-2.75-4.567-1.512-.174-2.75-.723-2.75-1.218 0-.496 1.238-1.573 2.75-2.394 1.896-1.029 2.219-1.504 1.039-1.532-.94-.022-2.167.523-2.725 1.21-.558.688-2.159 2.6-3.557 4.25l-2.543 3 .628-2.757c.812-3.562-1.833-7.754-4.865-7.713-2.171.03-2.176.06-.227 1.165m-34.95 4.145c-1.442 1.055-1.691 2.095-1.168 4.884.495 2.639.292 3.687-.796 4.105-.967.371-1.567-.182-1.774-1.634-.217-1.527-1.072-2.251-2.812-2.38-1.375-.101-1.755.036-.845.305.911.27 1.932 1.59 2.269 2.935 1.436 5.72 6.095 1.764 5.365-4.555-.25-2.162.151-2.542 2.961-2.813 1.787-.173 3.25-.735 3.25-1.25 0-1.402-4.355-1.129-6.45.403m10.668 7.081c-.807 1.771-1.658 2.277-3.166 1.882-2.186-.571-5.062 1.181-5.037 3.069.009.651.386.544.89-.253 1.154-1.821 14.735-.254 14.345 1.656-.137.674.313 1.113 1 .975.763-.153 1.153.648 1.001 2.058-.143 1.332.174 2.047.75 1.691 3.25-2.008-1.018-7.423-5.974-7.578-1.39-.043-1.959-.308-1.266-.587.694-.28 1.772-1.482 2.396-2.671 1.098-2.093 1.07-2.107-.84-.413-2.203 1.953-4.4 2.433-2.517.55 1.392-1.392 1.573-2.8.361-2.8-.462 0-1.336 1.09-1.943 2.421m-117.224.921c-6.134 2.195-17.869 11.418-35.91 28.222-4.171 3.885-10.384 8.554-13.807 10.375-6.314 3.359-10.042 6.986-22.777 22.156-3.85 4.586-8.981 10.498-11.401 13.137-2.421 2.639-4.178 5.022-3.906 5.295.273.272 2.857-2.097 5.742-5.266 2.886-3.169 6.933-7.561 8.993-9.761 2.061-2.2 6.35-7.487 9.531-11.75s6.087-7.75 6.459-7.75c.371 0 1.554-.685 2.629-1.523 1.074-.838 5.328-3.728 9.453-6.422 4.125-2.695 14.475-11.028 23-18.519 9.82-8.628 17.699-14.694 21.5-16.552 6.266-3.063 6.483-3.784.494-1.642m144.67 1.49c.185.732.336 1.514.336 1.736 0 .223 1.6 1.074 3.556 1.891 3.627 1.516 5.065 10.188 1.863 11.24-.676.222-.914-.782-.635-2.681.489-3.331-1.132-6.018-3.629-6.018-1.2 0-1.045.389.622 1.557 2.404 1.683 2.889 4.377 1.11 6.156-1.574 1.574-.038 3.56 2.283 2.953 3.773-.987 4.66 3.858 1.34 7.323-3.503 3.657-1.506 5.094 3.49 2.511 3.891-2.012 5.535-1.49 6.42 2.037.896 3.569.535 3.76-3.734 1.976-4.192-1.751-5.023-1.868-4.235-.593.312.506-.551 1.8-1.919 2.876s-2.953 3.181-3.522 4.677-1.929 2.954-3.022 3.24c-2.572.673-2.576 2.287-.005 2.287 1.369 0 2.75-1.513 4.46-4.888 3.019-5.958 7.263-8.104 9.91-5.012 2.361 2.757 4.407 2.342 6.658-1.35 2.564-4.205 2.559-8.924-.011-11.25-1.1-.995-2-2.865-2-4.155s-.45-2.345-1-2.345c-1.705 0-1.1 3.599.91 5.419 2.836 2.566 3.338 6.075 1.478 10.323l-1.646 3.758-1.121-4.919c-1.296-5.687-2.308-6.311-6.621-4.081-3.052 1.578-3.107 1.569-2.068-.374 1.347-2.516 1.389-7.81.068-8.626-.55-.34-1-3.057-1-6.039 0-5.296-.09-5.466-3.908-7.414-2.149-1.096-4.1-2.343-4.336-2.77-.235-.427-.277-.178-.092.555m-61.464.368c-1.939 1.939-1.389 4.652 1.43 7.057 3.3 2.814 5.448 7.73 4.673 10.693-.57 2.18-.64 2.153-1.849-.721-2.452-5.833-15.517-7.954-15.424-2.504.029 1.684.083 1.685 1.05.025.561-.962 1.672-1.75 2.47-1.75 1.675 0 1.886 1.164.468 2.582-.643.643-.262 2.439 1.104 5.2 2.088 4.221 4.545 5.893 3.411 2.323-.661-2.084 1.728-5.105 4.038-5.105.786 0 1.429.9 1.429 2s-.45 2-1 2c-2.077 0-1.113 6.829 1.061 7.519 1.133.36 2.596 1.847 3.25 3.304s1.976 3.443 2.939 4.413c1.891 1.906 2.377 7.259.75 8.264-.571.353-1-.523-1-2.041 0-3.606-5.883-9.459-9.507-9.459-1.995 0-2.556-.394-2.131-1.5.316-.825.139-1.5-.393-1.5-.533 0-.969 1.289-.969 2.865s-.933 4.051-2.073 5.5c-2.504 3.184-4.475 3.528-2.854.498 2.516-4.7-1.057-12.863-5.63-12.863-1.441 0-2.993-1.165-4.328-3.25-2.506-3.913-2.672-3.183-.507 2.228 1.629 4.072 1.359 7.022-.644 7.022-.616 0-.839-.817-.509-1.859 2.256-7.107-15.383-12.198-18.677-5.391-.999 2.064-1.948 2.68-3.804 2.469-2.392-.271-2.409-.229-.533 1.25 1.068.842 3.093 1.608 4.5 1.702 1.408.094 3.362.219 4.343.277 2.909.172 8.716 5.401 8.712 7.845-.003 1.913-.272 1.766-2.023-1.105-1.711-2.806-2.511-3.264-5.246-3-4.283.414-4.698 3.388-1.207 8.662 1.486 2.247 2.496 5.008 2.31 6.32-.298 2.106-1.72 2.911-1.907 1.08-.198-1.944-4.433-8.25-5.54-8.25-.686 0-1.521-.859-1.854-1.91-.334-1.05-1.267-2.458-2.075-3.128-1.289-1.07-1.294-.882-.041 1.534.786 1.514 1.181 3.398.879 4.186-.41 1.067-.842.844-1.694-.874-1.278-2.578-5.9-3.632-8.061-1.839-1.001.831-1.474.786-1.861-.177-.285-.711-.554-.254-.597 1.015-.075 2.181-.199 2.222-2.302.75-1.222-.856-2.672-1.557-3.222-1.557s.032.723 1.294 1.607 2.632 2.519 3.045 3.635c.682 1.843.945 1.697 2.894-1.607 2.262-3.833 5.082-4.702 7.155-2.203.985 1.187.622 1.486-2.127 1.75l-3.316.318v6.196c0 3.622-.519 6.718-1.25 7.45-1.001 1.004-1.256.366-1.281-3.196-.047-6.622-3.852-9.092-10.048-6.522-1.064.441-1.914-.092-2.607-1.637-.798-1.777-.96-.711-.723 4.751.252 5.811.003 7.23-1.427 8.124-1.527.953-1.689.707-1.364-2.077.477-4.085-2.448-7.839-6.107-7.839-4.741 0-5.693 1.723-5.693 10.307 0 10.673.603 12.097 8.608 20.341 4.507 4.64 15.252 7.342 18.055 4.539 1.292-1.292 5.951-1.512 9.325-.441l2.479.787-2.233.826c-2.928 1.083-2.826 2.3.313 3.73 3.567 1.626 5.23 1.462 9.036-.89 4.825-2.982 13.393 2.045 10.756 6.312-.498.806-.951.376-1.336-1.271-1.041-4.451-13.028-3.717-12.988.795.011 1.181.255 1.339.783.508 1.15-1.81 8.206 5.004 8.187 7.906-.028 4.122-1.686 5.438-2.453 1.946-.94-4.277-2.009-4.651-6.212-2.171-2.531 1.493-3.93 1.816-4.667 1.079s-.543-1.053.647-1.053c2.616 0 2.051-3.579-.935-5.927-2.65-2.085-5.852-2.716-6.708-1.323-.253.412.919.802 2.606.865 4.027.151 6.751 3.466 3.758 4.573-2.518.931-2.575 2.309-.164 4.005 1.021.719 2.153 2.248 2.517 3.399 2.519 7.977 15.607 8.734 19.957 1.154 1.455-2.535 2.121-2.827 5.828-2.554 4.573.337 6.521 2.414 2.202 2.348-1.466-.022-2.847.484-3.068 1.125-.58 1.677 3.28 2.634 5.603 1.39 4.251-2.275 14.131.657 14.089 4.18-.011.872-.244.923-.75.165-1.423-2.13-5.511-3.595-8.415-3.014-3.701.74-6.079 2.955-4.678 4.356 1.324 1.324.704 6.49-.839 6.997-.765.25-1.126-.61-1-2.38.258-3.635-4.219-6.174-7.916-4.489-1.313.598-2.387 1.617-2.387 2.264 0 .695.807.446 1.975-.611 1.91-1.729 2.005-1.707 2.913.684 2.642 6.947 12.282 10.235 15.52 5.293 2.009-3.066 5.887-3.281 10.022-.555 2.64 1.74 3.259 1.794 6.25.544 2.006-.838 3.32-.985 3.32-.371 0 .559.867.742 1.927.405 2.68-.851 9.073 1.993 9.073 4.037 0 1.332-.362 1.215-1.826-.593-2.366-2.922-8.32-2.141-9.926 1.301l-1.041 2.232-1.04-2.5c-.925-2.223-1.047-2.271-1.104-.434-.035 1.154 1.459 3.413 3.385 5.119 4.213 3.729 5.494 7.802 3.182 10.114-1.507 1.506-1.63 1.39-1.63-1.528 0-5.762-8.27-8.628-11.914-4.129-.954 1.178-2.333 1.942-3.065 1.698-.891-.297-.122-1.616 2.324-3.993 2.01-1.952 3.655-4.166 3.655-4.921 0-.829-.584-.538-1.477.737-.812 1.16-2.701 2.416-4.198 2.791-2.152.541-2.418.882-1.273 1.633 1.232.808 1.185 1.104-.309 1.985-1.354.798-1.526 1.466-.75 2.916 2.79 5.213.918 7.248-2.706 2.941-2.58-3.066-3.72-3.235-8.765-1.299-1.423.546-1.568.134-1.007-2.857.573-3.056.373-3.569-1.593-4.083-2.026-.53-2.096-.435-.707.953 1.573 1.573.445 7.357-1.434 7.357-.43 0-.781.411-.781.913 0 .901 4.707-.28 8.291-2.081 2.602-1.308 3.891-.105 2.439 2.275-1.447 2.371 1.048 4.893 4.839 4.893 2.731 0 4.233 1.761 5.07 5.945l.651 3.254-2.657-2.657c-4.489-4.489-10.951-3.405-11.668 1.958-.294 2.2-.883 4.563-1.309 5.25-1.372 2.215-2.322 1.333-1.871-1.737.717-4.89-.515-7.905-3.55-8.686l-2.735-.703 2.5-.674c2.157-.582 2.258-.777.737-1.424-2.156-.917-4.737 1.023-4.737 3.561 0 1.861-2.76 3.932-5.184 3.891-.724-.012-.252-.841 1.048-1.841 2.772-2.131 2.377-6.29-1.006-10.59-1.619-2.058-1.713-2.547-.49-2.547.833 0 1.792.45 2.132 1s1.097 1 1.681 1c.671 0 .604-.554-.181-1.5-1.949-2.349-4.464-1.79-9 2-5.065 4.232-5.156 4.246-3.89.614.609-1.747.667-4.194.148-6.2-.684-2.637-.491-3.681.942-5.114 1.035-1.035 1.8-3.26 1.8-5.237 0-3.127.292-3.473 3.25-3.84 3.2-.397 3.192-.405-.5-.563-3.704-.158-3.75-.113-3.75 3.64 0 3.423-1.356 6.2-3.027 6.2-.345 0-.446-1.238-.226-2.75.655-4.494-6.278-12.437-8.175-9.366-.301.486.739 1.417 2.311 2.068 4.105 1.7 6.213 6.768 4.163 10.008-.79 1.249-1.226 1.187-3.009-.426-1.598-1.446-2.359-1.612-3.261-.71-1.634 1.634-3.776 1.471-3.776-.289 0-1.611 3.243-3.715 5.084-3.299.642.145 1.353-.24 1.581-.855.665-1.794-4.326-.414-6.27 1.735-1.45 1.603-1.549 2.475-.622 5.495.702 2.288.77 4.46.189 5.989-1.34 3.525-2.962 2.923-2.962-1.1 0-3.847-.783-4.169-5.851-2.402-1.846.644-3.149 1.792-3.149 2.777 0 2.452-2.852 6.125-4.757 6.125-1.278 0-1.376-.267-.443-1.2 1.541-1.541 1.544-6.276.006-8.739-.928-1.485-.923-2.508.019-4.577.939-2.061.942-2.573.013-2.263-.66.22-1.681 1.803-2.269 3.518-1.486 4.333-2.569 5.107-2.569 1.834 0-1.929-.609-2.919-2.022-3.289-1.684-.44-1.92-1.076-1.411-3.792.363-1.931.168-3.538-.477-3.936-.706-.437-1.09.542-1.09 2.778 0 4.276-2.52 5.715-3.459 1.975-.745-2.972-8.315-2.964-11.291.012-1.392 1.392-1.16 1.408 2.353.156 6.697-2.387 10.088-.568 6.197 3.323-.66.66-.772 1.2-.25 1.199.524 0 .789 2.319.592 5.169-.621 8.968.929 11.963 7.596 14.679 9.447 3.849 10.934 3.864 14.764.151 2.644-2.563 3.893-3.116 5.897-2.613 5.386 1.352 6.211 8.653 1.101 9.74l-3 .638 2.775.119c2.186.093 2.892.702 3.325 2.868.518 2.588.864 2.75 5.894 2.75 6.582 0 10.544 3.007 10.443 7.924-.063 3.045-.074 3.051-1.053.597-3.184-7.98-11.884-7.986-11.884-.009 0 7.071-2.888 2.046-3.068-5.338-.036-1.476-.321-1.596-1.488-.627-1.178.977-1.444.822-1.444-.843 0-4.411-2.781-6.985-4.515-4.179-.349.563-.263.96.191.881 2.103-.365 3.324.22 3.324 1.594 0 .825-.832 1.5-1.848 1.5-1.4 0-1.869.788-1.935 3.25-.072 2.629.1 2.916.897 1.5 1.668-2.962 4.146-2.209 3.431 1.044-.475 2.164-.058 3.315 1.851 5.109 2.805 2.635 4.289 9.086 2.713 11.795-.951 1.635-1.051 1.589-1.079-.498-.106-8.048-9.353-13.344-12.54-7.181-1.507 2.914-1.452 3.176 1.581 7.585 3.74 5.435 4.759 11.018 2.537 13.896-1.479 1.916-1.546 1.852-1.576-1.527-.049-5.359-6.352-13.024-10.532-12.805-1.713.089-1.678.166.25.538 2.741.528 2.998 2.294.334 2.294-1.054 0-3.342 1.8-5.084 4-2.068 2.612-3.92 3.96-5.334 3.884-1.711-.092-1.796-.213-.403-.576 3.213-.838 5.672-7.506 3.827-10.381-2.294-3.577-3.327-4.002-5.795-2.385-3.46 2.268-4.887 1.717-2.403-.928 1.752-1.864 2.113-3.12 1.654-5.75-.324-1.85-.187-3.971.303-4.712 1.202-1.821 4.546-1.056 4.968 1.136.19.989-.189 1.643-.864 1.488-.661-.152-1.424.329-1.693 1.07-.323.885.148 1.224 1.375.991 3.428-.65 2.61-10.837-.87-10.837-.867 0-.858.307.035 1.2 1.44 1.44 1.605 3.168.221 2.313-1.749-1.081-5.021 1.47-5.021 3.915 0 1.297-.712 2.631-1.582 2.965-2.38.914-2.464.801-1.299-1.754.824-1.81.72-3.05-.449-5.31-.991-1.917-1.205-3.451-.612-4.388 1.213-1.918 1.183-3.941-.058-3.941-.55 0-1 1.115-1 2.477 0 2.556-3.516 5.648-6.785 5.967-3.605.351-7.251 2.808-6.145 4.14 1.256 1.514-.632 8.808-2.732 10.55-1.087.903-1.338.174-1.338-3.887 0-4.797-.125-5.022-3.125-5.622-5.298-1.06-12.682-.743-10.625.455 1.041.606 1.75 2.215 1.75 3.97 0 3.331-.492 3.601-2.643 1.45-3.463-3.463-5.948-.021-3.182 4.408 1.654 2.649-.04 7.902-3.343 10.368-3.678 2.746-10.128 2.901-10.664.256-.345-1.703-.183-1.789 1.204-.639 2.355 1.955 6.349.548 8.11-2.858 2.653-5.13.64-7.035-7.431-7.035-4.246 0-6.175-.455-7.179-1.692-.801-.988-.877-1.395-.183-.978 4.854 2.911 13.141-3.125 10.388-7.566-.592-.955-1.113-2.53-1.156-3.5-.047-1.047-.284-1.256-.583-.514-1.017 2.52-9.338.751-9.338-1.985 0-.867.307-.858 1.2.035 2.476 2.476 12.8-3.704 12.8-7.663 0-.291 1.192-2.249 2.649-4.351 1.456-2.102 2.412-4.058 2.124-4.347-.289-.288-1.472 1.081-2.629 3.042-2.132 3.612-4.654 5.343-5.929 4.068-.384-.385.085-1.138 1.043-1.674 4.322-2.418 1.231-10.538-3.553-9.337-1.386.348-2.782.146-3.154-.455-.417-.675.199-.987 1.641-.832 2.182.235 2.324-.119 2.604-6.501.279-6.366-.938-9.138-2.086-4.75-.795 3.042-3.543 2.577-2.955-.5.346-1.806.043-2.5-1.089-2.5-.862 0-1.976-.732-2.476-1.626-.762-1.36-1.019-1.192-1.577 1.031-1.155 4.602-12.613 9.356-12.613 5.234 0-.911.823-1.204 2.488-.886 2.875.55 4.064-1.416 3.124-5.163-.454-1.809-1.102-2.275-2.615-1.879-1.106.289-3.47-.082-5.254-.826l-3.243-1.351 3-.649 3-.648-3.128-.119c-4.728-.179-7.443-5.118-2.813-5.118.793 0 1.441-.45 1.441-1s-.638-1-1.418-1-2.153-.282-3.051-.626c-1.348-.518-1.515-.159-.958 2.061.553 2.201.29 2.788-1.449 3.243-2.269.593-3.256 8.769-1.147 9.489.538.183 1.245 1.908 1.572 3.833.561 3.305.507 3.392-.977 1.559-1.509-1.864-1.572-1.819-1.572 1.127 0 1.688.675 3.629 1.5 4.314 1.977 1.641 1.902 4.963-.181 8.027l-1.681 2.473 2.252-1.969c6.319-5.526 23.742 3.861 20.605 11.102-.699 1.613-.89 1.473-1.402-1.027-1.339-6.538-9.266-8.492-10.449-2.576-.783 3.914-2.261 3.779-3.064-.28-.649-3.282-3.58-8.146-3.58-5.941 0 .655-.648 1.191-1.441 1.191s-1.693.408-2.001.907c-.309.498.289.684 1.328.413 2.637-.69 3.35.997 1.736 4.107-1.162 2.241-1.151 3.261.076 6.822 1.717 4.984.989 10.182-1.754 12.531-1.649 1.412-1.944 2.986-1.944 10.36v8.695l3.75 1.833c2.063 1.007 3.903 2.656 4.089 3.663.318 1.718.187 1.732-2.109.228-5.159-3.38-5.442-2.334-5.649 20.862l-.191 21.311 7.743 7.134c4.258 3.924 8.108 7.134 8.554 7.134.447 0 .813.45.813 1 0 2.177-3.318.79-7.793-3.259-2.589-2.342-5.719-5.112-6.957-6.155l-2.25-1.896v9.174 9.174l2.75-.607c1.513-.334 6.965-1.972 12.118-3.641 9.967-3.228 9.183-3.198 31.205-1.181 9.735.891 29.732-6.588 38.059-14.236 3.098-2.845 6.857-5.975 8.354-6.956l2.721-1.783-4.353-1.302c-2.395-.716-4.466-1.308-4.604-1.317-.138-.008-.25.83-.25 1.863 0 3.522-2.668 4.651-6.582 2.784-4.564-2.176-4.762-2.117-2.826.838.953 1.454 1.185 2.5.554 2.5-.596 0-.824.675-.508 1.5.43 1.119-.149 1.496-2.281 1.485-2.212-.012-2.518-.234-1.357-.985 1.293-.835 1.266-.971-.191-.985-2.801-.025-3.169-2.037-.927-5.07 1.165-1.575 2.118-3.52 2.118-4.321 0-.802.563-1.684 1.25-1.962.688-.277.125-.593-1.25-.701-3.143-.249-3.1-.253-5.5.612-1.64.592-1.776.48-.754-.622 3.674-3.961-38.503-12.337-42.417-8.423-1.904 1.904-2.966 1.862-3.737-.149-.478-1.246-.156-1.498 1.393-1.093 1.315.344 2.015.038 2.015-.88 0-.773.45-1.406 1-1.406s1-.375 1-.833c0-.459-.675-.834-1.5-.834s-1.5.375-1.5.834c0 .458-.873.833-1.941.833s-2.219.45-2.559 1c-.833 1.347-3.5 1.276-3.5-.094 0-.601.869-1.32 1.931-1.598 2.563-.67 3.411-3.096 1.268-3.626-3.675-.911-7.764-.704-6.199.313.825.536 1.162 1.038.75 1.115s-1.2.253-1.75.39-1.675.306-2.5.375-1.5.8-1.5 1.625-.787 1.464-1.75 1.421-1.213-.297-.556-.565c.656-.267.948-1.125.648-1.907-.341-.889.393-1.778 1.959-2.373 1.378-.524 2.847-1.507 3.266-2.184.539-.872.243-1.033-1.014-.551-1.28.492-1.624.287-1.234-.731.489-1.274-2.451-3.024-4.569-2.718-.413.059-.743-.904-.735-2.142.011-1.531.274-1.843.824-.977.444.701 1.732 1.452 2.861 1.669 1.129.218 4.041 1.301 6.469 2.407 13.074 5.956 65.313 21.151 72.715 21.151 2.005 0 5.376.927 7.491 2.061 9.123 4.889 19.255.559 34.125-14.585 5.5-5.601 12.538-12.066 15.639-14.367 5.562-4.125 7.161-6.073 14.202-17.311 6.506-10.384 14.878-11.641 22.583-3.393 1.334 1.427 3.494 2.595 4.8 2.595s3.643.656 5.192 1.457c1.55.801 5.571 1.9 8.936 2.442 7.463 1.202 8.059 1.531 12.283 6.79 11.907 14.822 15.089 18.239 22.206 23.841 12.286 9.672 23.189 15.34 31.513 16.385 6.467.813 7.268 1.198 11.905 5.728 16.829 16.439 29.094 24.113 40.604 25.403 3.954.444 9.652 1.796 12.663 3.004 3.011 1.209 6.824 2.346 8.474 2.527s9.075 1.248 16.5 2.371c13.038 1.973 38.76 2.849 42.418 1.445 1.329-.51 1.582-2.663 1.582-13.47v-12.862l-3.5.131c-2.191.083-3.5.633-3.5 1.47 0 .736-.675 1.338-1.5 1.338s-1.536.788-1.579 1.75c-.047 1.045-.282 1.247-.583.5-.826-2.047-2.194-1.417-1.628.75.396 1.512.031 2-1.495 2-1.731 0-2.122-.887-2.742-6.231l-.723-6.232-2.698 3.232c-3.428 4.105-4.052 4.059-4.052-.304 0-3.143-.208-3.424-1.869-2.535-1.027.55-2.186.682-2.575.293-.388-.388-1.145.077-1.681 1.035s-1.572 1.742-2.303 1.742c-.73 0-2.078 1.012-2.994 2.25l-1.666 2.25.625-3 .626-3-2.396 2.25c-3.103 2.914-3.581 2.836-3.063-.5.416-2.675.383-2.695-1.181-.75-.885 1.1-2.04 2-2.566 2s-1.07.344-1.207.764c-.344 1.05 5.028 3.736 7.471 3.736 1.379 0 1.812.472 1.405 1.532-.38.991.2 1.84 1.643 2.403 3.185 1.244 9.142 7.693 7.846 8.494-1.073.663-15.336-6.159-15.948-7.629-.184-.44-1.196-.8-2.25-.8s-1.917-.45-1.917-1-.83-1-1.845-1-2.66-.9-3.655-2-2.429-2-3.186-2-1.636-.675-1.952-1.5c-.317-.825-1.004-1.5-1.528-1.5s-.631.52-.239 1.155c.443.715.275.883-.44.44-.635-.392-1.155-1.266-1.155-1.941 0-.676-.972-1.302-2.16-1.391-1.188-.09-2.426-.556-2.75-1.036-.325-.48-1.49-1.247-2.59-1.705-1.698-.706-1.75-.892-.348-1.231.908-.22 3.383.366 5.5 1.301 2.116.936 4.469 1.829 5.229 1.986.759.156 1.824.727 2.367 1.27.648.648 2.155.33 4.4-.931 1.877-1.054 4.011-1.917 4.742-1.917.73 0 3.304-1.734 5.719-3.853 2.415-2.12 5.741-4.55 7.391-5.4 1.65-.851 6.586-5.192 10.97-9.647 4.383-4.455 8.632-8.1 9.441-8.1 1.082 0 .958.389-.47 1.47-1.76 1.333-1.644 1.361 1.242.306 2.885-1.055 3.373-.935 5.216 1.28 1.119 1.344 2.049 2.022 2.068 1.507.018-.515 1.383.356 3.033 1.937s3 2.431 3 1.89c0-1.508-7.532-8.524-8.313-7.744-.378.378-.687.215-.687-.363 0-4.419-9.014-1.576-12.898 4.068-1.77 2.573-7.003 7.321-12.338 11.195-5.095 3.7-9.989 7.629-10.874 8.731-4.216 5.246-19.285 1.941-35.286-7.74-5.933-3.59-9.864-5.374-10.934-4.964-1.11.426-1.67.13-1.67-.884 0-1.711-5.852-5.689-8.368-5.689-.898 0-1.65-.562-1.672-1.25-.066-2.074-12.368-8.717-14.912-8.052-1.89.494-2.171.226-1.884-1.801.284-2.012-.32-2.61-3.881-3.847-2.319-.806-4.344-2.021-4.5-2.7-.505-2.203-18.184-14.316-19.006-13.023-.708 1.112-1.239-.446-.888-2.6.07-.426-1.227-1.045-2.881-1.375-2.001-.401-3.008-1.202-3.008-2.394 0-.985-.429-1.941-.952-2.125-2.538-.888-15.41-12.617-19.11-17.414-2.3-2.98-4.801-5.419-5.56-5.419-.779 0-1.378-1.019-1.378-2.346 0-1.291-.737-3.823-1.637-5.628-12.848-25.755-1.912-71.713 18.781-78.926l3.229-1.126-2.291 2.439c-2.743 2.92-2.114 4.507 1.513 3.814 1.654-.317 3.793-2.137 5.716-4.866 3.44-4.88 6.417-5.587 11.8-2.804 3.77 1.95 3.862 6.734.139 7.263-2.772.393-2.996 2.18-.273 2.18 2.539 0 5.281-4.123 4.394-6.609-1.49-4.176-3.524-5.391-9.026-5.391-4.398 0-5.357-.31-5.412-1.75-.038-.963-.664.471-1.393 3.185-1.288 4.8-3.566 7.565-6.231 7.565-.828 0-.538-.771.789-2.098 1.539-1.539 1.928-2.804 1.46-4.75-.351-1.459-.695-3.214-.765-3.902-.182-1.802-1.502-1.541-3.793.75-1.1 1.1-2.919 2-4.042 2-1.709 0-1.384-.626 2-3.845 3.118-2.967 4.042-4.594 4.042-7.123 0-2.822.211-3.101 1.524-2.012.838.696 1.838.951 2.221.568 2.433-2.433-4.874-3.205-8.409-.889l-2.594 1.7 1.602-3.097c1.503-2.907 1.941-3.094 7.138-3.053 6.781.053 9.981-2.185 9.139-6.394-.363-1.817.121-3.529 1.493-5.273 2.231-2.836 1.005-3.558-1.607-.946-1.004 1.003-1.528 2.895-1.357 4.888.155 1.789-.321 3.978-1.057 4.864-2.075 2.501-3.182 1.901-1.858-1.005 1.027-2.254.92-2.845-.771-4.25-1.367-1.136-1.87-2.605-1.655-4.827.327-3.375-3.348-6.419-7.509-6.22-1.141.054-.821.381.872.893 5.016 1.514 5.53 2.398 1.832 3.154-2.049.419-4.004.282-4.744-.333-1.636-1.357-1.756 1.304-.133 2.927 1.591 1.591.252 6-2.224 7.325-2.416 1.293-3.646.565-2.161-1.278 3.548-4.4-3.426-8.019-9.342-4.848-5.503 2.949-8.767 2.796-4.316-.203 8.611-5.803 3.222-20.165-5.536-14.753-3.436 2.124-6.548 2.186-6.548.131 0-.529.997-1.106 2.217-1.281 3.277-.473 5.662-5.183 3.984-7.87-2.991-4.79 1.757-7.992 5.822-3.927 1.576 1.576 1.797 2.445 1 3.934-1.406 2.627-1.3 3.043.777 3.043 4.046 0 6.433-10.929 2.7-12.362-.825-.316-1.5-1.066-1.5-1.666 0-.599.45-.812 1-.472.592.366.984-.731.961-2.691l-.039-3.309-1.362 3.13c-.75 1.721-1.857 3.435-2.461 3.809-1.74 1.075-1.279 2.561.794 2.561 3.223 0 4.306 5.76 1.518 8.074-1.329 1.103-1.555 1.082-1.381-.128.52-3.628-.276-5.095-3.632-6.696-3.908-1.864-4.168-1.724-8.102 4.381-1.058 1.642-1.148 1.505-.738-1.131.626-4.03-1.825-7.353-4.059-5.5-1.372 1.139-1.452 1.005-.659-1.101 1.195-3.17-.041-6.203-3.512-8.623-5.48-3.82-10.352-3.782-10.298.081.028 1.936.129 1.974 1.05.393 1.371-2.353 5.066-2.209 8.285.323 3.448 2.712 3.36 4.027-.179 2.691-4.391-1.657-7.065 1.131-6.436 6.712.542 4.808-1.198 7.032-2.075 2.651-.394-1.97-1.53-3.238-3.708-4.141-2.485-1.029-3.049-1.776-2.704-3.583.309-1.615-.837-3.836-3.913-7.586-4.892-5.964-4.936-6.086-2.82-7.842 2.53-2.1 6.695.348 6.29 3.698-.593 4.912 3.591 3.848 4.653-1.183l.631-2.99-1.584 2.75c-1.86 3.23-2.975 3.597-2.226.732 1.041-3.98-5.977-6.899-9.094-3.782m96.8 5.678c0 7.389-1.846 9.555-5.344 6.269-1.366-1.284-3.465-2.099-5.22-2.029-2.835.115-2.85.14-.436.75 1.375.348 3.782 1.5 5.348 2.561 2.2 1.491 3.244 1.682 4.59.842 1.064-.664 2.29-.74 3.151-.195.776.492 2.623.9 4.104.909 5.451.031 13.854 6.112 13.707 9.92l-.099 2.595-.692-2.485c-2.091-7.508-9.2-6.13-10.375 2.01-.894 6.202-1.906 7.707-5.557 8.266-1.53.234-.602.474 2.165.559 3.148.098 5.732.85 7.385 2.15 3.076 2.419 6.383 2.523 12.629.395 2.664-.908 6.109-1.363 7.928-1.048 7.94 1.378 9.691 1.997 11.707 4.144 1.983 2.11 2.366 2.177 4.98.873 2.58-1.286 3.23-1.201 7.292.959 2.453 1.304 5.422 2.623 6.598 2.931 1.326.346 2.139 1.355 2.139 2.652v2.094l-2.099-2.099c-1.454-1.454-2.983-1.969-4.976-1.677-1.582.232-3.078-.061-3.324-.651-.279-.666-.841-.507-1.483.419-.824 1.188-1.288 1.238-2.276.25-.683-.683-2.135-1.242-3.228-1.242-1.092 0-3.004-.957-4.249-2.127-2.191-2.058-5.365-2.02-5.365.064 0 .55.642.754 1.426.453.842-.323 2.135.536 3.159 2.1 1.293 1.973 2.301 2.504 3.96 2.088 1.36-.341 2.722.039 3.501.977.701.845 1.877 1.305 2.614 1.022.84-.322 1.34.22 1.34 1.454 0 1.083.45 1.969 1 1.969s1-1.098 1-2.441c0-4.577 4.772-4.55 6.863.039 1.504 3.301 3.551 2.609 3.944-1.333.542-5.452-12.995-12.375-18.47-9.446-1.53.819-2.184.656-3.072-.766-.62-.993-2.396-2.035-3.946-2.315-1.551-.28-4.268-1.104-6.04-1.832-2.784-1.143-3.888-1.082-8.148.45-6.464 2.324-10.238 2.35-15.215.106l-4.086-1.842.684-4.56c1.326-8.845 5.316-11.105 8.05-4.56 1.664 3.982 2.952 4.46 3.754 1.393 1.286-4.919-4.412-11.226-11.174-12.369-6.785-1.146-12.918-12.423-7.513-13.812 1.553-.399 1.489-.5-.381-.596-2.091-.108-2.25.299-2.25 5.762m-103.25-3.803c1.692 1.793 1.74 4.815.05 3.125-1.663-1.663-5.305-1.502-6.8.3-1.368 1.648-.301 1.977 1.898.584.935-.592 2.077-.253 3.445 1.021 1.184 1.103 2.418 1.534 2.93 1.022 1.351-1.351.421-6.414-1.273-6.925-1.211-.365-1.259-.196-.25.873m53.212 4.513c-1.944 4.535-2.009 4.58-5.793 3.941-2.612-.442-4.17-.232-4.909.662-.865 1.045-.244 1.285 3.078 1.189 6.479-.186 8.662-1.237 8.662-4.168 0-1.405.745-3.377 1.655-4.383 1.045-1.154 1.216-1.829.464-1.829-.654 0-2.075 2.064-3.157 4.588m43.885-2.519c.604.863 1.767 3.113 2.586 5 1.178 2.715 1.497 2.973 1.528 1.237.021-1.207-1.142-3.457-2.586-5-1.443-1.543-2.131-2.1-1.528-1.237m-13.341 3.246c-2.884 4.693-2.884 4.685-.145 4.685 2.398 0 9.348-4.902 7.044-4.968-.602-.018-1.91.868-2.905 1.968-2.926 3.234-4.64 2.588-2.819-1.062 2.068-4.145 1.253-4.577-1.175-.623m-46.306-1.115c-1.507 1.507-1.569 6.454-.093 7.366.769.476.898-.267.422-2.436-.6-2.73-.363-3.243 1.893-4.1 1.418-.539 2.578-1.217 2.578-1.505 0-1.018-3.615-.51-4.8.675m17.8.907c0 .609.662.853 1.471.542 2.496-.957 4.602 2.029 3.491 4.95-2.421 6.369.653 9.035 3.633 3.151.905-1.788 2.337-4.038 3.181-5 1.015-1.158 1.132-1.75.345-1.75-.654 0-2.118 1.575-3.254 3.5-2.439 4.134-3.141 4.44-2.276.993.79-3.146-1.887-7.493-4.614-7.493-1.087 0-1.977.498-1.977 1.107m-82.371 9.549c.688 2.743.655 2.771-1.132.984-1.419-1.419-2.718-1.7-5.669-1.229-2.318.371-3.828.214-3.828-.399 0-.557-.685-1.012-1.523-1.012-1.349 0-1.343.275.054 2.407.961 1.467 1.194 2.645.595 3.015-.54.334-1.238-.199-1.551-1.184-.983-3.1-11.575-1.234-11.575 2.039 0 .568.858.257 1.906-.692 3.821-3.458 8.633-1.781 8.369 2.915-.187 3.318-.065 3.616.717 1.75.519-1.237 1.633-2.25 2.476-2.25.842 0 1.532-.828 1.532-1.839 0-3.123 5.156-4.812 6.859-2.247 2.035 3.066 4.141 2.631 4.141-.855 0-1.618-.468-3.23-1.04-3.584-.685-.423-.798.322-.331 2.181m33.121-.084c-1.512.821-2.75 2.153-2.75 2.96 0 2.218-1.773 1.759-2.54-.657-.818-2.578.866-3.854 5.04-3.82l3 .025zm84.75-.572c-.34.55.253 1 1.319 1 3.965 0 5.271 5.387 2.726 11.25-1.582 3.646 2.33 1.677 6.455-3.25 2.318-2.768 3.587-4.999 2.843-4.997-.739.001-2.243 1.658-3.343 3.682-2.492 4.586-5.035 5.853-3.467 1.727 1.513-3.979.272-8.345-2.691-9.472-3.06-1.163-3.086-1.163-3.842.06m-100.873 3.706c-1.292 1.292-.553 2.002 1.645 1.582 2.855-.545 7.728 3.139 7.728 5.844 0 1.246-.43 1.72-1.155 1.273-.715-.443-.883-.275-.44.44 1.136 1.84 3.595 1.337 3.595-.734 0-3.664-9.266-10.511-11.373-8.405m115.833 4.641c1.277.934 1.489 1.566.691 2.059-1.574.974-1.453 5.099.191 6.463 1.776 1.474 2.658.444 2.658-3.101 0-3.779-1.646-6.768-3.726-6.768-1.449 0-1.426.168.186 1.347m-153.46.347c3.13 1.119 5.697 7.306 3.031 7.306-.532 0-.737-.603-.454-1.34.83-2.163-2.142-3.813-6.257-3.475-3.083.254-3.882.749-4.14 2.565-.39 2.753-.7 2.772-3.907.25-3.636-2.86-4.927-2.477-1.579.468 1.877 1.652 2.309 2.484 1.306 2.516-1.295.04-1.302.172-.054.962 2.187 1.383 5.054-.625 5.054-3.542 0-4.271 7.073-3.114 8.221 1.346.955 3.712 2.341 4.206 3.302 1.178 1.355-4.269-1.057-8.981-4.523-8.834-1.333.057-1.333.123 0 .6m105.98 10.83c-1.91 2.302-.489 2.856 2.426.946 1.505-.987 3.31-1.403 4.336-1.001 1.466.575 1.177 1.017-1.742 2.665-2.801 1.582-3.001 1.868-1 1.435 1.375-.298 3.512-.548 4.75-.555 2.636-.016 2.878-1.243.679-3.443-2.007-2.006-7.799-2.035-9.449-.047m-105.73 1.192c1.513.229 3.987.229 5.5 0s.275-.416-2.75-.416-4.263.187-2.75.416m127.417 1.951c-1.46 1.459-.55 2.277 1.269 1.141 4.027-2.515 15.534 5.018 17.86 11.692.735 2.109 1.057 2.406 1.083 1 .13-7.01-15.998-18.048-20.212-13.833m-23.819 6.793c-1.431 3.157-1.416 3.287.253 2.245 1.914-1.196 3.162-4.425 1.989-5.15-.398-.245-1.406 1.062-2.242 2.905m24.551.087c-.352 1.4-.398 2.787-.104 3.081s-.108 2.073-.894 3.954c-.85 2.036-1.018 3.418-.414 3.418.557 0 1.013-.752 1.013-1.671s.737-2.486 1.638-3.482c1.348-1.489 1.411-2.083.358-3.352-1.4-1.687-1.395-1.698 1.504-3.317 1.947-1.087 1.941-1.118-.231-1.148-1.569-.021-2.42.725-2.87 2.517m25.101-.056c.55.184 2.238.607 3.75.941 2.234.492 2.75 1.154 2.75 3.528 0 3.434 1.497 4.703 3.544 3.004 1.555-1.291 2.075-7.465.55-6.522-.498.308-.684 1.409-.413 2.446.271 1.038.004 2.189-.594 2.558-.643.398-1.087-.139-1.087-1.316 0-2.957-2.732-5.14-6.321-5.051-1.749.043-2.729.229-2.179.412m-182.277 2.066c-1.223.856-2.223 2.272-2.223 3.146 0 1.184.6.942 2.35-.947 1.793-1.934 3.014-2.409 5.149-2.001 1.948.372 2.583.187 2.091-.61-1.006-1.627-4.757-1.417-7.367.412m10.931 1.15c.848.986 1.846 2.645 2.218 3.686.371 1.041.906 1.662 1.189 1.379.856-.856-1.724-5.621-3.39-6.26-1.406-.539-1.408-.422-.017 1.195m168.846 4.793c-1.014 2.668-3.806 3.294-5.8 1.3-.933-.933-1.2-.815-1.2.531 0 2.957 2.871 3.02 7.195.158 3.946-2.611 4.21-2.656 5.476-.925 1.859 2.543 1.656 6.134-.421 7.423-1.6.993-1.578 1.061.25.791 2.688-.397 3.396-7.739.98-10.155-2.415-2.415-5.381-2.013-6.48.877m47.25-.838c-.687.278-1.221 1.48-1.187 2.671.064 2.167.064 2.167.968-.083 1.376-3.423 4.969-2.036 4.969 1.919 0 1.161.515 1.571 1.5 1.193.825-.317 1.5-1.278 1.5-2.136 0-.857-.297-1.262-.66-.899s-1.289-.237-2.057-1.333c-1.384-1.977-2.623-2.304-5.033-1.332m-25.678 2.258c-1.035 1.144-1.389 2.08-.786 2.08s1.374-.45 1.714-1c2.295-3.713 9.731.594 8.828 5.112-.869 4.345 2.268 3.791 4.159-.734 1.864-4.461 1.92-6.378.186-6.378-.893 0-1.188.942-.904 2.882.233 1.584-.07 3.186-.673 3.559-.648.4-1.096-.101-1.096-1.227 0-4.711-8.246-7.809-11.428-4.294m-10.372 5.28c-2.087 2.087-1.296 3.197.877 1.231 1.969-1.783 2.227-1.793 5.014-.193 2.857 1.639 2.909 1.631 1.889-.276-1.188-2.219-5.865-2.677-7.78-.762m11.544.3c1.259 2.577-1.384 9.701-2.768 7.461-.714-1.155-.989-1.091-1.546.36-.883 2.302.25 3.371 2.241 2.115 3.088-1.948 4.864-8.342 2.85-10.263-1.65-1.574-1.697-1.554-.777.327m24.891-.009c1.019 2.655 7.78 4.032 10.486 2.137 5.37-3.762 17.879-.735 17.879 4.327 0 1.691-1.422 1.201-2.768-.955-1.478-2.367-5.046-2.647-5.885-.463-1.073 2.797 2.702 5.717 6.576 5.088 5.402-.877 12.077 3.992 12.077 8.809 0 .861-.45 1.566-1 1.566s-1-.597-1-1.326c0-4.105-8.845-7.322-12.966-4.716-.93.588-1.937.538-2.75-.138-.996-.826-1.284-.399-1.284 1.903 0 1.632-.841 3.728-1.868 4.658-1.783 1.613-1.846 1.574-1.384-.843.7-3.663-2.159-7.547-5.521-7.499l-2.727.039 3.25 1.413c4.022 1.748 4.209 3.509.372 3.509-1.582 0-3.495.753-4.25 1.673-1.444 1.762-1.544 1.757 3.936.199 3.075-.874 5.602 13.713 2.782 16.054-1.18.979-1.4.428-1.342-3.374.121-8.029-4.268-10.757-8.915-5.541l-2.683 3.011-1.25-3.636c-2.137-6.216-4.937-7.037-7.48-2.192-1.182 2.251-1.163 2.263.79.532 1.14-1.011 2.708-1.503 3.645-1.143 1.94.744 2.18 3.033.395 3.758-.941.381-.879.773.25 1.583 1.229.881 1.259 1.232.166 1.937-1.721 1.111 1.073 2.368 3.334 1.501 1.089-.418 1.5.115 1.5 1.948 0 1.388-.562 2.75-1.25 3.028-.797.321-.661.533.375.583 1.625.079 2.875-3.59 2.875-8.439 0-2.671 2.656-4.012 4.657-2.352 1.185.984 1.087 1.46-.627 3.056-1.998 1.862-2.874 4.454-1.143 3.384 1.336-.826 3.232 1.955 2.548 3.738-.469 1.224.12 1.558 2.733 1.544 5.106-.026 9.933 1.247 10.518 2.773.291.756 1.076 1.375 1.747 1.375 3.783 0 6.787 6.743 4.025 9.035-1.704 1.414-.403 3.667 1.455 2.519 5.209-3.219-1.659-13.836-10.404-16.085-2.43-.625-3.898-1.549-3.727-2.347.156-.725.527-3.411.825-5.969 1.111-9.543 5.339-15.153 11.42-15.153 2.52 0 7.973 5.134 7.973 7.506 0 3.383 2.511.702 2.821-3.011.312-3.745-2.479-7.616-8.075-11.197-.685-.439-2.076-2.433-3.091-4.432-2.161-4.256-10.5-5.959-15.855-3.238-3.556 1.807-8.245 1.746-9.8-.128-1.604-1.933-3.106-1.939-2.365-.009m-41.885 3.225c-2.937.445-3.884 3.284-1.095 3.284 1.488 0 1.473.201-.155 2-.995 1.1-1.317 2-.714 2s1.374-.45 1.714-1c.962-1.557 4.219-1.176 4.889.572 1.309 3.411-4.663 9.181-6.501 6.281-.582-.918-.913-.228-1.031 2.147-.257 5.175.085 7.46 1.172 7.833.534.184.971 2.616.971 5.405v5.072l2.107-1.905c1.159-1.048 2.8-3.636 3.647-5.751 1.402-3.5 1.803-3.793 4.473-3.259 2.083.417 2.816.227 2.526-.654-1.155-3.518-5.634-1.899-8.156 2.947-1.671 3.211-2.519 4.134-2.55 2.773-.026-1.121-.882-3.675-1.902-5.676-2.341-4.592-1.391-6.674 2.283-5 1.415.645 2.572.834 2.572.421 0-1.412 6.587-4.302 8.304-3.643 2.105.808 3.13 4.519 2.339 8.474-.651 3.254-.415 3.447 2.389 1.946 2.897-1.55 4.326-8.065 2.529-11.529-.993-1.914-1.152-3.35-.503-4.563.603-1.126.593-1.989-.026-2.371-1.504-.93-2.478 4.537-1.178 6.617 1.681 2.693 1.397 7.414-.541 8.991-1.483 1.206-1.605 1.153-1.01-.434 2.193-5.847-5.313-11.912-9.673-7.816-1.242 1.167-3.13 2.093-4.194 2.059-1.725-.057-1.694-.161.284-.957 3.659-1.473 3.826-11.98.19-11.98-.466 0-.588-.675-.272-1.5.317-.825.415-1.433.219-1.35-.196.082-1.595.337-3.107.566m33.5.946c-2.44.985-1.202 1.985 1.894 1.53 2.46-.361 3.533.055 4.932 1.908.983 1.304 2.068 2.089 2.411 1.746 2.171-2.171-5.724-6.601-9.237-5.184m-55.169 3.74c-.96 1.157-.595 1.375 2.092 1.25 2.373-.111 3.352.322 3.614 1.598.221 1.077-.245 1.75-1.214 1.75-.865 0-1.573.45-1.573 1s.675 1 1.5 1c1.776 0 1.848.482.457 3.081-1.646 3.074 1.609 3.676 4.614.852 2.316-2.175 2.576-2.215 4.154-.636 1.579 1.578 1.562 1.776-.27 3.161-1.13.855-1.42 1.492-.686 1.51.851.022 1.062.855.642 2.532-.345 1.375-.324 2.5.046 2.5 1.431 0 4.543-2.12 4.543-3.094 0-.563-.45-.746-1-.406-.575.355-1.006-.576-1.014-2.191-.021-4.337-1.079-7.309-2.603-7.309-1.938 0-1.724-1.702.367-2.92 1.576-.918 1.534-1.022-.421-1.05-1.598-.022-2.34.743-2.814 2.901-1.023 4.66-3.566 6.156-2.838 1.67 1.004-6.187-4.28-11.195-7.596-7.199m55.919 3.539c0 4.706-1.526 6.177-2.315 2.232-1.122-5.606-10.685-5.988-10.685-.427 0 1.375.297 1.275 1.557-.523 1.953-2.789 5.449-2.915 6.153-.223.288 1.1.937 2 1.442 2 .518 0 .467.844-.117 1.934-.569 1.064-1.035 2.189-1.035 2.5 0 .822 4.323.665 5.5-.199 1.246-.916 1.602-11.235.388-11.235-.489 0-.888 1.773-.888 3.941m18.75 20.648c0 2.297-.169 2.421-1.493 1.096-.822-.821-1.189-1.986-.816-2.589 1.183-1.914 2.309-1.185 2.309 1.493m-46.908.858c-.857 1.882-.752 3.888.457 8.687 1.077 4.277 1.266 6.809.601 8.053-1.527 2.854-2.535 2.125-2.109-1.525.792-6.784-4.292-8.485-10.95-3.662-5.012 3.631-6.652 3.902-3.296.545 2.883-2.882 3.14-6.578.739-10.641-1.955-3.31-2.542-3.503-4.284-1.404-.685.825-2.652 1.507-4.372 1.515-2.181.011-2.709.281-1.744.892.784.497 2.688.503 4.392.014 6.844-1.963 9.335 7.624 2.593 9.975-3.421 1.192-3.418 3.427.005 3.929 1.444.213 3.596-.92 6.174-3.25 5.999-5.419 10.899-3.362 8.867 3.722-1.268 4.422.358 5.521 3.508 2.371 3.072-3.073 3.403-7.869.902-13.112-1.586-3.325-1.577-3.62.155-5.534 4.167-4.604 10.039-.97 9.054 5.601-.599 3.995-.472 4.377 1.456 4.377 3.409 0 6.868-10.734 4.025-12.491-.602-.372-.768.479-.427 2.191.621 3.12-.978 8.3-2.563 8.3-.564 0-1.025-1.774-1.025-3.943 0-6.685-9.561-10.31-12.158-4.61m20.193 5.826c1.41 2.429 2.005 4.737 1.672 6.481-.486 2.54-.431 2.589.892.779 1.738-2.376.97-5.251-2.279-8.533l-2.474-2.5zm-250.99 1.172c-1.045 1.26-.985 1.641.342 2.15 2.182.837 4.877-.303 4.363-1.846-.623-1.871-3.263-2.041-4.705-.304m42.526 2.126c-2.196 2.197-2.076 2.532 2.495 6.976l4.066 3.953-.316-4-.316-4 5.5-.614 5.5-.614-6.5.114c-6.144.108-6.487.239-6.256 2.396.213 1.991-.01 2.146-1.75 1.215-2.461-1.317-2.571-3.839-.244-5.605.963-.731 1.22-1.343.571-1.36-.648-.018-1.885.675-2.75 1.539m-46.571 2.464c0 1.12.701 3.106 1.559 4.414 1.909 2.914-1.393 4.758-4.27 2.384-1.366-1.128-1.539-1.103-1.125.167.583 1.784 4.719 2.418 6.834 1.047 1.312-.851 1.267-1.399-.362-4.424-1.023-1.899-1.557-3.941-1.189-4.538.369-.597.194-1.085-.388-1.085s-1.059.916-1.059 2.035m274.25-1.373c-.687.278-1.221 1.705-1.187 3.171.06 2.516.113 2.545.936.505 1.09-2.705 4.29-3.789 6.963-2.358 2.736 1.464 2.58 3.02-.301 3.02-2.447 0-4.661 3.337-4.661 7.024 0 2.141 3.048 4.401 7.25 5.376 7.242 1.68 1.433 2.691-6.5 1.131-1.872-.368-2.466 1.064-.688 1.656.742.248.723 1.248-.062 3.313-1.377 3.623-2.867 4.642-5.065 3.465-1.669-.893-2.935-.375-2.935 1.202 0 .458 1.505.833 3.345.833 3.578 0 6.655-2.478 6.655-5.36 0-4.518 5.538-2.952 8.062 2.28 1.404 2.909 1.7 3.072 2.917 1.605 2.52-3.036 1.668-7.549-1.99-10.534-3.233-2.639-3.276-2.767-1.287-3.831 1.131-.606 2.789-2.93 3.683-5.164 1.863-4.656 3.942-5.88 6.402-3.769 3.621 3.106 4.849 3.395 3.099.73-1.129-1.719-2.706-2.55-5.25-2.767-2-.171-3.636-.734-3.636-1.25 0-.517-.691-.94-1.535-.94-1.24 0-1.323.396-.434 2.059 1.399 2.613.324 7.681-1.88 8.86-1.469.786-1.64.411-1.323-2.912.574-6.016-4.735-9.702-10.578-7.345m-14.25 2.838c-1.292 1.375-2.945 2.5-3.674 2.5s-1.326.45-1.326 1 .648 1 1.441 1 1.719-.45 2.059-1c1.303-2.108 5.439-1.089 6.089 1.5.879 3.5-.35 7.625-2.434 8.17-2.449.64-4.178 3.682-3.08 5.419.742 1.176 1.55 1.037 4.856-.839 5.465-3.101 7.069-2.931 7.069.75 0 1.65.45 3 1 3 1.407 0 1.249-5.351-.2-6.8-1.644-1.644-4.301-1.506-5.8.3-2.542 3.063-4.175 1.656-1.803-1.553 2.915-3.942 3.093-10.531.339-12.544-1.855-1.357-1.844-1.403.332-1.403 1.245 0 1.974-.447 1.632-1-1.09-1.763-4.083-1.073-6.5 1.5m-282.5 2.725c-1.1.64-3.575 1.474-5.5 1.854l-3.5.691 3.639.115c2.288.072 4.516-.615 6-1.852 2.649-2.206 2.369-2.559-.639-.808m14.664 2.077c-1.067 1.285-.526 5.685.703 5.712.348.007 1.758.258 3.133.557 2.388.52 2.373.471-.35-1.098-2.198-1.266-2.745-2.195-2.389-4.058.53-2.773.395-2.91-1.097-1.113m73.836 1.704c-2.475 1.648-5.062 2.785-5.75 2.527-.687-.259-1.25-.034-1.25.498 0 1.003 1.404 1.355 4 1.003.825-.112 2.751-1.559 4.281-3.214 1.595-1.728 3.393-2.775 4.218-2.459.79.303 1.703.121 2.028-.405 1.255-2.031-3.237-.808-7.527 2.05m217.494-1.256c-.397.963-.953 2.559-1.237 3.548-.645 2.25-3.614 1.8-4.08-.618-.581-3.015.628-4.68 3.399-4.68 2.12 0 2.497.343 1.918 1.75m-237.717 1.807c1.223.856 2.216 2.093 2.208 2.75-.01.72-.4.598-.985-.307-.671-1.039-.974-1.108-.985-.225-.008.701-1.14 1.702-2.515 2.225s-2.5 1.61-2.5 2.416c0 2.332 1.72 2.761 2.293.573.31-1.186 1.365-1.989 2.613-1.989 2.248 0 2.915 2.56.847 3.249-.76.253-.338.903 1.078 1.66 2.775 1.486 5.169.791 5.169-1.5 0-1.357-.27-1.43-1.5-.409-.908.754-1.5.834-1.5.204 0-.572-.25-1.693-.557-2.491-.347-.906.215-1.652 1.5-1.988 1.132-.296 2.057-1.056 2.057-1.69s-.486-.853-1.08-.486-1.744-.281-2.557-1.441c-.812-1.159-2.451-2.108-3.642-2.108h-2.166zm24.183.895c1.281 1.543.539 5.548-1.027 5.548-.513 0-.933.45-.933 1 0 2.216 2.181.799 3.463-2.25 1.366-3.248.623-5.75-1.708-5.75-.572 0-.485.621.205 1.452m-107.512 1.822c-1.054 2.748-.027 5.212 2.312 5.546 1.232.175 2.24-.162 2.24-.75 0-.589-.955-1.07-2.122-1.07-1.8 0-1.928-.235-.843-1.542.948-1.143.989-1.834.155-2.668-.833-.833-1.285-.707-1.742.484m63.302.704c2.375 1.011 2.97 2.615 1.19 3.209-.687.229-.527 1.381.457 3.277 1.225 2.361 1.639 2.607 2.149 1.278.347-.905.271-2.23-.17-2.943s-.818-2.197-.839-3.298c-.026-1.392-.798-2.074-2.537-2.241-2.464-.237-2.467-.226-.25.718m-42.75 1.849c0 .455 1.35.628 3 .386s3 .013 3 .568c0 1.559 5.637 7.223 7.151 7.186.832-.021.491-.75-.887-1.9-1.231-1.026-2.682-3.036-3.226-4.466-.969-2.55-9.038-4.133-9.038-1.774m16.25.442c.222.677 1.607 1.373 3.077 1.547s2.673.675 2.673 1.112c0 1.045 4.864.101 5.599-1.087.323-.523-.486-.656-1.873-.308-1.352.339-4.101-.081-6.161-.941-2.676-1.118-3.606-1.209-3.315-.323m75.737 1.347c-5.32 2.846-6.711 2.941-9.274.634-1.864-1.677-1.93-1.666-1.571.25.503 2.688 5.687 3.157 10.038.907 1.819-.941 4.418-2.007 5.775-2.37 1.773-.474 2.049-.822.979-1.232-.82-.315-3.496.501-5.947 1.811m-62.327 2.109c-4.749.711-1.51 8.151 3.59 8.243 1.94.035 2.342 1.548.683 2.573-.586.363-1.599-.052-2.25-.922-.762-1.019-1.666-1.277-2.54-.725-1.918 1.21-.533 4.853 2.158 5.677 2.949.903 4.795 2.464 4.15 3.508-.29.469-2.079.112-3.976-.792-1.898-.905-3.722-1.374-4.054-1.042-1.393 1.393 1.019 5.041 4.216 6.377 1.894.791 3.167 1.886 2.829 2.433-1.139 1.843.705 7.07 3.696 10.477 3.817 4.347 3.741 9.561-.152 10.471-1.68.393-2.086.832-1.25 1.349 2.207 1.364 1.318 2.648-1.833 2.648-2.391 0-2.998.389-2.732 1.75.231 1.184 1.298 1.762 3.299 1.787 5.847.073 8.534-13.663 3.632-18.565-3.118-3.117-4.452-7.494-3.071-10.074 1.307-2.443 6.773-4.47 8.201-3.042 1.694 1.694 3.192 1.389 1.744-.356-1.512-1.822-4.489-1.854-8.5-.092-2.995 1.316-8.5-.383-8.5-2.624 0-1.13 1.42-.964 2.699.315 1.574 1.574 5.482.093 5.107-1.934-.169-.916-1.77-2.309-3.557-3.095-1.787-.787-3.242-2.137-3.234-3 .013-1.255.187-1.299.87-.222 1.342 2.118 4.627.937 4.536-1.629-.053-1.464.506-2.219 1.643-2.219 1.671 0 3.492-2.777 2.483-3.786-.275-.275-.784.239-1.13 1.143-1.34 3.489-9.463 1.493-9.385-2.307.027-1.304.242-1.273 1.36.2 1.477 1.945 4.143 2.312 5.135.706.655-1.059-1.25-4.081-2.399-3.806-.346.082-1.906.341-3.468.575m-11.189 3.775c1.571 4.157 1.728 5.5.646 5.5-.615 0-1.117-.45-1.117-1s-.745-1-1.655-1c-1.488 0-1.473.201.155 2 3.036 3.355 5.797 2.662 4.979-1.25-.374-1.787-1.374-3.925-2.221-4.75-1.378-1.34-1.462-1.287-.787.5m102.529 2.941c0 2.807-.448 4.559-1.167 4.559-.641 0-.83.337-.418.748 1.161 1.162 3.585-2.814 3.585-5.88 0-1.513-.45-3.028-1-3.368-.611-.378-1 1.156-1 3.941m-3.968-1.882c-.018.582.629 1.932 1.436 3 .808 1.067 1.483 1.465 1.5.882.018-.582-.629-1.932-1.436-3-.808-1.067-1.483-1.465-1.5-.882m-35.114 1.842c.774.933.952 2.775.5 5.185-.614 3.274-.488 3.655 1.022 3.075.948-.363 2.699-.668 3.892-.676 1.597-.012 1.811-.242.811-.875-.946-.6-1.021-1.067-.25-1.544.609-.376 1.107-1.433 1.107-2.348 0-1.311-.329-1.193-1.557.559-2.131 3.043-3.443 2.788-3.443-.67 0-1.76-.643-3.14-1.641-3.523-1.339-.514-1.42-.363-.441.817m-102.572.733c1.324.769 2.159.761 2.95-.03.805-.805.305-1.096-1.846-1.074-2.586.027-2.722.163-1.104 1.104m163.904-.445c3.203.837 1.806 2.311-2.191 2.311-2.168 0-4.179.386-4.471.857-.291.472 1.932.857 4.941.857s5.471-.349 5.471-.775c0-2.264-1.459-3.926-3.357-3.823-1.69.092-1.773.213-.393.573m-127.855 7.429c-.509 1.774-1.528 3.426-2.265 3.672-.941.314-1.153-.142-.712-1.531.812-2.558-1.945-5.132-3.66-3.417-.877.877-.768 1.158.448 1.158 1.061 0 1.445.618 1.131 1.82-.262 1.001.226 2.403 1.085 3.115 2.311 1.918 8.411-4.531 6.291-6.651-1.19-1.19-1.527-.923-2.318 1.834m105.335 1.585c1.227.237 3.139 1.586 4.25 2.999 1.779 2.262 2.02 2.337 2.02.633 0-2.827-1.982-4.354-5.45-4.199-2.323.104-2.519.239-.82.567m-79.599 8.639c-2.362 2.847 5.93 5.197 8.669 2.458 2.042-2.042 1.321-2.998-1.023-1.357-3.018 2.115-4.694 1.956-5.614-.531-.677-1.831-.927-1.901-2.032-.57m22.869 13.106c0 .762.515 1.557 1.143 1.766.852.284.843.943-.035 2.584-.936 1.75-.909 2.202.134 2.202 2.193 0 5.761-3.006 5.706-4.807-.043-1.371-.351-1.266-1.622.557-2.034 2.916-3.167 2.868-2.598-.109.295-1.54-.101-2.57-1.138-2.968-.982-.377-1.59-.08-1.59.775m-31.634 2.317c-.624.404-1.299 1.587-1.5 2.628-.522 2.703-3.668 4.516-4.769 2.75-.472-.756-1.104-.94-1.428-.416-.32.517-2.063.759-3.875.539l-3.294-.401 2.5 1.412c1.375.777 2.917 1.044 3.426.592.51-.452 1.493-.351 2.186.224 1.743 1.447 5.227-.539 6.411-3.654 1.091-2.869 4.402-3.256 5.897-.689.95 1.631 1.021 1.633 1.05.035.046-2.639-4.197-4.579-6.604-3.02m51.884-.103c-.729.294-1.25 2.302-1.25 4.814 0 4.519-1.042 5.586-5.332 5.461-2.123-.062-2.12-.083.156-.996 1.444-.578 2.197-1.592 1.989-2.675-.406-2.108-3.586-2.901-5.169-1.289-.868.883-.48 1 1.606.485 2.103-.519 2.75-.317 2.75.86 0 .846-1.013 1.683-2.25 1.858-2.957.42-2.495 2.234.669 2.632 4.291.538 6.581-1.427 6.581-5.647 0-2.071.54-4.305 1.2-4.965 1.264-1.264 1.092-1.362-.95-.538m-72.031 15.336c-.119 4.179 3.842 5.232 7.336 1.95 1.345-1.263 2.445-2.752 2.445-3.309s-1.309.241-2.909 1.774c-2.358 2.259-3.259 2.585-4.75 1.718-1.725-1.003-1.706-1.072.287-1.101 1.17-.016 2.687-.705 3.372-1.53.785-.946.852-1.5.181-1.5-.584 0-1.341.45-1.681 1s-1.154.964-1.809.921c-.852-.056-.834-.223.065-.585 1.512-.61.652-2.336-1.163-2.336-.746 0-1.325 1.262-1.374 2.998m-40.049 3.002c-.029 4.64.134 5.15 1.046 3.261.76-1.576.77-3.204.034-5.5-1-3.117-1.047-3.019-1.08 2.239m96.826 1.005c-1.744 2.202-3.582 3.751-4.084 3.441s-.912-.087-.912.495c0 2.045 2.201 1.025 5.269-2.441 3.434-3.878 6.146-4.462 7.652-1.647.862 1.61.669 1.791-1.464 1.383-1.423-.271-2.457.001-2.457.647 0 .615.873 1.117 1.941 1.117 2.574 0 3.531 1.726 1.987 3.586-1.687 2.034.424 4.462 2.272 2.614.933-.933.926-1.2-.035-1.2-.921 0-.966-.503-.176-1.979 1.404-2.624.292-6.711-2.326-8.544-3.148-2.205-4.19-1.862-7.667 2.528m125.004 46.299c0 2.04 5.444 10.113 8.374 12.418 1.455 1.145 3.303 3.946 4.108 6.227 1.388 3.933 6.84 11.056 16.114 21.051 2.296 2.475 4.686 6.11 5.31 8.078 2.038 6.421 10.555 18.219 15.105 20.922 2.315 1.375 4.947 3.4 5.849 4.5 5.768 7.033 12.727 12.48 22.219 17.394 5.732 2.967 14.696 7.893 19.921 10.948 5.225 3.054 11.975 6.581 15 7.836s5.387 2.741 5.25 3.302c-.226.921 4.176 1.542 7.6 1.072.828-.114 1.058.287.596 1.036-.47.76-.339.964.348.539.607-.375 6.189.676 12.406 2.335s14.129 3.312 17.583 3.673c3.453.361 6.541 1.08 6.86 1.597.352.569-1.733.723-5.281.391-4.839-.454-5.164-.399-1.862.312 2.2.474 8.163 1.141 13.25 1.481l9.25.62v-9.018c0-5.345-.407-9.018-1-9.018-.55 0-1 .43-1 .956 0 1.57-7.873-1.682-18.15-7.496-5.308-3.003-10.145-5.46-10.75-5.46s-1.1-.45-1.1-1-.492-1-1.093-1c-3.467 0-23.509-17.217-22.306-19.163.284-.46-.164-.837-.995-.837-.832 0-3.513-2.029-5.958-4.508-6.682-6.779-13.534-9.118-13.718-4.683-.058 1.379-.229 1.321-.93-.309-.843-1.963-.861-1.961-.93.095-.038 1.152 1.757 4.921 3.989 8.375s3.856 6.81 3.607 7.458.946 1.797 2.655 2.554c1.709.756 2.594 1.546 1.967 1.755-1.347.449-9.432-4.426-10.588-6.383-.44-.744-1.397-1.354-2.128-1.354-.73 0-3.834-2.854-6.896-6.343-7.679-8.746-19.45-18.283-20.844-16.889-1.515 1.515 2 8.389 5.053 9.884 1.312.642 2.662 1.556 3 2.031s1.892 1.676 3.452 2.67 2.583 2.06 2.274 2.369c-.309.31-1.249-.006-2.087-.702s-1.553-.872-1.588-.392c-.035.479-.216 2.439-.402 4.354-.203 2.092.449 5.025 1.634 7.347 4.444 8.71-2.676 5.049-8.87-4.562-4.367-6.776-11.38-15.936-16.667-21.767-1.246-1.375-4.388-5.247-6.982-8.605-3.92-5.075-7.953-8.395-10.196-8.395-.249 0-.446 1.012-.438 2.25.013 1.835.2 1.973 1.015.75.838-1.257 1.483-.972 3.985 1.766 3.11 3.402 3.767 5.234 1.877 5.234-1.062 0-.804 2.273.755 6.657.36 1.014-.906.078-2.814-2.079-3.177-3.591-5.833-4.256-5.833-1.46 0 .55.489.698 1.086.329.598-.37 2.623.817 4.5 2.637 1.878 1.819 3.414 2.909 3.414 2.421s.661-.014 1.468 1.054c1.88 2.486 1.902.713.032-2.559-1.873-3.277-1.873-5.08 0-4.362.825.317 1.5.115 1.5-.448s-.562-1.25-1.25-1.528c-.8-.322-.841-.533-.115-.583.624-.043 1.841.998 2.704 2.315 1.48 2.259 1.458 2.366-.385 1.884-1.075-.281-1.954-.211-1.954.155 0 1.174 3.163 6.969 5.535 10.142 3.052 4.081 1.737 6.414-1.601 2.841-3.625-3.881-7.759-5.806-9.45-4.402-1.406 1.166-2.454-.395-9.332-13.903-1.292-2.536-4.892-7.371-8-10.744-11.09-12.033-13.681-16.052-8.107-12.571 1.075.672 1.955.793 1.955.269 0-1.442-4.058-3.98-5.487-3.432-.765.294-1.469-.616-1.797-2.325-.678-3.53-.432-3.756 2.448-2.244 2.329 1.223 2.33 1.22.431-.918-1.048-1.181-2.882-2.146-4.076-2.146-2.61 0-7.017-4.386-6.023-5.994.389-.628 1.359-.892 2.157-.586.81.311 1.181.121.84-.431-.336-.544-1.89-.989-3.454-.989-2.26 0-3.058-.615-3.889-3-1.087-3.116-2.15-3.955-2.15-1.696m-208.211 5.091c-.709.767-1.634 1.186-2.055.931-1.144-.693.166-2.326 1.864-2.326 1.216 0 1.251.249.191 1.395m52.211 10.079c0 .261-1.35 1.173-3 2.026s-3 1.177-3 .719 1.237-1.322 2.75-1.92c1.513-.597 2.862-1.134 3-1.193.138-.058.25.107.25.368m102.667.193c-1.202 1.201-.658 3.788 1.333 6.333 2.572 3.288 2.5 5.827-.25 8.821-2.198 2.394-2.201 2.425-.118 1.342 3.888-2.019 4.668-8.676 1.368-11.663-2.551-2.309-2.514-2.947.25-4.28 2.18-1.051 2.185-1.087.167-1.152-1.146-.038-2.384.232-2.75.599m7.774.428c-.383.621-.174 1.452.465 1.847s.873 1.469.521 2.388c-.423 1.103-.131 1.67.859 1.67.825 0 1.768-.698 2.096-1.552.341-.89.173-1.291-.393-.941-.544.336-.989-.289-.989-1.389 0-2.376-1.572-3.619-2.559-2.023m-15.939 9.909c.341.552 1.736.723 3.1.381 1.66-.417 3.126-.036 4.438 1.151 2.091 1.893 2.779.683.76-1.336-1.463-1.463-9.194-1.646-8.298-.196m15.056 2.903c-.309.498.301.681 1.355.406 1.257-.329 2.297.211 3.025 1.57.906 1.693.841 1.969-.354 1.511-.804-.309-2.277-.087-3.273.492-1.579.918-1.449 1.057 1.012 1.084 3.876.041 3.315 3.397-.644 3.852-2.097.242-2.545.635-1.777 1.56 1.958 2.359-2.316 12.618-5.257 12.618-.641 0-.581-.464.155-1.2 3.05-3.05-.076-11.858-4.165-11.737l-2.135.064 2.185.88c3.513 1.416 6.359 9.993 3.315 9.993-.55 0-1 .706-1 1.57 0 2.479 4.245 1.306 5.682-1.57.687-1.375 1.83-3.844 2.541-5.488.711-1.643 2.189-3.152 3.285-3.353 1.095-.201 2.763-1.049 3.705-1.884 3.256-2.885 9.871 5.736 8.27 10.779-.31.978-.028 2.109.628 2.515 1.37.847 3.921-2.16 3.826-4.51-.04-.968-.407-.706-.968.691-1.068 2.656-2.26 3.002-1.782.517 1.211-6.287-6.889-13.99-11.394-10.835-3.479 2.437-4.98 1.845-2.248-.887 2.665-2.664 3.027-4.607 1.42-7.611-1.068-1.994-4.416-2.631-5.407-1.027m75.037 5.093c1.976 2.75 3.771 5 3.99 5 .218 0-.988-2.25-2.68-5s-3.487-5-3.989-5 .704 2.25 2.679 5m9.405-4.192c0 .518 1.258 1.194 2.796 1.501 1.605.321 3.38 1.652 4.169 3.125.755 1.411 1.763 2.566 2.239 2.566 1.166 0-.578-3.135-2.861-5.143-2.285-2.009-6.343-3.32-6.343-2.049m-200.14 5.482 4.359 2.137-4.359 1.872c-5.122 2.199-12.25 3.5-9.86 1.799 1.398-.995.702-1.563-1.419-1.16-.506.096-.343-.52.362-1.37 1.062-1.278 1-1.653-.356-2.173-2.598-.997-.003-3.259 3.728-3.25 1.752.004 5.147.969 7.545 2.145m89.14 2.806c-1.177.836-.959.95 1.008.526 3.098-.665 4.257.047 6.307 3.878 1.453 2.716 1.609 2.787 1.645.75.08-4.498-5.425-7.665-8.96-5.154m47.667-.429c-.367.366-.667 1.577-.667 2.691 0 1.932.061 1.941 1.333.201 1.274-1.742 1.452-1.746 4-.076 3.205 2.099 3.62.298.444-1.926-2.383-1.67-4.042-1.959-5.11-.89m-62.667 3.333c0 2.343-1.53 2.667-2.362.5-.636-1.658-4.638-2.09-4.638-.5 0 .55.9 1 2 1 1.111 0 2 .667 2 1.5 0 2.152 2.742 1.851 3.965-.434 1.309-2.446 1.323-4.066.035-4.066-.55 0-1 .9-1 2m84.5 0c.34.55 1.265 1 2.056 1s3.344 1.688 5.674 3.75c3.276 2.9 3.877 3.184 2.65 1.25-.872-1.375-3.068-3.512-4.88-4.75-3.377-2.305-6.606-3.039-5.5-1.25m-18.41 5.702c-.641 1.406-.905 2.816-.588 3.134.318.317.837-.416 1.154-1.63 1.338-5.116 7.759-.75 10.927 7.431l1.602 4.136-3.589 3.696c-3.528 3.632-5.02 12.533-2.375 14.167.428.265.783 2.368.789 4.673.005 2.394 1.114 6.549 2.585 9.691 1.416 3.025 3.356 7.525 4.311 10s5.687 9.563 10.516 15.75l8.779 11.25 24.149-.079c13.283-.043 23.496-.337 22.696-.651-1.538-.606-2.971-1.665-6.118-4.52-1.06-.962-2.352-1.75-2.871-1.75s-1.532-.788-2.25-1.751c-.719-.962-3.028-3.036-5.131-4.607-2.104-1.571-9.132-8.209-15.62-14.749-6.488-6.541-12.196-11.893-12.685-11.893-.49 0-1.473-.934-2.186-2.076-1.037-1.659-1.584-1.837-2.729-.887-1.142.947-1.572.823-2.123-.611-.433-1.13-.127-2.153.825-2.754 1.53-.965-1.151-6.088-7.153-13.672l-1.978-2.5-.014 2.316c-.007 1.273.379 3.073.859 4 .48.926 1.189 3.934 1.575 6.684l.703 5-3.164-4.253c-3.402-4.574-7.103-6.225-9.499-4.236-1.249 1.036-1.487.833-1.487-1.266 0-3.561 2.424-5.329 5.43-3.959 4.346 1.98 4.855-1.105.949-5.747-2.489-2.958-2.535-3.21-.91-5.005 1.309-1.446 1.462-2.318.651-3.712-.951-1.636-1.063-1.567-1.099.678-.032 1.991-.518 1.483-2.389-2.5-3.959-8.429-10.423-12.448-12.542-7.798m-73.777 1.103c3.086 3.221 3.919 7.442 1 5.067-1.485-1.208-1.605-1.153-1 .46.378 1.007.687 2.006.687 2.218 0 .213.675.128 1.5-.188 2.552-.98 1.903-6.868-.965-8.747-3.719-2.437-4.225-1.945-1.222 1.19m35.77-1.151c-1.974 1.383-2.207 2.172-1.656 5.612.482 3.016.223 4.463-1.049 5.868-.939 1.039-1.191 1.866-.568 1.866 1.896 0 3.436-4.099 2.863-7.626-.431-2.66-.105-3.658 1.581-4.84 1.169-.818 1.9-1.713 1.625-1.988s-1.533.224-2.796 1.108m54.021.209c-.968.649.317 1.042 4.203 1.286 3.08.193 5.244-.003 4.81-.435-1.282-1.277-7.501-1.865-9.013-.851m148.979-.498c2.016 1.763 5.297 2.817 4.045 1.299-.755-.915-2.068-1.664-2.917-1.664s-1.357.164-1.128.365m-143.763 9.59c.431 5.465 1.699 7.825 7.649 14.231 2.203 2.373 4.012 4.877 4.019 5.564.006.688.575 1.248 1.262 1.246 1.165-.003 3.349 1.924 12.606 11.126 2.004 1.993 4.396 4.018 5.315 4.5.919.483 3.944 3.578 6.722 6.878s5.704 6.753 6.502 7.673c1.249 1.44 1.253 1.748.028 2.218-1.96.752-1.785 2.534.327 3.34 2.057.785 3.607 1.945 6.709 5.019 1.249 1.238 3.006 2.25 3.906 2.25.899 0 2.535.9 3.635 2 2.358 2.358 4.178 2.629 3.362.5-.809-2.107.961-1.872 6.421.856 3.36 1.678 5.809 2.221 8.512 1.885 2.78-.344 4.344.028 5.852 1.394 2.688 2.435 42.51 3.513 43.982 1.19 1.263-1.991 1.04-3.104-.503-2.512-1.97.756-4.522-4.141-2.733-5.247 1.461-.903-3.669-3.063-7.292-3.07-2.282-.004-7.447-2.856-10.338-5.708-.996-.984-3.601-2.688-5.787-3.788-2.187-1.1-4.126-2.337-4.309-2.75-.184-.413-.977-.75-1.764-.75s-2.304-.545-3.371-1.212c-2.702-1.687-3.942-.023-1.513 2.03 1.095.925 3.113 2.984 4.486 4.576l2.495 2.894-3.302-.629c-1.937-.37-4.384-1.916-5.919-3.74-1.439-1.71-5.746-4.632-9.57-6.493-3.825-1.861-7.585-3.908-8.356-4.548-2.254-1.87-2.854-.093-.764 2.261 4.081 4.596-1.939.161-7.555-5.565-7.802-7.956-9.901-7.347-3.515 1.019 5.481 7.18 6.102 8.647 3.08 7.27-1.355-.617-2.959-2.318-3.564-3.779s-2.794-4.509-4.863-6.772c-2.069-2.264-4.335-5.397-5.037-6.964-4.524-10.102-13.404-19.259-11.19-11.54.443 1.545 1.564 4.275 2.491 6.068 2.973 5.75 1.546 6.737-3.284 2.271-4.021-3.718-5.287-8.163-1.408-4.946 1.39 1.154 1.385.963-.042-1.701-2.91-5.431-5.689-9.066-5.695-7.45-.004.853.533 2.09 1.193 2.75s.799 1.2.309 1.2-.018.638 1.048 1.418c2.907 2.126 1.081 2.963-2.464 1.13l-3.093-1.599v3.025c0 2.3.453 3.026 1.889 3.026 3.736 0 6.549 3.319 4.987 5.885-1.277 2.1-1.107 2.49 2.374 5.439 5.078 4.301 4.752 5.461-.517 1.836-9.701-6.674-14.163-11.612-15.448-17.093-3.684-15.72-18.994-31.155-17.965-18.112m18.18.622c1.65 1.383 4.012 3.359 5.25 4.393 1.238 1.033 2.25 1.517 2.25 1.075 0-.994-8.522-8.057-9.668-8.013-.458.017.518 1.162 2.168 2.545m-99.944-.667c-.713 1.153.378 4.09 1.52 4.09.473 0 .602-.675.286-1.5-.709-1.846 2.664-2.074 4.438-.3.66.66 1.2.917 1.2.571 0-2.578-6.157-4.944-7.444-2.861m-78.382 3.035c1.279 1.619 2.893 2.969 3.586 3 .693.03 2.03.955 2.972 2.055 2.432 2.84 3.63 2.482 1.676-.5-.901-1.375-2.41-2.5-3.354-2.5s-2.318-1.125-3.054-2.5-1.971-2.5-2.745-2.5c-1.001 0-.736.849.919 2.945m131.256-.524c-.334 1.331-.394 3.244-.135 4.25.33 1.275.508 1.034.589-.799.276-6.26 5.198-4.922 9.807 2.667 1.052 1.732 1.196 1.495 1.235-2.039.024-2.2-.387-4.675-.913-5.5-.66-1.035-.793-.26-.43 2.5l.526 4-1.573-2.725c-2.895-5.013-8.1-6.359-9.106-2.354m146.57-1.075c0 1.882 19.091 7.936 28.643 9.083 2.672.32.357-.499-5.143-1.82-8.63-2.074-13.895-3.79-21.75-7.088-.962-.404-1.75-.483-1.75-.175m-235.205 3.125c-1.948 2.611-1.461 3.529 1.872 3.529 1.585 0 2.308-.561 2.254-1.75-.047-1.045-.282-1.247-.583-.5-.278.688-1.197 1.25-2.044 1.25-1.239 0-1.302-.286-.322-1.466.669-.807 1.062-1.89.873-2.408-.19-.517-1.112.088-2.05 1.345m29.216-.984c-.738.888-.917 2.198-.447 3.25.687 1.538.84 1.464 1.193-.575.34-1.962.835-2.241 3.074-1.735 2.543.575 2.577.532.728-.912-2.417-1.887-3.003-1.89-4.548-.028m-6.51 3.513.604 4.5-1.685-3c-.926-1.65-1.787-3.125-1.913-3.278-.906-1.098-5.433 2.185-6.472 4.694-.786 1.898-2 3.084-3.156 3.084-1.059 0-1.879.701-1.879 1.607 0 1.055.544 1.398 1.582 1 .87-.334 1.761-.607 1.979-.607.219 0 1.331-1.828 2.471-4.063 2.421-4.746 5.28-5.052 5.79-.619.229 1.991.807 2.709 2 2.483 2.011-.381 2.931-7.449 1.195-9.183-.826-.825-.961.062-.516 3.382m52.749-1.329c-2.328.484-2.943 1.783-1.319 2.786.512.317 1.213.118 1.559-.441 2.144-3.469 14.02 2.954 12.713 6.876-.203.609.118 1.108.714 1.108.605 0 1.032-1.653.967-3.75-.064-2.062-.331-2.917-.593-1.899-.417 1.622-.806 1.466-3.134-1.257-2.68-3.134-6.511-4.337-10.907-3.423m60.083 5.954c.302 1.031 1.037 3.769 1.635 6.083.597 2.314 1.511 4.47 2.029 4.79.519.321.281-1.292-.527-3.583-.809-2.292-1.47-4.983-1.47-5.982 0-.998-.498-2.123-1.107-2.499-.717-.443-.914-.023-.56 1.191m-106.497 1.7c1.746 1.859 2.048 3.012 1.505 5.75-.598 3.02-.494 3.274.878 2.145 1.219-1.002 1.37-2.086.693-5-.475-2.046-.875-4.057-.888-4.47s-1.002-.75-2.198-.75h-2.175zm244.164-1.366c2.475.45 8.775 1.066 14 1.371 7.4.431 8.174.371 3.5-.274-8.924-1.23-23.146-2.122-17.5-1.097m-312.751 2.461c-4.039 1.468-5.637 3.006-4.929 4.743.364.891.773.587 1.229-.913.405-1.33 1.481-2.25 2.633-2.25 1.072 0 2.813-.462 3.867-1.026 1.546-.828 2.344-.537 4.115 1.5 2.547 2.929 3.836 3.218 3.836.859 0-.916-.263-1.404-.583-1.083-.321.321-1.446-.279-2.5-1.333-2.14-2.14-2.994-2.195-7.668-.497m-50.864 1.33c1.965 6.613 1.967 7.6.015 6.801-3.963-1.623-5.078-1.644-6.341-.122-1.124 1.354-.977 1.545 1.07 1.397 1.304-.095 3.271.12 4.371.478 3.744 1.218 4.724-.439 3.333-5.638-.686-2.566-1.635-4.666-2.108-4.666s-.626.788-.34 1.75m172.301 4.09c3.198 2.06 5.314 4.955 5.314 7.269 0 .744-.9.416-2.25-.82-2.875-2.631-5.842-3.505-7.75-2.281-1.207.773-1.053.964.785.977 2.805.018 7.215 2.784 7.215 4.523 0 1.419 2.466 2.693 3.402 1.756 1.865-1.865-2.008-12.254-4.57-12.26-.918-.002-2.493-.277-3.5-.61-1.008-.334-.398.317 1.354 1.446m-43.531 2.043c-.98.621-.574 1.042 1.5 1.552 5.403 1.33 7.619 3.445 6.976 6.658-.458 2.29-.215 2.928 1.144 3.007 1.118.064.846.381-.775.9l-2.5.801 2.55.099c2.799.11 4.95-1.508 4.95-3.722 0-1.061-.334-1.146-1.311-.335-1.018.845-1.591.318-2.554-2.347-1.954-5.402-6.811-8.621-9.98-6.613m-142.155 4.307c0 .825.9 2.315 2 3.31 1.64 1.484 2 1.54 2 .31 0-.825-.9-2.315-2-3.31-1.64-1.484-2-1.54-2-.31m6.577 1.26c.457 1.823-.049 3.113-1.981 5.045-3.138 3.138-3.308 3.956-.511 2.46 2.283-1.222 5.331-7.473 4.388-8.999-1.187-1.92-2.494-.889-1.896 1.494m51.279-1.304c2.846.819 3.285 1.337 2.889 3.41-.403 2.107-.108 2.428 2.144 2.328 1.694-.075 1.996-.277.861-.573-1.164-.304-1.75-1.438-1.75-3.384 0-2.732-.25-2.921-3.75-2.837l-3.75.09zm-24.2.987c-1.548.899-4.656 6.48-4.656 8.36 0 .306 1.125.984 2.5 1.507s2.5 1.607 2.5 2.41c0 2.267-1.994 6.966-3.313 7.804-1.931 1.229-2.268.932-2.226-1.964.101-7.089-6.596-3.566-7.774 4.089-1.022 6.647-5.646 9.751-4.891 3.284.639-5.473-5.618-8.585-10.237-5.091-2.192 1.658-3.978 1.955-3.087.514.79-1.278-.456-6.046-1.58-6.046-.491 0-.892 6.975-.892 15.5v15.5h12.5c6.875 0 12.5-.402 12.5-.893 0-1.283-2.605-2.101-6.832-2.146l-3.668-.039 3.215-1.398c2.046-.89 3.457-2.36 3.879-4.044.528-2.102 1.1-2.526 2.785-2.062 9.789 2.692 13.664 1.885 17.7-3.686 2.322-3.205 3.625-4.152 5.396-3.92 1.284.168 2.671-.24 3.084-.907.455-.737.331-.955-.314-.556-1.519.938-4.245-.311-4.245-1.944 0-.819.871-1.284 2.14-1.143 1.177.131 2.363-.396 2.636-1.171.34-.966-.008-1.216-1.108-.794-2.087.801-3.012-.789-2.243-3.854.862-3.435 5.039-3.345 6.869.148l1.357 2.591 1.568-2.393c1.925-2.938.031-8.789-2.845-8.789-1.454 0-1.348.398.675 2.553 2.818 2.998.909 5.624-2.105 2.896-1.908-1.726-4.129-1.864-5.645-.348-.801.801-1.291.501-1.799-1.101-.391-1.231-.214-2.686.401-3.301 1.704-1.704 1.295-3.107-.477-1.636-1.738 1.443-3.378-.045-3.409-3.09-.045-4.492-4.51-7.078-8.359-4.84m103.999.696c-2.153 2.379-2.087 3.47.345 5.671s2.568 5.215.345 7.671c-1.832 2.025 1.131 2.888 3.205.933 1.147-1.081 5.45.39 5.45 1.864 0 .567-.675 1.032-1.5 1.032s-1.5.45-1.5 1 .45 1 1 1 1 .498 1 1.107-.675.848-1.5.531c-1.846-.708-1.904 1.246-.108 3.612 1.783 2.348 2.891 2.217 2.108-.25-.436-1.374-.18-2 .819-2 .851 0 1.637-1.244 1.894-3 .242-1.65.069-3-.386-3s-.774-.337-.709-.75c.379-2.4-.436-3.25-3.118-3.25-2.589 0-3-.368-3-2.686 0-1.477-.915-3.659-2.033-4.849-1.808-1.924-1.863-2.306-.5-3.437 1.666-1.383 2.04-3.028.688-3.028-.465 0-1.59.823-2.5 1.829m-59.196 1.238c-.363.586-.389 1.336-.059 1.666s.6.075.6-.566c0-1.772 3.497-1.395 6.022.65 1.911 1.547 2.071 2.141 1.076 4-1.057 1.974-.929 2.183 1.341 2.183 1.777 0 2.963-.876 4.061-3 .929-1.796 1.127-3 .494-3-.581 0-1.315.672-1.63 1.494-.449 1.169-1.182.842-3.37-1.5-2.823-3.023-7.242-4.02-8.535-1.927m91.541 1.322c0 .764.563 1.326 1.25 1.25.688-.076 1.38.181 1.538.573.159.391 1.622 2.044 3.25 3.673 1.629 1.628 2.962 3.697 2.962 4.597 0 .982.462 1.351 1.155.923.715-.443.883-.275.44.44-.392.635-1.361 1.155-2.154 1.155-1.627 0-1.936 1.576-.485 2.473 1.869 1.155 6.323-8.264 5.307-11.223-.891-2.592-1.845-1.113-1.453 2.25.25 2.142-.022 3.5-.701 3.5-.61 0-1.109-.477-1.109-1.06 0-.582-1.67-3.057-3.712-5.5-3.702-4.428-6.288-5.683-6.288-3.051m-120 1.553c1.925.391 4.625 1.038 6 1.436 2.399.696 2.422.663.559-.826-1.113-.89-3.674-1.503-6-1.437l-4.059.115zm113.776 4.075c.378 3.94.144 5.077-1.15 5.573-.894.343-1.626 1.524-1.626 2.624 0 2.354 1.727 1.934 6.045-1.471 2.299-1.813 2.835-3.009 2.798-6.243l-.047-4-1.004 3.5c-.552 1.925-1.167 4.063-1.367 4.75-.901 3.106-2.425.786-2.425-3.691 0-2.718-.382-5.177-.85-5.466-.467-.289-.636 1.702-.374 4.424m28.356-.749c-.623.623-1.08 2.279-1.016 3.682.094 2.063.208 2.168.597.55.812-3.376 2.096-3.983 4.27-2.016 1.116 1.01 2.246 1.62 2.511 1.356.265-.265-.804-1.432-2.374-2.593-2.126-1.572-3.145-1.822-3.988-.979m-129.564 7.148c.916 3.649-.28 7.569-2.337 7.663-1.082.049-.713.451.981 1.071 1.889.69 3.256.645 4.5-.148 1.636-1.043 1.61-1.103-.302-.706-1.934.401-2.056.079-1.635-4.301.284-2.963.022-5.002-.7-5.449-.814-.503-.964.049-.507 1.87m89.903-1.061c1.135.83 1.609 1.993 1.223 3-.347.905-.147 1.645.446 1.645.649 0 .828.992.449 2.5-.361 1.442-.196 2.5.392 2.5 1.103 0 1.402-6.839.412-9.418-.334-.87-1.545-1.582-2.691-1.582-1.999 0-2.008.056-.231 1.355m-34.873 2.486c-.38.615-2.081.868-3.887.578-2.955-.474-2.833-.311 1.539 2.052 4.826 2.608 5.57 4.129 3.715 7.595-.57 1.064-.642 1.934-.161 1.934s1.399-1.15 2.039-2.555c1.261-2.767-1.825-11.901-3.245-9.604m67.602 1.359c-1.411 1.411-1.564 6.676-.254 8.746.566.895.519 2.184-.123 3.384-.968 1.81-1.133 1.74-2.491-1.063-1.478-3.052-5.726-5.759-7.407-4.721-1.75 1.082-.919 2.205 2.075 2.804 1.65.33 3 1.052 3 1.604 0 .631-.938.576-2.533-.151-2.197-1.001-2.735-.866-4.057 1.021-.838 1.197-2.371 2.176-3.408 2.176-1.036 0-2.183.483-2.547 1.073-.415.672-1.208.297-2.116-1-3.631-5.183-11.339-.169-11.339 7.377 0 6.01 1.982 6.55 24.047 6.55h20.047l-.297-5.369c-.193-3.484-.694-5.218-1.428-4.939-.77.293-.868 1.597-.305 4.091 1.087 4.821.415 5.276-1.613 1.091-2.402-4.958-7.842-7.381-9.522-4.242-.677 1.265-1.661 2.034-2.186 1.709-.526-.325-.567-.872-.09-1.216 2.88-2.078 4.597-7.836 3.41-11.433-2.127-6.447 2.491-7.984 7.86-2.615 3.318 3.318 4.086 2.809 1.446-.96-.897-1.281-3.132-2.956-4.968-3.723-4.024-1.681-3.725-1.67-5.201-.194m-113.331 2.666c2.021 1.554 2.199 2.138 1.215 3.978-1 1.868-.892 2.156.811 2.156 1.704 0 1.852-.395 1.114-2.967-1.185-4.134-1.873-5.036-3.818-5.011-1.347.018-1.21.393.678 1.844m15.171.586c-.663.799-.995 2.261-.739 3.25.384 1.477.488 1.416.583-.345.131-2.414 2.288-3.612 4.78-2.656 1.119.43 1.427.256.941-.531-1.003-1.622-4.116-1.464-5.565.282m72.621-.01c-1.177 3.065-5.755 5.15-7.142 3.252-1.362-1.861-2.519-2.213-2.519-.765 0 3.971 4.889 4.877 8.758 1.621 3.332-2.804 7.242-2.498 7.242.567 0 1.035.45 1.883 1 1.883 2.301 0 .899-4.628-1.904-6.284-3.543-2.093-4.715-2.152-5.435-.274m-58.035 4.025c.382.995-.273 2.593-1.674 4.084-1.265 1.347-1.805 2.449-1.199 2.449 3.075 0 6.114-6.878 3.434-7.771-.743-.248-.953.217-.561 1.238m-47.626 1.058c0 .288 1.125.952 2.5 1.475 1.374.523 3.398 2.424 4.496 4.225 2.341 3.84 2.681 2.984.494-1.245-1.786-3.453-7.49-6.846-7.49-4.455m59.266.609c-1.942 1.942.446 3.866 4.797 3.866 2.101 0 4.081-.423 4.4-.941.343-.553-.787-.718-2.744-.401-2.726.442-3.497.154-4.28-1.601-.751-1.682-1.216-1.88-2.173-.923m22.956 2.952c1.994 2.697 2.021 2.987.451 4.723-2.385 2.635-2.105 3.191 1.605 3.191 3.591 0 6.989-2.95 5.735-4.979-.542-.877-1.209-.579-2.35 1.05-1.687 2.409-1.894 2.192-3.069-3.202-.318-1.461-1.444-2.858-2.534-3.143-1.891-.495-1.885-.409.162 2.36m57.596-.586c1.634 1.375 3.581 2.498 4.326 2.495 1.722-.006-4.183-4.911-5.971-4.959-.729-.02.011 1.089 1.645 2.464m-115.318-.5c-.34.551.37 1 1.581 1 1.209 0 2.796.788 3.527 1.75 1.118 1.473 1.333 1.504 1.36.2.065-3.164-4.928-5.441-6.468-2.95m22.858 8.309c4.713 3.021 6.642 4.985 6.642 6.764 0 1.06.45 1.927 1 1.927 1.339 0 1.266-.584-.494-3.989-1.682-3.253-5.185-6.04-7.479-5.952-1.202.046-1.131.312.331 1.25m19.642-.63c.825.286 2.51 1.713 3.745 3.171 1.617 1.909 2.246 2.204 2.25 1.055.007-2.147-3.2-4.924-5.574-4.826-1.393.057-1.509.222-.421.6m-72.861 2.247c2.546 2.077.722 4.002-2.588 2.732-1.505-.578-7.078 1.768-8.09 3.405-.354.572 8.59.937 22.98.937 12.957 0 23.552-.337 23.544-.75-.051-2.47-1.96-3.477-5.375-2.837-2.833.532-3.61.357-3.61-.811 0-4.126-7.218-5.792-11.273-2.602-1.776 1.397-4.057 2-7.567 2-4.147 0-5.136-.35-5.66-2-.362-1.14-1.513-2-2.678-2-1.948 0-1.933.09.317 1.926m67.528-.259c-.367.366-.667 1.626-.667 2.8 0 1.173-.54 2.673-1.2 3.333-1.371 1.371.032 1.593 2.036.322.735-.465 1.185-1.921 1-3.234-.249-1.773.115-2.352 1.414-2.249.963.076 1.75-.261 1.75-.75 0-1.033-3.351-1.205-4.333-.222m247.333.216c0 1.359 3.947 2.081 7.399 1.355l3.101-.653-3-.674c-4.488-1.009-7.5-1.02-7.5-.028m-153.364 1.287c1.175.568 2.628 2.113 3.228 3.432 1.462 3.208 4.136 3.143 4.136-.102 0-1.375.034-2.826.075-3.225s-.456-.902-1.105-1.118c-.787-.263-.956.311-.508 1.725.848 2.671-.6 2.728-2.962.118-.995-1.1-2.528-1.97-3.405-1.932-1.153.049-1.003.354.541 1.102m-81.411 2.235c-1.25 2.744-2.797 3.38-3.451 1.418-.433-1.301-2.774-.258-2.774 1.236 0 1.425 7.713 1.137 8.255-.309 1.097-2.928-.777-5.094-2.03-2.345m162.775 2.595c0 .55 1.012.993 2.25.985 1.819-.013 1.963-.201.75-.985-1.939-1.253-3-1.253-3 0" fill-rule="evenodd"/></svg>